<mxfile host="app.diagrams.net" modified="2024-07-06T22:40:42.394Z" agent="Mozilla/5.0 (Windows NT 10.0; Win64; x64) AppleWebKit/537.36 (KHTML, like Gecko) Chrome/126.0.0.0 Safari/537.36 Edg/126.0.0.0" etag="CVuq0d1zyg4WbRR4vrgM" version="24.4.9" type="google">
  <diagram name="Page-1" id="5RR4nkGzHVjaHubi-Ef9">
    <mxGraphModel grid="1" page="1" gridSize="10" guides="1" tooltips="1" connect="1" arrows="1" fold="1" pageScale="1" pageWidth="850" pageHeight="1100" math="0" shadow="0">
      <root>
        <mxCell id="0" />
        <mxCell id="1" parent="0" />
        <mxCell id="4x7U3FR9SUszH1-q4xUU-303" value="Text" style="text;html=1;align=center;verticalAlign=middle;resizable=0;points=[];autosize=1;strokeColor=none;fillColor=none;" vertex="1" parent="1">
          <mxGeometry x="-6445.25" y="2358" width="50" height="30" as="geometry" />
        </mxCell>
        <mxCell id="4x7U3FR9SUszH1-q4xUU-304" value="" style="shape=ext;double=1;rounded=0;whiteSpace=wrap;html=1;" vertex="1" parent="1">
          <mxGeometry x="-6470" y="2310" width="2670" height="1465.25" as="geometry" />
        </mxCell>
        <mxCell id="4x7U3FR9SUszH1-q4xUU-305" value="`" style="shape=folder;fontStyle=1;spacingTop=10;tabWidth=150;tabHeight=20;tabPosition=left;html=1;whiteSpace=wrap;fillColor=#482d36;strokeColor=#ae4132;" vertex="1" parent="1">
          <mxGeometry x="-6418.25" y="2515.75" width="540" height="1170" as="geometry" />
        </mxCell>
        <mxCell id="4x7U3FR9SUszH1-q4xUU-306" value="&lt;font style=&quot;font-size: 11px;&quot;&gt;Data Layer&lt;/font&gt;" style="text;strokeColor=none;fillColor=none;html=1;fontSize=24;fontStyle=1;verticalAlign=middle;align=center;" vertex="1" parent="1">
          <mxGeometry x="-6459.004716981133" y="2488.75" width="207.69622641509434" height="68.35133333333334" as="geometry" />
        </mxCell>
        <mxCell id="4x7U3FR9SUszH1-q4xUU-307" value="&lt;b style=&quot;border-color: var(--border-color);&quot;&gt;Feedback Database Repository&lt;br&gt;&lt;/b&gt;" style="shape=module;align=left;spacingLeft=20;align=center;verticalAlign=top;whiteSpace=wrap;html=1;fillColor=#76608a;strokeColor=#432D57;fontColor=#ffffff;" vertex="1" parent="1">
          <mxGeometry x="-6418.25" y="2595.75" width="530" height="360" as="geometry" />
        </mxCell>
        <mxCell id="4x7U3FR9SUszH1-q4xUU-308" value="&lt;b style=&quot;border-color: var(--border-color);&quot;&gt;&lt;b style=&quot;border-color: var(--border-color);&quot;&gt;Feedback Entities&lt;/b&gt;&lt;br&gt;&lt;/b&gt;" style="shape=module;align=left;spacingLeft=20;align=center;verticalAlign=top;whiteSpace=wrap;html=1;fillColor=#76608a;strokeColor=#432D57;fontColor=#ffffff;" vertex="1" parent="1">
          <mxGeometry x="-6399.25" y="3094.66" width="511" height="421.09" as="geometry" />
        </mxCell>
        <mxCell id="4x7U3FR9SUszH1-q4xUU-323" value="&lt;font style=&quot;font-size: 55px;&quot;&gt;Feedback Service&lt;/font&gt;" style="text;strokeColor=none;fillColor=none;html=1;fontSize=24;fontStyle=1;verticalAlign=middle;align=center;" vertex="1" parent="1">
          <mxGeometry x="-5635" y="2339.9991891891896" width="990" height="94.5945945945946" as="geometry" />
        </mxCell>
        <mxCell id="4x7U3FR9SUszH1-q4xUU-324" value="" style="shape=folder;fontStyle=1;spacingTop=10;tabWidth=150;tabHeight=20;tabPosition=left;html=1;whiteSpace=wrap;fillColor=#6b421d;strokeColor=#36393d;" vertex="1" parent="1">
          <mxGeometry x="-5219" y="2507.178454545454" width="1360" height="1173.15" as="geometry" />
        </mxCell>
        <mxCell id="4x7U3FR9SUszH1-q4xUU-325" value="&lt;font style=&quot;font-size: 11px;&quot;&gt;Presentation Layer&lt;/font&gt;" style="text;strokeColor=none;fillColor=none;html=1;fontSize=24;fontStyle=1;verticalAlign=middle;align=center;" vertex="1" parent="1">
          <mxGeometry x="-5269" y="2490.3284545454544" width="215.38" height="40.45454545454546" as="geometry" />
        </mxCell>
        <mxCell id="4x7U3FR9SUszH1-q4xUU-326" value="&lt;div&gt;&lt;b&gt;&lt;font style=&quot;font-size: 25px;&quot;&gt;Framework Feedback DTOs&lt;/font&gt;&lt;/b&gt;&lt;/div&gt;" style="shape=module;align=left;spacingLeft=20;align=center;verticalAlign=top;whiteSpace=wrap;html=1;" vertex="1" parent="1">
          <mxGeometry x="-5180" y="2600.33" width="620" height="1049.67" as="geometry" />
        </mxCell>
        <mxCell id="4x7U3FR9SUszH1-q4xUU-327" value="&lt;div&gt;&lt;b&gt;&lt;font style=&quot;font-size: 25px;&quot;&gt;Framework Feedback Controllers&lt;/font&gt;&lt;/b&gt;&lt;/div&gt;" style="shape=module;align=left;spacingLeft=20;align=center;verticalAlign=top;whiteSpace=wrap;html=1;" vertex="1" parent="1">
          <mxGeometry x="-4510" y="2600.3284545454544" width="571" height="489.67" as="geometry" />
        </mxCell>
        <mxCell id="4x7U3FR9SUszH1-q4xUU-332" value="&lt;span style=&quot;font-size: 25px;&quot;&gt;&lt;b&gt;Feedback Controllers&lt;/b&gt;&lt;/span&gt;" style="shape=module;align=left;spacingLeft=20;align=center;verticalAlign=top;whiteSpace=wrap;html=1;" vertex="1" parent="1">
          <mxGeometry x="-4520" y="3149.9984545454545" width="581" height="500.33" as="geometry" />
        </mxCell>
        <UserObject label="" plantUmlData="{&quot;data&quot;:&quot;@startuml\n\n    class DriverFeedback {\n        + id: Long\n        + feedbackGiverUser: User\n        + feedbackReceiverDriver: User\n        + rating: int\n        + comments: String\n        + createdAt: String\n        + feedbackOptions: List&lt;FeedbackOption&gt;\n    }\n\n    class FeedbackOption {\n        + id: Long\n        + description: String\n        + type: FeedbackOptionType\n    }\n\n    enum FeedbackOptionType {\n        POSITIVE\n        NEGATIVE\n    }\n\n    class UserFeedback {\n        + id: Long\n        + feedbackGiverDriver: User\n        + feedbackReceiverUser: User\n        + rating: int\n        + comments: String\n        + createdAt: String\n        + feedbackOptions: List&lt;FeedbackOption&gt;\n    }\n\n    DriverFeedback \&quot;0..*\&quot; --&gt; \&quot;0..*\&quot; FeedbackOption\n\n    UserFeedback \&quot;0..*\&quot; --&gt; \&quot;0..*\&quot; FeedbackOption\n\n    FeedbackOption --&gt; FeedbackOptionType\n\n@enduml\n&quot;,&quot;format&quot;:&quot;svg&quot;}" id="4x7U3FR9SUszH1-q4xUU-360">
          <mxCell style="shape=image;noLabel=1;verticalAlign=top;aspect=fixed;imageAspect=0;image=data:image/svg+xml,PD94bWwgdmVyc2lvbj0iMS4wIiBlbmNvZGluZz0idXMtYXNjaWkiIHN0YW5kYWxvbmU9Im5vIj8+PHN2ZyB4bWxucz0iaHR0cDovL3d3dy53My5vcmcvMjAwMC9zdmciIHhtbG5zOnhsaW5rPSJodHRwOi8vd3d3LnczLm9yZy8xOTk5L3hsaW5rIiBjb250ZW50U3R5bGVUeXBlPSJ0ZXh0L2NzcyIgaGVpZ2h0PSI0NTdweCIgcHJlc2VydmVBc3BlY3RSYXRpbz0ibm9uZSIgc3R5bGU9IndpZHRoOjYxOXB4O2hlaWdodDo0NTdweDtiYWNrZ3JvdW5kOiNGRkZGRkY7IiB2ZXJzaW9uPSIxLjEiIHZpZXdCb3g9IjAgMCA2MTkgNDU3IiB3aWR0aD0iNjE5cHgiIHpvb21BbmRQYW49Im1hZ25pZnkiPjxkZWZzLz48Zz48IS0tY2xhc3MgRHJpdmVyRmVlZGJhY2stLT48ZyBpZD0iZWxlbV9Ecml2ZXJGZWVkYmFjayI+PHJlY3QgY29kZUxpbmU9IjEiIGZpbGw9IiNGMUYxRjEiIGhlaWdodD0iMTUyLjg5MDYiIGlkPSJEcml2ZXJGZWVkYmFjayIgcng9IjIuNSIgcnk9IjIuNSIgc3R5bGU9InN0cm9rZTojMTgxODE4O3N0cm9rZS13aWR0aDowLjU7IiB3aWR0aD0iMjg1IiB4PSI3IiB5PSI3Ii8+PGVsbGlwc2UgY3g9Ijk2LjI1IiBjeT0iMjMiIGZpbGw9IiNBREQxQjIiIHJ4PSIxMSIgcnk9IjExIiBzdHlsZT0ic3Ryb2tlOiMxODE4MTg7c3Ryb2tlLXdpZHRoOjEuMDsiLz48cGF0aCBkPSJNOTMuODc1LDI3LjI1IEw5My44NzUsMjkgTDk4LjgxMjUsMjkgTDk4LjgxMjUsMjcuMjUgTDkzLjg3NSwyNy4yNSBaIE05NC41NjI1LDI3LjkzNzUgUTk0LjU2MjUsMjcuOTM3NSA5NC41NjI1LDE4Ljc1IEw5Mi44MTI1LDE4Ljc1IFE5Mi44MTI1LDE4Ljc1IDkyLjgxMjUsMjcuOTM3NSBMOTQuNTYyNSwyNy45Mzc1IFogTTk4LjEyNSwyNy45Mzc1IEw5OS44NzUsMjcuOTM3NSBROTkuODc1LDI3LjkzNzUgOTkuODc1LDI1LjEyNSBMOTguMTI1LDI1LjEyNSBROTguMTI1LDI1LjEyNSA5OC4xMjUsMjcuOTM3NSBaIE05OC4xMjUsMTguNzUgUTk4LjEyNSwxOC43NSA5OC4xMjUsMjEuNTYyNSBMOTkuODc1LDIxLjU2MjUgUTk5Ljg3NSwyMS41NjI1IDk5Ljg3NSwxOC43NSBMOTguMTI1LDE4Ljc1IFogTTkzLjg3NSwxOS40Mzc1IEw5OC44MTI1LDE5LjQzNzUgTDk4LjgxMjUsMTcuNjg3NSBMOTMuODc1LDE3LjY4NzUgTDkzLjg3NSwxOS40Mzc1IFogIiBmaWxsPSIjMDAwMDAwIi8+PHRleHQgZmlsbD0iIzAwMDAwMCIgZm9udC1mYW1pbHk9InNhbnMtc2VyaWYiIGZvbnQtc2l6ZT0iMTQiIGxlbmd0aEFkanVzdD0ic3BhY2luZyIgdGV4dExlbmd0aD0iOTgiIHg9IjExNi43NSIgeT0iMjguNzQyMiI+RHJpdmVyRmVlZGJhY2s8L3RleHQ+PGxpbmUgc3R5bGU9InN0cm9rZTojMTgxODE4O3N0cm9rZS13aWR0aDowLjU7IiB4MT0iOCIgeDI9IjI5MSIgeTE9IjM5IiB5Mj0iMzkiLz48ZWxsaXBzZSBjeD0iMTgiIGN5PSI1MS45OTIyIiBmaWxsPSJub25lIiByeD0iMyIgcnk9IjMiIHN0eWxlPSJzdHJva2U6IzAzODA0ODtzdHJva2Utd2lkdGg6MS4wOyIvPjx0ZXh0IGZpbGw9IiMwMDAwMDAiIGZvbnQtZmFtaWx5PSJzYW5zLXNlcmlmIiBmb250LXNpemU9IjE0IiBsZW5ndGhBZGp1c3Q9InNwYWNpbmciIHRleHRMZW5ndGg9IjU2IiB4PSIyNyIgeT0iNTYuMjM0NCI+aWQ6IExvbmc8L3RleHQ+PGVsbGlwc2UgY3g9IjE4IiBjeT0iNjYuOTc2NiIgZmlsbD0ibm9uZSIgcng9IjMiIHJ5PSIzIiBzdHlsZT0ic3Ryb2tlOiMwMzgwNDg7c3Ryb2tlLXdpZHRoOjEuMDsiLz48dGV4dCBmaWxsPSIjMDAwMDAwIiBmb250LWZhbWlseT0ic2Fucy1zZXJpZiIgZm9udC1zaXplPSIxNCIgbGVuZ3RoQWRqdXN0PSJzcGFjaW5nIiB0ZXh0TGVuZ3RoPSIxNjEiIHg9IjI3IiB5PSI3MS4yMTg4Ij5mZWVkYmFja0dpdmVyVXNlcjogVXNlcjwvdGV4dD48ZWxsaXBzZSBjeD0iMTgiIGN5PSI4MS45NjA5IiBmaWxsPSJub25lIiByeD0iMyIgcnk9IjMiIHN0eWxlPSJzdHJva2U6IzAzODA0ODtzdHJva2Utd2lkdGg6MS4wOyIvPjx0ZXh0IGZpbGw9IiMwMDAwMDAiIGZvbnQtZmFtaWx5PSJzYW5zLXNlcmlmIiBmb250LXNpemU9IjE0IiBsZW5ndGhBZGp1c3Q9InNwYWNpbmciIHRleHRMZW5ndGg9IjE5NiIgeD0iMjciIHk9Ijg2LjIwMzEiPmZlZWRiYWNrUmVjZWl2ZXJEcml2ZXI6IFVzZXI8L3RleHQ+PGVsbGlwc2UgY3g9IjE4IiBjeT0iOTYuOTQ1MyIgZmlsbD0ibm9uZSIgcng9IjMiIHJ5PSIzIiBzdHlsZT0ic3Ryb2tlOiMwMzgwNDg7c3Ryb2tlLXdpZHRoOjEuMDsiLz48dGV4dCBmaWxsPSIjMDAwMDAwIiBmb250LWZhbWlseT0ic2Fucy1zZXJpZiIgZm9udC1zaXplPSIxNCIgbGVuZ3RoQWRqdXN0PSJzcGFjaW5nIiB0ZXh0TGVuZ3RoPSI3NyIgeD0iMjciIHk9IjEwMS4xODc1Ij5yYXRpbmc6IGludDwvdGV4dD48ZWxsaXBzZSBjeD0iMTgiIGN5PSIxMTEuOTI5NyIgZmlsbD0ibm9uZSIgcng9IjMiIHJ5PSIzIiBzdHlsZT0ic3Ryb2tlOiMwMzgwNDg7c3Ryb2tlLXdpZHRoOjEuMDsiLz48dGV4dCBmaWxsPSIjMDAwMDAwIiBmb250LWZhbWlseT0ic2Fucy1zZXJpZiIgZm9udC1zaXplPSIxNCIgbGVuZ3RoQWRqdXN0PSJzcGFjaW5nIiB0ZXh0TGVuZ3RoPSIxMTQiIHg9IjI3IiB5PSIxMTYuMTcxOSI+Y29tbWVudHM6IFN0cmluZzwvdGV4dD48ZWxsaXBzZSBjeD0iMTgiIGN5PSIxMjYuOTE0MSIgZmlsbD0ibm9uZSIgcng9IjMiIHJ5PSIzIiBzdHlsZT0ic3Ryb2tlOiMwMzgwNDg7c3Ryb2tlLXdpZHRoOjEuMDsiLz48dGV4dCBmaWxsPSIjMDAwMDAwIiBmb250LWZhbWlseT0ic2Fucy1zZXJpZiIgZm9udC1zaXplPSIxNCIgbGVuZ3RoQWRqdXN0PSJzcGFjaW5nIiB0ZXh0TGVuZ3RoPSIxMTkiIHg9IjI3IiB5PSIxMzEuMTU2MyI+Y3JlYXRlZEF0OiBTdHJpbmc8L3RleHQ+PGVsbGlwc2UgY3g9IjE4IiBjeT0iMTQxLjg5ODQiIGZpbGw9Im5vbmUiIHJ4PSIzIiByeT0iMyIgc3R5bGU9InN0cm9rZTojMDM4MDQ4O3N0cm9rZS13aWR0aDoxLjA7Ii8+PHRleHQgZmlsbD0iIzAwMDAwMCIgZm9udC1mYW1pbHk9InNhbnMtc2VyaWYiIGZvbnQtc2l6ZT0iMTQiIGxlbmd0aEFkanVzdD0ic3BhY2luZyIgdGV4dExlbmd0aD0iMjU5IiB4PSIyNyIgeT0iMTQ2LjE0MDYiPmZlZWRiYWNrT3B0aW9uczogTGlzdCZsdDtGZWVkYmFja09wdGlvbiZndDs8L3RleHQ+PGxpbmUgc3R5bGU9InN0cm9rZTojMTgxODE4O3N0cm9rZS13aWR0aDowLjU7IiB4MT0iOCIgeDI9IjI5MSIgeTE9IjE1MS44OTA2IiB5Mj0iMTUxLjg5MDYiLz48L2c+PCEtLWNsYXNzIEZlZWRiYWNrT3B0aW9uLS0+PGcgaWQ9ImVsZW1fRmVlZGJhY2tPcHRpb24iPjxyZWN0IGNvZGVMaW5lPSIxMSIgZmlsbD0iI0YxRjFGMSIgaGVpZ2h0PSI5Mi45NTMxIiBpZD0iRmVlZGJhY2tPcHRpb24iIHJ4PSIyLjUiIHJ5PSIyLjUiIHN0eWxlPSJzdHJva2U6IzE4MTgxODtzdHJva2Utd2lkdGg6MC41OyIgd2lkdGg9IjE5NCIgeD0iMjEyLjUiIHk9IjIyMCIvPjxlbGxpcHNlIGN4PSIyNTYuMyIgY3k9IjIzNiIgZmlsbD0iI0FERDFCMiIgcng9IjExIiByeT0iMTEiIHN0eWxlPSJzdHJva2U6IzE4MTgxODtzdHJva2Utd2lkdGg6MS4wOyIvPjxwYXRoIGQ9Ik0yNTMuOTI1LDI0MC4yNSBMMjUzLjkyNSwyNDIgTDI1OC44NjI1LDI0MiBMMjU4Ljg2MjUsMjQwLjI1IEwyNTMuOTI1LDI0MC4yNSBaIE0yNTQuNjEyNSwyNDAuOTM3NSBRMjU0LjYxMjUsMjQwLjkzNzUgMjU0LjYxMjUsMjMxLjc1IEwyNTIuODYyNSwyMzEuNzUgUTI1Mi44NjI1LDIzMS43NSAyNTIuODYyNSwyNDAuOTM3NSBMMjU0LjYxMjUsMjQwLjkzNzUgWiBNMjU4LjE3NSwyNDAuOTM3NSBMMjU5LjkyNSwyNDAuOTM3NSBRMjU5LjkyNSwyNDAuOTM3NSAyNTkuOTI1LDIzOC4xMjUgTDI1OC4xNzUsMjM4LjEyNSBRMjU4LjE3NSwyMzguMTI1IDI1OC4xNzUsMjQwLjkzNzUgWiBNMjU4LjE3NSwyMzEuNzUgUTI1OC4xNzUsMjMxLjc1IDI1OC4xNzUsMjM0LjU2MjUgTDI1OS45MjUsMjM0LjU2MjUgUTI1OS45MjUsMjM0LjU2MjUgMjU5LjkyNSwyMzEuNzUgTDI1OC4xNzUsMjMxLjc1IFogTTI1My45MjUsMjMyLjQzNzUgTDI1OC44NjI1LDIzMi40Mzc1IEwyNTguODYyNSwyMzAuNjg3NSBMMjUzLjkyNSwyMzAuNjg3NSBMMjUzLjkyNSwyMzIuNDM3NSBaICIgZmlsbD0iIzAwMDAwMCIvPjx0ZXh0IGZpbGw9IiMwMDAwMDAiIGZvbnQtZmFtaWx5PSJzYW5zLXNlcmlmIiBmb250LXNpemU9IjE0IiBsZW5ndGhBZGp1c3Q9InNwYWNpbmciIHRleHRMZW5ndGg9Ijk4IiB4PSIyNzYuNyIgeT0iMjQxLjc0MjIiPkZlZWRiYWNrT3B0aW9uPC90ZXh0PjxsaW5lIHN0eWxlPSJzdHJva2U6IzE4MTgxODtzdHJva2Utd2lkdGg6MC41OyIgeDE9IjIxMy41IiB4Mj0iNDA1LjUiIHkxPSIyNTIiIHkyPSIyNTIiLz48ZWxsaXBzZSBjeD0iMjIzLjUiIGN5PSIyNjQuOTkyMiIgZmlsbD0ibm9uZSIgcng9IjMiIHJ5PSIzIiBzdHlsZT0ic3Ryb2tlOiMwMzgwNDg7c3Ryb2tlLXdpZHRoOjEuMDsiLz48dGV4dCBmaWxsPSIjMDAwMDAwIiBmb250LWZhbWlseT0ic2Fucy1zZXJpZiIgZm9udC1zaXplPSIxNCIgbGVuZ3RoQWRqdXN0PSJzcGFjaW5nIiB0ZXh0TGVuZ3RoPSI1NiIgeD0iMjMyLjUiIHk9IjI2OS4yMzQ0Ij5pZDogTG9uZzwvdGV4dD48ZWxsaXBzZSBjeD0iMjIzLjUiIGN5PSIyNzkuOTc2NiIgZmlsbD0ibm9uZSIgcng9IjMiIHJ5PSIzIiBzdHlsZT0ic3Ryb2tlOiMwMzgwNDg7c3Ryb2tlLXdpZHRoOjEuMDsiLz48dGV4dCBmaWxsPSIjMDAwMDAwIiBmb250LWZhbWlseT0ic2Fucy1zZXJpZiIgZm9udC1zaXplPSIxNCIgbGVuZ3RoQWRqdXN0PSJzcGFjaW5nIiB0ZXh0TGVuZ3RoPSIxMzMiIHg9IjIzMi41IiB5PSIyODQuMjE4OCI+ZGVzY3JpcHRpb246IFN0cmluZzwvdGV4dD48ZWxsaXBzZSBjeD0iMjIzLjUiIGN5PSIyOTQuOTYwOSIgZmlsbD0ibm9uZSIgcng9IjMiIHJ5PSIzIiBzdHlsZT0ic3Ryb2tlOiMwMzgwNDg7c3Ryb2tlLXdpZHRoOjEuMDsiLz48dGV4dCBmaWxsPSIjMDAwMDAwIiBmb250LWZhbWlseT0ic2Fucy1zZXJpZiIgZm9udC1zaXplPSIxNCIgbGVuZ3RoQWRqdXN0PSJzcGFjaW5nIiB0ZXh0TGVuZ3RoPSIxNjgiIHg9IjIzMi41IiB5PSIyOTkuMjAzMSI+dHlwZTogRmVlZGJhY2tPcHRpb25UeXBlPC90ZXh0PjxsaW5lIHN0eWxlPSJzdHJva2U6IzE4MTgxODtzdHJva2Utd2lkdGg6MC41OyIgeDE9IjIxMy41IiB4Mj0iNDA1LjUiIHkxPSIzMDQuOTUzMSIgeTI9IjMwNC45NTMxIi8+PC9nPjwhLS1jbGFzcyBGZWVkYmFja09wdGlvblR5cGUtLT48ZyBpZD0iZWxlbV9GZWVkYmFja09wdGlvblR5cGUiPjxyZWN0IGNvZGVMaW5lPSIxNyIgZmlsbD0iI0YxRjFGMSIgaGVpZ2h0PSI3Ny45Njg4IiBpZD0iRmVlZGJhY2tPcHRpb25UeXBlIiByeD0iMi41IiByeT0iMi41IiBzdHlsZT0ic3Ryb2tlOiMxODE4MTg7c3Ryb2tlLXdpZHRoOjAuNTsiIHdpZHRoPSIxNTgiIHg9IjIzMC41IiB5PSIzNzMiLz48ZWxsaXBzZSBjeD0iMjQ1LjUiIGN5PSIzODkiIGZpbGw9IiNFQjkzN0YiIHJ4PSIxMSIgcnk9IjExIiBzdHlsZT0ic3Ryb2tlOiMxODE4MTg7c3Ryb2tlLXdpZHRoOjEuMDsiLz48cGF0aCBkPSJNMjQ5LjEyNSwzOTUgTDI0OS4xMjUsMzkzLjI1IEwyNDMuODEyNSwzOTMuMjUgUTI0My44MTI1LDM5My4yNSAyNDMuODEyNSwzODkuNjg3NSBMMjQ4LjA2MjUsMzg5LjY4NzUgTDI0OC4wNjI1LDM4Ny45Mzc1IEwyNDMuODEyNSwzODcuOTM3NSBMMjQzLjgxMjUsMzg1LjQzNzUgTDI0OS4xMjUsMzg1LjQzNzUgTDI0OS4xMjUsMzgzLjY4NzUgTDI0Mi4wNjI1LDM4My42ODc1IFEyNDIuMDYyNSwzODMuNjg3NSAyNDIuMDYyNSwzOTUgTDI0OS4xMjUsMzk1IFogIiBmaWxsPSIjMDAwMDAwIi8+PHRleHQgZmlsbD0iIzAwMDAwMCIgZm9udC1mYW1pbHk9InNhbnMtc2VyaWYiIGZvbnQtc2l6ZT0iMTQiIGxlbmd0aEFkanVzdD0ic3BhY2luZyIgdGV4dExlbmd0aD0iMTI2IiB4PSIyNTkuNSIgeT0iMzk0Ljc0MjIiPkZlZWRiYWNrT3B0aW9uVHlwZTwvdGV4dD48bGluZSBzdHlsZT0ic3Ryb2tlOiMxODE4MTg7c3Ryb2tlLXdpZHRoOjAuNTsiIHgxPSIyMzEuNSIgeDI9IjM4Ny41IiB5MT0iNDA1IiB5Mj0iNDA1Ii8+PHRleHQgZmlsbD0iIzAwMDAwMCIgZm9udC1mYW1pbHk9InNhbnMtc2VyaWYiIGZvbnQtc2l6ZT0iMTQiIGxlbmd0aEFkanVzdD0ic3BhY2luZyIgdGV4dExlbmd0aD0iNTYiIHg9IjIzNi41IiB5PSI0MjIuMjM0NCI+UE9TSVRJVkU8L3RleHQ+PHRleHQgZmlsbD0iIzAwMDAwMCIgZm9udC1mYW1pbHk9InNhbnMtc2VyaWYiIGZvbnQtc2l6ZT0iMTQiIGxlbmd0aEFkanVzdD0ic3BhY2luZyIgdGV4dExlbmd0aD0iNTYiIHg9IjIzNi41IiB5PSI0MzcuMjE4OCI+TkVHQVRJVkU8L3RleHQ+PGxpbmUgc3R5bGU9InN0cm9rZTojMTgxODE4O3N0cm9rZS13aWR0aDowLjU7IiB4MT0iMjMxLjUiIHgyPSIzODcuNSIgeTE9IjQ0Mi45Njg4IiB5Mj0iNDQyLjk2ODgiLz48L2c+PCEtLWNsYXNzIFVzZXJGZWVkYmFjay0tPjxnIGlkPSJlbGVtX1VzZXJGZWVkYmFjayI+PHJlY3QgY29kZUxpbmU9IjIyIiBmaWxsPSIjRjFGMUYxIiBoZWlnaHQ9IjE1Mi44OTA2IiBpZD0iVXNlckZlZWRiYWNrIiByeD0iMi41IiByeT0iMi41IiBzdHlsZT0ic3Ryb2tlOiMxODE4MTg7c3Ryb2tlLXdpZHRoOjAuNTsiIHdpZHRoPSIyODUiIHg9IjMyNyIgeT0iNyIvPjxlbGxpcHNlIGN4PSI0MjMuMjUiIGN5PSIyMyIgZmlsbD0iI0FERDFCMiIgcng9IjExIiByeT0iMTEiIHN0eWxlPSJzdHJva2U6IzE4MTgxODtzdHJva2Utd2lkdGg6MS4wOyIvPjxwYXRoIGQ9Ik00MjAuODc1LDI3LjI1IEw0MjAuODc1LDI5IEw0MjUuODEyNSwyOSBMNDI1LjgxMjUsMjcuMjUgTDQyMC44NzUsMjcuMjUgWiBNNDIxLjU2MjUsMjcuOTM3NSBRNDIxLjU2MjUsMjcuOTM3NSA0MjEuNTYyNSwxOC43NSBMNDE5LjgxMjUsMTguNzUgUTQxOS44MTI1LDE4Ljc1IDQxOS44MTI1LDI3LjkzNzUgTDQyMS41NjI1LDI3LjkzNzUgWiBNNDI1LjEyNSwyNy45Mzc1IEw0MjYuODc1LDI3LjkzNzUgUTQyNi44NzUsMjcuOTM3NSA0MjYuODc1LDI1LjEyNSBMNDI1LjEyNSwyNS4xMjUgUTQyNS4xMjUsMjUuMTI1IDQyNS4xMjUsMjcuOTM3NSBaIE00MjUuMTI1LDE4Ljc1IFE0MjUuMTI1LDE4Ljc1IDQyNS4xMjUsMjEuNTYyNSBMNDI2Ljg3NSwyMS41NjI1IFE0MjYuODc1LDIxLjU2MjUgNDI2Ljg3NSwxOC43NSBMNDI1LjEyNSwxOC43NSBaIE00MjAuODc1LDE5LjQzNzUgTDQyNS44MTI1LDE5LjQzNzUgTDQyNS44MTI1LDE3LjY4NzUgTDQyMC44NzUsMTcuNjg3NSBMNDIwLjg3NSwxOS40Mzc1IFogIiBmaWxsPSIjMDAwMDAwIi8+PHRleHQgZmlsbD0iIzAwMDAwMCIgZm9udC1mYW1pbHk9InNhbnMtc2VyaWYiIGZvbnQtc2l6ZT0iMTQiIGxlbmd0aEFkanVzdD0ic3BhY2luZyIgdGV4dExlbmd0aD0iODQiIHg9IjQ0My43NSIgeT0iMjguNzQyMiI+VXNlckZlZWRiYWNrPC90ZXh0PjxsaW5lIHN0eWxlPSJzdHJva2U6IzE4MTgxODtzdHJva2Utd2lkdGg6MC41OyIgeDE9IjMyOCIgeDI9IjYxMSIgeTE9IjM5IiB5Mj0iMzkiLz48ZWxsaXBzZSBjeD0iMzM4IiBjeT0iNTEuOTkyMiIgZmlsbD0ibm9uZSIgcng9IjMiIHJ5PSIzIiBzdHlsZT0ic3Ryb2tlOiMwMzgwNDg7c3Ryb2tlLXdpZHRoOjEuMDsiLz48dGV4dCBmaWxsPSIjMDAwMDAwIiBmb250LWZhbWlseT0ic2Fucy1zZXJpZiIgZm9udC1zaXplPSIxNCIgbGVuZ3RoQWRqdXN0PSJzcGFjaW5nIiB0ZXh0TGVuZ3RoPSI1NiIgeD0iMzQ3IiB5PSI1Ni4yMzQ0Ij5pZDogTG9uZzwvdGV4dD48ZWxsaXBzZSBjeD0iMzM4IiBjeT0iNjYuOTc2NiIgZmlsbD0ibm9uZSIgcng9IjMiIHJ5PSIzIiBzdHlsZT0ic3Ryb2tlOiMwMzgwNDg7c3Ryb2tlLXdpZHRoOjEuMDsiLz48dGV4dCBmaWxsPSIjMDAwMDAwIiBmb250LWZhbWlseT0ic2Fucy1zZXJpZiIgZm9udC1zaXplPSIxNCIgbGVuZ3RoQWRqdXN0PSJzcGFjaW5nIiB0ZXh0TGVuZ3RoPSIxNzUiIHg9IjM0NyIgeT0iNzEuMjE4OCI+ZmVlZGJhY2tHaXZlckRyaXZlcjogVXNlcjwvdGV4dD48ZWxsaXBzZSBjeD0iMzM4IiBjeT0iODEuOTYwOSIgZmlsbD0ibm9uZSIgcng9IjMiIHJ5PSIzIiBzdHlsZT0ic3Ryb2tlOiMwMzgwNDg7c3Ryb2tlLXdpZHRoOjEuMDsiLz48dGV4dCBmaWxsPSIjMDAwMDAwIiBmb250LWZhbWlseT0ic2Fucy1zZXJpZiIgZm9udC1zaXplPSIxNCIgbGVuZ3RoQWRqdXN0PSJzcGFjaW5nIiB0ZXh0TGVuZ3RoPSIxODIiIHg9IjM0NyIgeT0iODYuMjAzMSI+ZmVlZGJhY2tSZWNlaXZlclVzZXI6IFVzZXI8L3RleHQ+PGVsbGlwc2UgY3g9IjMzOCIgY3k9Ijk2Ljk0NTMiIGZpbGw9Im5vbmUiIHJ4PSIzIiByeT0iMyIgc3R5bGU9InN0cm9rZTojMDM4MDQ4O3N0cm9rZS13aWR0aDoxLjA7Ii8+PHRleHQgZmlsbD0iIzAwMDAwMCIgZm9udC1mYW1pbHk9InNhbnMtc2VyaWYiIGZvbnQtc2l6ZT0iMTQiIGxlbmd0aEFkanVzdD0ic3BhY2luZyIgdGV4dExlbmd0aD0iNzciIHg9IjM0NyIgeT0iMTAxLjE4NzUiPnJhdGluZzogaW50PC90ZXh0PjxlbGxpcHNlIGN4PSIzMzgiIGN5PSIxMTEuOTI5NyIgZmlsbD0ibm9uZSIgcng9IjMiIHJ5PSIzIiBzdHlsZT0ic3Ryb2tlOiMwMzgwNDg7c3Ryb2tlLXdpZHRoOjEuMDsiLz48dGV4dCBmaWxsPSIjMDAwMDAwIiBmb250LWZhbWlseT0ic2Fucy1zZXJpZiIgZm9udC1zaXplPSIxNCIgbGVuZ3RoQWRqdXN0PSJzcGFjaW5nIiB0ZXh0TGVuZ3RoPSIxMTQiIHg9IjM0NyIgeT0iMTE2LjE3MTkiPmNvbW1lbnRzOiBTdHJpbmc8L3RleHQ+PGVsbGlwc2UgY3g9IjMzOCIgY3k9IjEyNi45MTQxIiBmaWxsPSJub25lIiByeD0iMyIgcnk9IjMiIHN0eWxlPSJzdHJva2U6IzAzODA0ODtzdHJva2Utd2lkdGg6MS4wOyIvPjx0ZXh0IGZpbGw9IiMwMDAwMDAiIGZvbnQtZmFtaWx5PSJzYW5zLXNlcmlmIiBmb250LXNpemU9IjE0IiBsZW5ndGhBZGp1c3Q9InNwYWNpbmciIHRleHRMZW5ndGg9IjExOSIgeD0iMzQ3IiB5PSIxMzEuMTU2MyI+Y3JlYXRlZEF0OiBTdHJpbmc8L3RleHQ+PGVsbGlwc2UgY3g9IjMzOCIgY3k9IjE0MS44OTg0IiBmaWxsPSJub25lIiByeD0iMyIgcnk9IjMiIHN0eWxlPSJzdHJva2U6IzAzODA0ODtzdHJva2Utd2lkdGg6MS4wOyIvPjx0ZXh0IGZpbGw9IiMwMDAwMDAiIGZvbnQtZmFtaWx5PSJzYW5zLXNlcmlmIiBmb250LXNpemU9IjE0IiBsZW5ndGhBZGp1c3Q9InNwYWNpbmciIHRleHRMZW5ndGg9IjI1OSIgeD0iMzQ3IiB5PSIxNDYuMTQwNiI+ZmVlZGJhY2tPcHRpb25zOiBMaXN0Jmx0O0ZlZWRiYWNrT3B0aW9uJmd0OzwvdGV4dD48bGluZSBzdHlsZT0ic3Ryb2tlOiMxODE4MTg7c3Ryb2tlLXdpZHRoOjAuNTsiIHgxPSIzMjgiIHgyPSI2MTEiIHkxPSIxNTEuODkwNiIgeTI9IjE1MS44OTA2Ii8+PC9nPjwhLS1saW5rIERyaXZlckZlZWRiYWNrIHRvIEZlZWRiYWNrT3B0aW9uLS0+PGcgaWQ9ImxpbmtfRHJpdmVyRmVlZGJhY2tfRmVlZGJhY2tPcHRpb24iPjxwYXRoIGNvZGVMaW5lPSIzMiIgZD0iTTIxNi40MywxNjAuMjEgQzIzNC4zMiwxODAuNDYgMjQ5LjE0NTMsMTk3LjIyNTQgMjY1LjEyNTMsMjE1LjI5NTQgIiBmaWxsPSJub25lIiBpZD0iRHJpdmVyRmVlZGJhY2stdG8tRmVlZGJhY2tPcHRpb24iIHN0eWxlPSJzdHJva2U6IzE4MTgxODtzdHJva2Utd2lkdGg6MS4wOyIvPjxwb2x5Z29uIGZpbGw9IiMxODE4MTgiIHBvaW50cz0iMjY5LjEsMjE5Ljc5LDI2Ni4xMzQzLDIxMC4zOTgzLDI2NS43ODc3LDIxNi4wNDQ1LDI2MC4xNDE1LDIxNS42OTc5LDI2OS4xLDIxOS43OSIgc3R5bGU9InN0cm9rZTojMTgxODE4O3N0cm9rZS13aWR0aDoxLjA7Ii8+PHRleHQgZmlsbD0iIzAwMDAwMCIgZm9udC1mYW1pbHk9InNhbnMtc2VyaWYiIGZvbnQtc2l6ZT0iMTMiIGxlbmd0aEFkanVzdD0ic3BhY2luZyIgdGV4dExlbmd0aD0iMjUiIHg9IjE5Ni40NDc4IiB5PSIxODAuMjE3MiI+MC4uKjwvdGV4dD48dGV4dCBmaWxsPSIjMDAwMDAwIiBmb250LWZhbWlseT0ic2Fucy1zZXJpZiIgZm9udC1zaXplPSIxMyIgbGVuZ3RoQWRqdXN0PSJzcGFjaW5nIiB0ZXh0TGVuZ3RoPSIyNSIgeD0iMjM1LjMzODQiIHk9IjIxMC4zNDU3Ij4wLi4qPC90ZXh0PjwvZz48IS0tbGluayBVc2VyRmVlZGJhY2sgdG8gRmVlZGJhY2tPcHRpb24tLT48ZyBpZD0ibGlua19Vc2VyRmVlZGJhY2tfRmVlZGJhY2tPcHRpb24iPjxwYXRoIGNvZGVMaW5lPSIzNCIgZD0iTTQwMi41NywxNjAuMjEgQzM4NC42OCwxODAuNDYgMzY5Ljg1NDcsMTk3LjIyNTQgMzUzLjg3NDcsMjE1LjI5NTQgIiBmaWxsPSJub25lIiBpZD0iVXNlckZlZWRiYWNrLXRvLUZlZWRiYWNrT3B0aW9uIiBzdHlsZT0ic3Ryb2tlOiMxODE4MTg7c3Ryb2tlLXdpZHRoOjEuMDsiLz48cG9seWdvbiBmaWxsPSIjMTgxODE4IiBwb2ludHM9IjM0OS45LDIxOS43OSwzNTguODU4NSwyMTUuNjk3OSwzNTMuMjEyMywyMTYuMDQ0NSwzNTIuODY1NywyMTAuMzk4MywzNDkuOSwyMTkuNzkiIHN0eWxlPSJzdHJva2U6IzE4MTgxODtzdHJva2Utd2lkdGg6MS4wOyIvPjx0ZXh0IGZpbGw9IiMwMDAwMDAiIGZvbnQtZmFtaWx5PSJzYW5zLXNlcmlmIiBmb250LXNpemU9IjEzIiBsZW5ndGhBZGp1c3Q9InNwYWNpbmciIHRleHRMZW5ndGg9IjI1IiB4PSIzNzAuMjQ3NSIgeT0iMTgwLjIxNzIiPjAuLio8L3RleHQ+PHRleHQgZmlsbD0iIzAwMDAwMCIgZm9udC1mYW1pbHk9InNhbnMtc2VyaWYiIGZvbnQtc2l6ZT0iMTMiIGxlbmd0aEFkanVzdD0ic3BhY2luZyIgdGV4dExlbmd0aD0iMjUiIHg9IjMyOS41MjA5IiB5PSIyMTAuMzQ1NyI+MC4uKjwvdGV4dD48L2c+PCEtLWxpbmsgRmVlZGJhY2tPcHRpb24gdG8gRmVlZGJhY2tPcHRpb25UeXBlLS0+PGcgaWQ9ImxpbmtfRmVlZGJhY2tPcHRpb25fRmVlZGJhY2tPcHRpb25UeXBlIj48cGF0aCBjb2RlTGluZT0iMzYiIGQ9Ik0zMDkuNSwzMTMuMyBDMzA5LjUsMzMyLjQ5IDMwOS41LDM0OC41NSAzMDkuNSwzNjYuODQgIiBmaWxsPSJub25lIiBpZD0iRmVlZGJhY2tPcHRpb24tdG8tRmVlZGJhY2tPcHRpb25UeXBlIiBzdHlsZT0ic3Ryb2tlOiMxODE4MTg7c3Ryb2tlLXdpZHRoOjEuMDsiLz48cG9seWdvbiBmaWxsPSIjMTgxODE4IiBwb2ludHM9IjMwOS41LDM3Mi44NCwzMTMuNSwzNjMuODQsMzA5LjUsMzY3Ljg0LDMwNS41LDM2My44NCwzMDkuNSwzNzIuODQiIHN0eWxlPSJzdHJva2U6IzE4MTgxODtzdHJva2Utd2lkdGg6MS4wOyIvPjwvZz48IS0tU1JDPVtuUDlWMnk4VzVDTlYtbklON2VrWVB1YjFxMWczUUQ2X3otTGs4SktOVVdpWS1reGJRY0NrZS1XYjdySUVsLURMWnRtVlFtcjM5S3dlSGVaOUVrT3hrM0pXc1RlVzRXUlpKNnVocWtSOTFTUXFyQVdPY0R2MXA5MlpXSHh4bHMwZzlZNnQzOElhWWlncEQ0TDljaTZTYkIwZ1N1S25PSjhXbnJmSENwZ0dvRUpURkhRUS1ZREJ6TkItc2lXN2RiX1QxWnZURks3RGJTWEhubjdlVjQxTXN0NW5yd2ZMS0h2SjFyOGZGOHRjdUk5Uy1RS215T0QxQUxZN0QtX3ZLc2ZsMGdkZHZXcHRsd2RMbGNncHItc3NjajNmVUNOS3padkNyWmp6UHdkejJxRV9mZE8zXS0tPjwvZz48L3N2Zz4=;" vertex="1" parent="1">
            <mxGeometry x="-6382.45" y="3145.75" width="484.2" height="357.48" as="geometry" />
          </mxCell>
        </UserObject>
        <UserObject label="" plantUmlData="{&quot;data&quot;:&quot;@startuml\n\nleft to right direction\n\n    interface DriverFeedbackRepository {\n        + List&lt;DriverFeedback&gt; findByFeedbackReceiverDriver(User feedbackReceiverDriver)\n    }\n\n    interface FeedbackOptionRepository {\n    }\n\n    interface UserFeedbackRepository {\n        + List&lt;UserFeedback&gt; findByFeedbackReceiverUser(User feedbackReceiverUser)\n    }\n\n    DriverFeedbackRepository ..|&gt; JpaRepository\n    FeedbackOptionRepository ..|&gt; JpaRepository\n    UserFeedbackRepository ..|&gt; JpaRepository\n\n    DriverFeedbackRepository ..&gt; DriverFeedback\n    UserFeedbackRepository ..&gt; UserFeedback\n    FeedbackOptionRepository ..&gt; FeedbackOption\n\n    interface JpaRepository {\n        + save(Object entity)\n        + findById(Long id)\n        + findAll()\n        + delete(Object entity)\n    }\n\n@enduml&quot;,&quot;format&quot;:&quot;svg&quot;}" id="4x7U3FR9SUszH1-q4xUU-414">
          <mxCell style="shape=image;noLabel=1;verticalAlign=top;aspect=fixed;imageAspect=0;image=data:image/svg+xml,PD94bWwgdmVyc2lvbj0iMS4wIiBlbmNvZGluZz0idXMtYXNjaWkiIHN0YW5kYWxvbmU9Im5vIj8+PHN2ZyB4bWxucz0iaHR0cDovL3d3dy53My5vcmcvMjAwMC9zdmciIHhtbG5zOnhsaW5rPSJodHRwOi8vd3d3LnczLm9yZy8xOTk5L3hsaW5rIiBjb250ZW50U3R5bGVUeXBlPSJ0ZXh0L2NzcyIgaGVpZ2h0PSIzNzFweCIgcHJlc2VydmVBc3BlY3RSYXRpbz0ibm9uZSIgc3R5bGU9IndpZHRoOjgyM3B4O2hlaWdodDozNzFweDtiYWNrZ3JvdW5kOiNGRkZGRkY7IiB2ZXJzaW9uPSIxLjEiIHZpZXdCb3g9IjAgMCA4MjMgMzcxIiB3aWR0aD0iODIzcHgiIHpvb21BbmRQYW49Im1hZ25pZnkiPjxkZWZzLz48Zz48IS0tY2xhc3MgRHJpdmVyRmVlZGJhY2tSZXBvc2l0b3J5LS0+PGcgaWQ9ImVsZW1fRHJpdmVyRmVlZGJhY2tSZXBvc2l0b3J5Ij48cmVjdCBjb2RlTGluZT0iMyIgZmlsbD0iI0YxRjFGMSIgaGVpZ2h0PSI2Mi45ODQ0IiBpZD0iRHJpdmVyRmVlZGJhY2tSZXBvc2l0b3J5IiByeD0iMi41IiByeT0iMi41IiBzdHlsZT0ic3Ryb2tlOiMxODE4MTg7c3Ryb2tlLXdpZHRoOjAuNTsiIHdpZHRoPSI1NzQiIHg9IjciIHk9IjE1OS41Ii8+PGVsbGlwc2UgY3g9IjIwNS43NSIgY3k9IjE3NS41IiBmaWxsPSIjQjRBN0U1IiByeD0iMTEiIHJ5PSIxMSIgc3R5bGU9InN0cm9rZTojMTgxODE4O3N0cm9rZS13aWR0aDoxLjA7Ii8+PHBhdGggZD0iTTIwOC44NzUsMTgxLjUgTDIwOC44NzUsMTc5Ljc1IEwyMDYuNzUsMTc5Ljc1IFEyMDYuNzUsMTc5Ljc1IDIwNi43NSwxNzEuOTM3NSBMMjA4Ljg3NSwxNzEuOTM3NSBMMjA4Ljg3NSwxNzAuMTg3NSBMMjAyLjg3NSwxNzAuMTg3NSBMMjAyLjg3NSwxNzEuOTM3NSBMMjA1LDE3MS45Mzc1IFEyMDUsMTcxLjkzNzUgMjA1LDE3OS43NSBMMjAyLjg3NSwxNzkuNzUgTDIwMi44NzUsMTgxLjUgTDIwOC44NzUsMTgxLjUgWiAiIGZpbGw9IiMwMDAwMDAiLz48dGV4dCBmaWxsPSIjMDAwMDAwIiBmb250LWZhbWlseT0ic2Fucy1zZXJpZiIgZm9udC1zaXplPSIxNCIgZm9udC1zdHlsZT0iaXRhbGljIiBsZW5ndGhBZGp1c3Q9InNwYWNpbmciIHRleHRMZW5ndGg9IjE2OCIgeD0iMjI2LjI1IiB5PSIxODEuMjQyMiI+RHJpdmVyRmVlZGJhY2tSZXBvc2l0b3J5PC90ZXh0PjxsaW5lIHN0eWxlPSJzdHJva2U6IzE4MTgxODtzdHJva2Utd2lkdGg6MC41OyIgeDE9IjgiIHgyPSI1ODAiIHkxPSIxOTEuNSIgeTI9IjE5MS41Ii8+PGxpbmUgc3R5bGU9InN0cm9rZTojMTgxODE4O3N0cm9rZS13aWR0aDowLjU7IiB4MT0iOCIgeDI9IjU4MCIgeTE9IjE5OS41IiB5Mj0iMTk5LjUiLz48ZWxsaXBzZSBjeD0iMTgiIGN5PSIyMTIuNDkyMiIgZmlsbD0iIzg0QkU4NCIgcng9IjMiIHJ5PSIzIiBzdHlsZT0ic3Ryb2tlOiMwMzgwNDg7c3Ryb2tlLXdpZHRoOjEuMDsiLz48dGV4dCBmaWxsPSIjMDAwMDAwIiBmb250LWZhbWlseT0ic2Fucy1zZXJpZiIgZm9udC1zaXplPSIxNCIgbGVuZ3RoQWRqdXN0PSJzcGFjaW5nIiB0ZXh0TGVuZ3RoPSI1NDgiIHg9IjI3IiB5PSIyMTYuNzM0NCI+TGlzdCZsdDtEcml2ZXJGZWVkYmFjayZndDsgZmluZEJ5RmVlZGJhY2tSZWNlaXZlckRyaXZlcihVc2VyIGZlZWRiYWNrUmVjZWl2ZXJEcml2ZXIpPC90ZXh0PjwvZz48IS0tY2xhc3MgRmVlZGJhY2tPcHRpb25SZXBvc2l0b3J5LS0+PGcgaWQ9ImVsZW1fRmVlZGJhY2tPcHRpb25SZXBvc2l0b3J5Ij48cmVjdCBjb2RlTGluZT0iNyIgZmlsbD0iI0YxRjFGMSIgaGVpZ2h0PSI0OCIgaWQ9IkZlZWRiYWNrT3B0aW9uUmVwb3NpdG9yeSIgcng9IjIuNSIgcnk9IjIuNSIgc3R5bGU9InN0cm9rZTojMTgxODE4O3N0cm9rZS13aWR0aDowLjU7IiB3aWR0aD0iMjAwIiB4PSIxOTQiIHk9Ijc0Ii8+PGVsbGlwc2UgY3g9IjIwOSIgY3k9IjkwIiBmaWxsPSIjQjRBN0U1IiByeD0iMTEiIHJ5PSIxMSIgc3R5bGU9InN0cm9rZTojMTgxODE4O3N0cm9rZS13aWR0aDoxLjA7Ii8+PHBhdGggZD0iTTIxMi4xMjUsOTYgTDIxMi4xMjUsOTQuMjUgTDIxMCw5NC4yNSBRMjEwLDk0LjI1IDIxMCw4Ni40Mzc1IEwyMTIuMTI1LDg2LjQzNzUgTDIxMi4xMjUsODQuNjg3NSBMMjA2LjEyNSw4NC42ODc1IEwyMDYuMTI1LDg2LjQzNzUgTDIwOC4yNSw4Ni40Mzc1IFEyMDguMjUsODYuNDM3NSAyMDguMjUsOTQuMjUgTDIwNi4xMjUsOTQuMjUgTDIwNi4xMjUsOTYgTDIxMi4xMjUsOTYgWiAiIGZpbGw9IiMwMDAwMDAiLz48dGV4dCBmaWxsPSIjMDAwMDAwIiBmb250LWZhbWlseT0ic2Fucy1zZXJpZiIgZm9udC1zaXplPSIxNCIgZm9udC1zdHlsZT0iaXRhbGljIiBsZW5ndGhBZGp1c3Q9InNwYWNpbmciIHRleHRMZW5ndGg9IjE2OCIgeD0iMjIzIiB5PSI5NS43NDIyIj5GZWVkYmFja09wdGlvblJlcG9zaXRvcnk8L3RleHQ+PGxpbmUgc3R5bGU9InN0cm9rZTojMTgxODE4O3N0cm9rZS13aWR0aDowLjU7IiB4MT0iMTk1IiB4Mj0iMzkzIiB5MT0iMTA2IiB5Mj0iMTA2Ii8+PGxpbmUgc3R5bGU9InN0cm9rZTojMTgxODE4O3N0cm9rZS13aWR0aDowLjU7IiB4MT0iMTk1IiB4Mj0iMzkzIiB5MT0iMTE0IiB5Mj0iMTE0Ii8+PC9nPjwhLS1jbGFzcyBVc2VyRmVlZGJhY2tSZXBvc2l0b3J5LS0+PGcgaWQ9ImVsZW1fVXNlckZlZWRiYWNrUmVwb3NpdG9yeSI+PHJlY3QgY29kZUxpbmU9IjEwIiBmaWxsPSIjRjFGMUYxIiBoZWlnaHQ9IjYyLjk4NDQiIGlkPSJVc2VyRmVlZGJhY2tSZXBvc2l0b3J5IiByeD0iMi41IiByeT0iMi41IiBzdHlsZT0ic3Ryb2tlOiMxODE4MTg7c3Ryb2tlLXdpZHRoOjAuNTsiIHdpZHRoPSI1MzIiIHg9IjI4IiB5PSIyNjAuNSIvPjxlbGxpcHNlIGN4PSIyMTIuNzUiIGN5PSIyNzYuNSIgZmlsbD0iI0I0QTdFNSIgcng9IjExIiByeT0iMTEiIHN0eWxlPSJzdHJva2U6IzE4MTgxODtzdHJva2Utd2lkdGg6MS4wOyIvPjxwYXRoIGQ9Ik0yMTUuODc1LDI4Mi41IEwyMTUuODc1LDI4MC43NSBMMjEzLjc1LDI4MC43NSBRMjEzLjc1LDI4MC43NSAyMTMuNzUsMjcyLjkzNzUgTDIxNS44NzUsMjcyLjkzNzUgTDIxNS44NzUsMjcxLjE4NzUgTDIwOS44NzUsMjcxLjE4NzUgTDIwOS44NzUsMjcyLjkzNzUgTDIxMiwyNzIuOTM3NSBRMjEyLDI3Mi45Mzc1IDIxMiwyODAuNzUgTDIwOS44NzUsMjgwLjc1IEwyMDkuODc1LDI4Mi41IEwyMTUuODc1LDI4Mi41IFogIiBmaWxsPSIjMDAwMDAwIi8+PHRleHQgZmlsbD0iIzAwMDAwMCIgZm9udC1mYW1pbHk9InNhbnMtc2VyaWYiIGZvbnQtc2l6ZT0iMTQiIGZvbnQtc3R5bGU9Iml0YWxpYyIgbGVuZ3RoQWRqdXN0PSJzcGFjaW5nIiB0ZXh0TGVuZ3RoPSIxNTQiIHg9IjIzMy4yNSIgeT0iMjgyLjI0MjIiPlVzZXJGZWVkYmFja1JlcG9zaXRvcnk8L3RleHQ+PGxpbmUgc3R5bGU9InN0cm9rZTojMTgxODE4O3N0cm9rZS13aWR0aDowLjU7IiB4MT0iMjkiIHgyPSI1NTkiIHkxPSIyOTIuNSIgeTI9IjI5Mi41Ii8+PGxpbmUgc3R5bGU9InN0cm9rZTojMTgxODE4O3N0cm9rZS13aWR0aDowLjU7IiB4MT0iMjkiIHgyPSI1NTkiIHkxPSIzMDAuNSIgeTI9IjMwMC41Ii8+PGVsbGlwc2UgY3g9IjM5IiBjeT0iMzEzLjQ5MjIiIGZpbGw9IiM4NEJFODQiIHJ4PSIzIiByeT0iMyIgc3R5bGU9InN0cm9rZTojMDM4MDQ4O3N0cm9rZS13aWR0aDoxLjA7Ii8+PHRleHQgZmlsbD0iIzAwMDAwMCIgZm9udC1mYW1pbHk9InNhbnMtc2VyaWYiIGZvbnQtc2l6ZT0iMTQiIGxlbmd0aEFkanVzdD0ic3BhY2luZyIgdGV4dExlbmd0aD0iNTA2IiB4PSI0OCIgeT0iMzE3LjczNDQiPkxpc3QmbHQ7VXNlckZlZWRiYWNrJmd0OyBmaW5kQnlGZWVkYmFja1JlY2VpdmVyVXNlcihVc2VyIGZlZWRiYWNrUmVjZWl2ZXJVc2VyKTwvdGV4dD48L2c+PCEtLWNsYXNzIEpwYVJlcG9zaXRvcnktLT48ZyBpZD0iZWxlbV9KcGFSZXBvc2l0b3J5Ij48cmVjdCBjb2RlTGluZT0iMjIiIGZpbGw9IiNGMUYxRjEiIGhlaWdodD0iMTA3LjkzNzUiIGlkPSJKcGFSZXBvc2l0b3J5IiByeD0iMi41IiByeT0iMi41IiBzdHlsZT0ic3Ryb2tlOiMxODE4MTg7c3Ryb2tlLXdpZHRoOjAuNTsiIHdpZHRoPSIxNzUiIHg9IjY0MSIgeT0iOTAiLz48ZWxsaXBzZSBjeD0iNjc4Ljk1IiBjeT0iMTA2IiBmaWxsPSIjQjRBN0U1IiByeD0iMTEiIHJ5PSIxMSIgc3R5bGU9InN0cm9rZTojMTgxODE4O3N0cm9rZS13aWR0aDoxLjA7Ii8+PHBhdGggZD0iTTY4Mi4wNzUsMTEyIEw2ODIuMDc1LDExMC4yNSBMNjc5Ljk1LDExMC4yNSBRNjc5Ljk1LDExMC4yNSA2NzkuOTUsMTAyLjQzNzUgTDY4Mi4wNzUsMTAyLjQzNzUgTDY4Mi4wNzUsMTAwLjY4NzUgTDY3Ni4wNzUsMTAwLjY4NzUgTDY3Ni4wNzUsMTAyLjQzNzUgTDY3OC4yLDEwMi40Mzc1IFE2NzguMiwxMDIuNDM3NSA2NzguMiwxMTAuMjUgTDY3Ni4wNzUsMTEwLjI1IEw2NzYuMDc1LDExMiBMNjgyLjA3NSwxMTIgWiAiIGZpbGw9IiMwMDAwMDAiLz48dGV4dCBmaWxsPSIjMDAwMDAwIiBmb250LWZhbWlseT0ic2Fucy1zZXJpZiIgZm9udC1zaXplPSIxNCIgZm9udC1zdHlsZT0iaXRhbGljIiBsZW5ndGhBZGp1c3Q9InNwYWNpbmciIHRleHRMZW5ndGg9IjkyIiB4PSI2OTguMDUiIHk9IjExMS43NDIyIj5KcGFSZXBvc2l0b3J5PC90ZXh0PjxsaW5lIHN0eWxlPSJzdHJva2U6IzE4MTgxODtzdHJva2Utd2lkdGg6MC41OyIgeDE9IjY0MiIgeDI9IjgxNSIgeTE9IjEyMiIgeTI9IjEyMiIvPjxsaW5lIHN0eWxlPSJzdHJva2U6IzE4MTgxODtzdHJva2Utd2lkdGg6MC41OyIgeDE9IjY0MiIgeDI9IjgxNSIgeTE9IjEzMCIgeTI9IjEzMCIvPjxlbGxpcHNlIGN4PSI2NTIiIGN5PSIxNDIuOTkyMiIgZmlsbD0iIzg0QkU4NCIgcng9IjMiIHJ5PSIzIiBzdHlsZT0ic3Ryb2tlOiMwMzgwNDg7c3Ryb2tlLXdpZHRoOjEuMDsiLz48dGV4dCBmaWxsPSIjMDAwMDAwIiBmb250LWZhbWlseT0ic2Fucy1zZXJpZiIgZm9udC1zaXplPSIxNCIgbGVuZ3RoQWRqdXN0PSJzcGFjaW5nIiB0ZXh0TGVuZ3RoPSIxMzUiIHg9IjY2MSIgeT0iMTQ3LjIzNDQiPnNhdmUoT2JqZWN0IGVudGl0eSk8L3RleHQ+PGVsbGlwc2UgY3g9IjY1MiIgY3k9IjE1Ny45NzY2IiBmaWxsPSIjODRCRTg0IiByeD0iMyIgcnk9IjMiIHN0eWxlPSJzdHJva2U6IzAzODA0ODtzdHJva2Utd2lkdGg6MS4wOyIvPjx0ZXh0IGZpbGw9IiMwMDAwMDAiIGZvbnQtZmFtaWx5PSJzYW5zLXNlcmlmIiBmb250LXNpemU9IjE0IiBsZW5ndGhBZGp1c3Q9InNwYWNpbmciIHRleHRMZW5ndGg9IjEyMSIgeD0iNjYxIiB5PSIxNjIuMjE4OCI+ZmluZEJ5SWQoTG9uZyBpZCk8L3RleHQ+PGVsbGlwc2UgY3g9IjY1MiIgY3k9IjE3Mi45NjA5IiBmaWxsPSIjODRCRTg0IiByeD0iMyIgcnk9IjMiIHN0eWxlPSJzdHJva2U6IzAzODA0ODtzdHJva2Utd2lkdGg6MS4wOyIvPjx0ZXh0IGZpbGw9IiMwMDAwMDAiIGZvbnQtZmFtaWx5PSJzYW5zLXNlcmlmIiBmb250LXNpemU9IjE0IiBsZW5ndGhBZGp1c3Q9InNwYWNpbmciIHRleHRMZW5ndGg9IjY1IiB4PSI2NjEiIHk9IjE3Ny4yMDMxIj5maW5kQWxsKCk8L3RleHQ+PGVsbGlwc2UgY3g9IjY1MiIgY3k9IjE4Ny45NDUzIiBmaWxsPSIjODRCRTg0IiByeD0iMyIgcnk9IjMiIHN0eWxlPSJzdHJva2U6IzAzODA0ODtzdHJva2Utd2lkdGg6MS4wOyIvPjx0ZXh0IGZpbGw9IiMwMDAwMDAiIGZvbnQtZmFtaWx5PSJzYW5zLXNlcmlmIiBmb250LXNpemU9IjE0IiBsZW5ndGhBZGp1c3Q9InNwYWNpbmciIHRleHRMZW5ndGg9IjE0OSIgeD0iNjYxIiB5PSIxOTIuMTg3NSI+ZGVsZXRlKE9iamVjdCBlbnRpdHkpPC90ZXh0PjwvZz48IS0tY2xhc3MgRHJpdmVyRmVlZGJhY2stLT48ZyBpZD0iZWxlbV9Ecml2ZXJGZWVkYmFjayI+PHJlY3QgZmlsbD0iI0YxRjFGMSIgaGVpZ2h0PSI0OCIgaWQ9IkRyaXZlckZlZWRiYWNrIiByeD0iMi41IiByeT0iMi41IiBzdHlsZT0ic3Ryb2tlOiMxODE4MTg7c3Ryb2tlLXdpZHRoOjAuNTsiIHdpZHRoPSIxMzAiIHg9IjY2My41IiB5PSIyMzMiLz48ZWxsaXBzZSBjeD0iNjc4LjUiIGN5PSIyNDkiIGZpbGw9IiNBREQxQjIiIHJ4PSIxMSIgcnk9IjExIiBzdHlsZT0ic3Ryb2tlOiMxODE4MTg7c3Ryb2tlLXdpZHRoOjEuMDsiLz48cGF0aCBkPSJNNjc2LjEyNSwyNTMuMjUgTDY3Ni4xMjUsMjU1IEw2ODEuMDYyNSwyNTUgTDY4MS4wNjI1LDI1My4yNSBMNjc2LjEyNSwyNTMuMjUgWiBNNjc2LjgxMjUsMjUzLjkzNzUgUTY3Ni44MTI1LDI1My45Mzc1IDY3Ni44MTI1LDI0NC43NSBMNjc1LjA2MjUsMjQ0Ljc1IFE2NzUuMDYyNSwyNDQuNzUgNjc1LjA2MjUsMjUzLjkzNzUgTDY3Ni44MTI1LDI1My45Mzc1IFogTTY4MC4zNzUsMjUzLjkzNzUgTDY4Mi4xMjUsMjUzLjkzNzUgUTY4Mi4xMjUsMjUzLjkzNzUgNjgyLjEyNSwyNTEuMTI1IEw2ODAuMzc1LDI1MS4xMjUgUTY4MC4zNzUsMjUxLjEyNSA2ODAuMzc1LDI1My45Mzc1IFogTTY4MC4zNzUsMjQ0Ljc1IFE2ODAuMzc1LDI0NC43NSA2ODAuMzc1LDI0Ny41NjI1IEw2ODIuMTI1LDI0Ny41NjI1IFE2ODIuMTI1LDI0Ny41NjI1IDY4Mi4xMjUsMjQ0Ljc1IEw2ODAuMzc1LDI0NC43NSBaIE02NzYuMTI1LDI0NS40Mzc1IEw2ODEuMDYyNSwyNDUuNDM3NSBMNjgxLjA2MjUsMjQzLjY4NzUgTDY3Ni4xMjUsMjQzLjY4NzUgTDY3Ni4xMjUsMjQ1LjQzNzUgWiAiIGZpbGw9IiMwMDAwMDAiLz48dGV4dCBmaWxsPSIjMDAwMDAwIiBmb250LWZhbWlseT0ic2Fucy1zZXJpZiIgZm9udC1zaXplPSIxNCIgbGVuZ3RoQWRqdXN0PSJzcGFjaW5nIiB0ZXh0TGVuZ3RoPSI5OCIgeD0iNjkyLjUiIHk9IjI1NC43NDIyIj5Ecml2ZXJGZWVkYmFjazwvdGV4dD48bGluZSBzdHlsZT0ic3Ryb2tlOiMxODE4MTg7c3Ryb2tlLXdpZHRoOjAuNTsiIHgxPSI2NjQuNSIgeDI9Ijc5Mi41IiB5MT0iMjY1IiB5Mj0iMjY1Ii8+PGxpbmUgc3R5bGU9InN0cm9rZTojMTgxODE4O3N0cm9rZS13aWR0aDowLjU7IiB4MT0iNjY0LjUiIHgyPSI3OTIuNSIgeTE9IjI3MyIgeTI9IjI3MyIvPjwvZz48IS0tY2xhc3MgVXNlckZlZWRiYWNrLS0+PGcgaWQ9ImVsZW1fVXNlckZlZWRiYWNrIj48cmVjdCBmaWxsPSIjRjFGMUYxIiBoZWlnaHQ9IjQ4IiBpZD0iVXNlckZlZWRiYWNrIiByeD0iMi41IiByeT0iMi41IiBzdHlsZT0ic3Ryb2tlOiMxODE4MTg7c3Ryb2tlLXdpZHRoOjAuNTsiIHdpZHRoPSIxMTYiIHg9IjY3MC41IiB5PSIzMTYiLz48ZWxsaXBzZSBjeD0iNjg1LjUiIGN5PSIzMzIiIGZpbGw9IiNBREQxQjIiIHJ4PSIxMSIgcnk9IjExIiBzdHlsZT0ic3Ryb2tlOiMxODE4MTg7c3Ryb2tlLXdpZHRoOjEuMDsiLz48cGF0aCBkPSJNNjgzLjEyNSwzMzYuMjUgTDY4My4xMjUsMzM4IEw2ODguMDYyNSwzMzggTDY4OC4wNjI1LDMzNi4yNSBMNjgzLjEyNSwzMzYuMjUgWiBNNjgzLjgxMjUsMzM2LjkzNzUgUTY4My44MTI1LDMzNi45Mzc1IDY4My44MTI1LDMyNy43NSBMNjgyLjA2MjUsMzI3Ljc1IFE2ODIuMDYyNSwzMjcuNzUgNjgyLjA2MjUsMzM2LjkzNzUgTDY4My44MTI1LDMzNi45Mzc1IFogTTY4Ny4zNzUsMzM2LjkzNzUgTDY4OS4xMjUsMzM2LjkzNzUgUTY4OS4xMjUsMzM2LjkzNzUgNjg5LjEyNSwzMzQuMTI1IEw2ODcuMzc1LDMzNC4xMjUgUTY4Ny4zNzUsMzM0LjEyNSA2ODcuMzc1LDMzNi45Mzc1IFogTTY4Ny4zNzUsMzI3Ljc1IFE2ODcuMzc1LDMyNy43NSA2ODcuMzc1LDMzMC41NjI1IEw2ODkuMTI1LDMzMC41NjI1IFE2ODkuMTI1LDMzMC41NjI1IDY4OS4xMjUsMzI3Ljc1IEw2ODcuMzc1LDMyNy43NSBaIE02ODMuMTI1LDMyOC40Mzc1IEw2ODguMDYyNSwzMjguNDM3NSBMNjg4LjA2MjUsMzI2LjY4NzUgTDY4My4xMjUsMzI2LjY4NzUgTDY4My4xMjUsMzI4LjQzNzUgWiAiIGZpbGw9IiMwMDAwMDAiLz48dGV4dCBmaWxsPSIjMDAwMDAwIiBmb250LWZhbWlseT0ic2Fucy1zZXJpZiIgZm9udC1zaXplPSIxNCIgbGVuZ3RoQWRqdXN0PSJzcGFjaW5nIiB0ZXh0TGVuZ3RoPSI4NCIgeD0iNjk5LjUiIHk9IjMzNy43NDIyIj5Vc2VyRmVlZGJhY2s8L3RleHQ+PGxpbmUgc3R5bGU9InN0cm9rZTojMTgxODE4O3N0cm9rZS13aWR0aDowLjU7IiB4MT0iNjcxLjUiIHgyPSI3ODUuNSIgeTE9IjM0OCIgeTI9IjM0OCIvPjxsaW5lIHN0eWxlPSJzdHJva2U6IzE4MTgxODtzdHJva2Utd2lkdGg6MC41OyIgeDE9IjY3MS41IiB4Mj0iNzg1LjUiIHkxPSIzNTYiIHkyPSIzNTYiLz48L2c+PCEtLWNsYXNzIEZlZWRiYWNrT3B0aW9uLS0+PGcgaWQ9ImVsZW1fRmVlZGJhY2tPcHRpb24iPjxyZWN0IGZpbGw9IiNGMUYxRjEiIGhlaWdodD0iNDgiIGlkPSJGZWVkYmFja09wdGlvbiIgcng9IjIuNSIgcnk9IjIuNSIgc3R5bGU9InN0cm9rZTojMTgxODE4O3N0cm9rZS13aWR0aDowLjU7IiB3aWR0aD0iMTMwIiB4PSI2NjMuNSIgeT0iNyIvPjxlbGxpcHNlIGN4PSI2NzguNSIgY3k9IjIzIiBmaWxsPSIjQUREMUIyIiByeD0iMTEiIHJ5PSIxMSIgc3R5bGU9InN0cm9rZTojMTgxODE4O3N0cm9rZS13aWR0aDoxLjA7Ii8+PHBhdGggZD0iTTY3Ni4xMjUsMjcuMjUgTDY3Ni4xMjUsMjkgTDY4MS4wNjI1LDI5IEw2ODEuMDYyNSwyNy4yNSBMNjc2LjEyNSwyNy4yNSBaIE02NzYuODEyNSwyNy45Mzc1IFE2NzYuODEyNSwyNy45Mzc1IDY3Ni44MTI1LDE4Ljc1IEw2NzUuMDYyNSwxOC43NSBRNjc1LjA2MjUsMTguNzUgNjc1LjA2MjUsMjcuOTM3NSBMNjc2LjgxMjUsMjcuOTM3NSBaIE02ODAuMzc1LDI3LjkzNzUgTDY4Mi4xMjUsMjcuOTM3NSBRNjgyLjEyNSwyNy45Mzc1IDY4Mi4xMjUsMjUuMTI1IEw2ODAuMzc1LDI1LjEyNSBRNjgwLjM3NSwyNS4xMjUgNjgwLjM3NSwyNy45Mzc1IFogTTY4MC4zNzUsMTguNzUgUTY4MC4zNzUsMTguNzUgNjgwLjM3NSwyMS41NjI1IEw2ODIuMTI1LDIxLjU2MjUgUTY4Mi4xMjUsMjEuNTYyNSA2ODIuMTI1LDE4Ljc1IEw2ODAuMzc1LDE4Ljc1IFogTTY3Ni4xMjUsMTkuNDM3NSBMNjgxLjA2MjUsMTkuNDM3NSBMNjgxLjA2MjUsMTcuNjg3NSBMNjc2LjEyNSwxNy42ODc1IEw2NzYuMTI1LDE5LjQzNzUgWiAiIGZpbGw9IiMwMDAwMDAiLz48dGV4dCBmaWxsPSIjMDAwMDAwIiBmb250LWZhbWlseT0ic2Fucy1zZXJpZiIgZm9udC1zaXplPSIxNCIgbGVuZ3RoQWRqdXN0PSJzcGFjaW5nIiB0ZXh0TGVuZ3RoPSI5OCIgeD0iNjkyLjUiIHk9IjI4Ljc0MjIiPkZlZWRiYWNrT3B0aW9uPC90ZXh0PjxsaW5lIHN0eWxlPSJzdHJva2U6IzE4MTgxODtzdHJva2Utd2lkdGg6MC41OyIgeDE9IjY2NC41IiB4Mj0iNzkyLjUiIHkxPSIzOSIgeTI9IjM5Ii8+PGxpbmUgc3R5bGU9InN0cm9rZTojMTgxODE4O3N0cm9rZS13aWR0aDowLjU7IiB4MT0iNjY0LjUiIHgyPSI3OTIuNSIgeTE9IjQ3IiB5Mj0iNDciLz48L2c+PCEtLWxpbmsgRHJpdmVyRmVlZGJhY2tSZXBvc2l0b3J5IHRvIEpwYVJlcG9zaXRvcnktLT48ZyBpZD0ibGlua19Ecml2ZXJGZWVkYmFja1JlcG9zaXRvcnlfSnBhUmVwb3NpdG9yeSI+PHBhdGggY29kZUxpbmU9IjE0IiBkPSJNNTgxLjA4LDE1OS45MSBDNjAyLjI4LDE1Ny42MSA2MDQuNTk1LDE1Ny4zNTE1IDYyMi44NDUsMTU1LjM3MTUgIiBmaWxsPSJub25lIiBpZD0iRHJpdmVyRmVlZGJhY2tSZXBvc2l0b3J5LXRvLUpwYVJlcG9zaXRvcnkiIHN0eWxlPSJzdHJva2U6IzE4MTgxODtzdHJva2Utd2lkdGg6MS4wO3N0cm9rZS1kYXNoYXJyYXk6Ny4wLDcuMDsiLz48cG9seWdvbiBmaWxsPSJub25lIiBwb2ludHM9IjY0MC43NCwxNTMuNDMsNjIyLjE5NzgsMTQ5LjQwNjUsNjIzLjQ5MjIsMTYxLjMzNjUsNjQwLjc0LDE1My40MyIgc3R5bGU9InN0cm9rZTojMTgxODE4O3N0cm9rZS13aWR0aDoxLjA7Ii8+PC9nPjwhLS1saW5rIEZlZWRiYWNrT3B0aW9uUmVwb3NpdG9yeSB0byBKcGFSZXBvc2l0b3J5LS0+PGcgaWQ9ImxpbmtfRmVlZGJhY2tPcHRpb25SZXBvc2l0b3J5X0pwYVJlcG9zaXRvcnkiPjxwYXRoIGNvZGVMaW5lPSIxNSIgZD0iTTM5NC4yMiwxMDguNTUgQzQ2OC42NywxMTYuNDcgNTUxLjY5MTEsMTI1LjI5NSA2MjIuOTExMSwxMzIuODc1ICIgZmlsbD0ibm9uZSIgaWQ9IkZlZWRiYWNrT3B0aW9uUmVwb3NpdG9yeS10by1KcGFSZXBvc2l0b3J5IiBzdHlsZT0ic3Ryb2tlOiMxODE4MTg7c3Ryb2tlLXdpZHRoOjEuMDtzdHJva2UtZGFzaGFycmF5OjcuMCw3LjA7Ii8+PHBvbHlnb24gZmlsbD0ibm9uZSIgcG9pbnRzPSI2NDAuODEsMTM0Ljc4LDYyMy41NDYxLDEyNi45MDg3LDYyMi4yNzYxLDEzOC44NDEzLDY0MC44MSwxMzQuNzgiIHN0eWxlPSJzdHJva2U6IzE4MTgxODtzdHJva2Utd2lkdGg6MS4wOyIvPjwvZz48IS0tbGluayBVc2VyRmVlZGJhY2tSZXBvc2l0b3J5IHRvIEpwYVJlcG9zaXRvcnktLT48ZyBpZD0ibGlua19Vc2VyRmVlZGJhY2tSZXBvc2l0b3J5X0pwYVJlcG9zaXRvcnkiPjxwYXRoIGNvZGVMaW5lPSIxNiIgZD0iTTUxOC40MSwyNjAuNDIgQzUzOS44OSwyNTQuNyA1NjEuMDgsMjQ3Ljk2IDU4MSwyNDAgQzYwNy40LDIyOS40NSA2MTkuMTI2OCwyMjMuODU5OCA2NDIuMzM2OCwyMDguMjM5OCAiIGZpbGw9Im5vbmUiIGlkPSJVc2VyRmVlZGJhY2tSZXBvc2l0b3J5LXRvLUpwYVJlcG9zaXRvcnkiIHN0eWxlPSJzdHJva2U6IzE4MTgxODtzdHJva2Utd2lkdGg6MS4wO3N0cm9rZS1kYXNoYXJyYXk6Ny4wLDcuMDsiLz48cG9seWdvbiBmaWxsPSJub25lIiBwb2ludHM9IjY1Ny4yNywxOTguMTksNjM4Ljk4NjgsMjAzLjI2MjEsNjQ1LjY4NjcsMjEzLjIxNzYsNjU3LjI3LDE5OC4xOSIgc3R5bGU9InN0cm9rZTojMTgxODE4O3N0cm9rZS13aWR0aDoxLjA7Ii8+PC9nPjwhLS1saW5rIERyaXZlckZlZWRiYWNrUmVwb3NpdG9yeSB0byBEcml2ZXJGZWVkYmFjay0tPjxnIGlkPSJsaW5rX0RyaXZlckZlZWRiYWNrUmVwb3NpdG9yeV9Ecml2ZXJGZWVkYmFjayI+PHBhdGggY29kZUxpbmU9IjE4IiBkPSJNNTAxLjQzLDIyMi41IEM1NjAuMTIsMjMxLjQ2IDYxMy44NDg3LDIzOS42NTQzIDY1Ny4xMzg3LDI0Ni4yNjQzICIgZmlsbD0ibm9uZSIgaWQ9IkRyaXZlckZlZWRiYWNrUmVwb3NpdG9yeS10by1Ecml2ZXJGZWVkYmFjayIgc3R5bGU9InN0cm9rZTojMTgxODE4O3N0cm9rZS13aWR0aDoxLjA7c3Ryb2tlLWRhc2hhcnJheTo3LjAsNy4wOyIvPjxwb2x5Z29uIGZpbGw9IiMxODE4MTgiIHBvaW50cz0iNjYzLjA3LDI0Ny4xNyw2NTQuNzc2OSwyNDEuODU3NCw2NTguMTI3MywyNDYuNDE1Myw2NTMuNTY5MywyNDkuNzY1Nyw2NjMuMDcsMjQ3LjE3IiBzdHlsZT0ic3Ryb2tlOiMxODE4MTg7c3Ryb2tlLXdpZHRoOjEuMDsiLz48L2c+PCEtLWxpbmsgVXNlckZlZWRiYWNrUmVwb3NpdG9yeSB0byBVc2VyRmVlZGJhY2stLT48ZyBpZD0ibGlua19Vc2VyRmVlZGJhY2tSZXBvc2l0b3J5X1VzZXJGZWVkYmFjayI+PHBhdGggY29kZUxpbmU9IjE5IiBkPSJNNTYwLjI4LDMyMS40NCBDNjAxLjcyLDMyNi4wNCA2MzQuNjY2NiwzMjkuNjk4NSA2NjQuNTA2NiwzMzMuMDA4NSAiIGZpbGw9Im5vbmUiIGlkPSJVc2VyRmVlZGJhY2tSZXBvc2l0b3J5LXRvLVVzZXJGZWVkYmFjayIgc3R5bGU9InN0cm9rZTojMTgxODE4O3N0cm9rZS13aWR0aDoxLjA7c3Ryb2tlLWRhc2hhcnJheTo3LjAsNy4wOyIvPjxwb2x5Z29uIGZpbGw9IiMxODE4MTgiIHBvaW50cz0iNjcwLjQ3LDMzMy42Nyw2NjEuOTY1OSwzMjguNzAyMSw2NjUuNTAwNSwzMzMuMTE4OCw2NjEuMDgzOSwzMzYuNjUzNCw2NzAuNDcsMzMzLjY3IiBzdHlsZT0ic3Ryb2tlOiMxODE4MTg7c3Ryb2tlLXdpZHRoOjEuMDsiLz48L2c+PCEtLWxpbmsgRmVlZGJhY2tPcHRpb25SZXBvc2l0b3J5IHRvIEZlZWRiYWNrT3B0aW9uLS0+PGcgaWQ9ImxpbmtfRmVlZGJhY2tPcHRpb25SZXBvc2l0b3J5X0ZlZWRiYWNrT3B0aW9uIj48cGF0aCBjb2RlTGluZT0iMjAiIGQ9Ik0zOTQuMjIsODIuNjMgQzQ3Ni45LDY5LjgyIDU4Ni4zMDA4LDUyLjg3ODkgNjU3LjM0MDgsNDEuODY4OSAiIGZpbGw9Im5vbmUiIGlkPSJGZWVkYmFja09wdGlvblJlcG9zaXRvcnktdG8tRmVlZGJhY2tPcHRpb24iIHN0eWxlPSJzdHJva2U6IzE4MTgxODtzdHJva2Utd2lkdGg6MS4wO3N0cm9rZS1kYXNoYXJyYXk6Ny4wLDcuMDsiLz48cG9seWdvbiBmaWxsPSIjMTgxODE4IiBwb2ludHM9IjY2My4yNyw0MC45NSw2NTMuNzYzNiwzOC4zNzU2LDY1OC4zMjksNDEuNzE1OCw2NTQuOTg4OCw0Ni4yODEyLDY2My4yNyw0MC45NSIgc3R5bGU9InN0cm9rZTojMTgxODE4O3N0cm9rZS13aWR0aDoxLjA7Ii8+PC9nPjwhLS1TUkM9W1pQOUgyaThtMzhSVlR1ZXlKV0hGODBMNTE0S08yMXZXaGZiNkhwa3c4MHByeGd1UnViZk5Qbl9wVnFzX0RZcW1QczBEWGF2ZDFhYTZDb1FqZVdZUUhPaEh2NmM2aTM5cUd4RDZiQ1Nxay13bnIxTW5EWk5TTXoya0FVb2V1aGJCMmlYOW9NTnpzUGNYcEppZ0ZiSGU4MV9DOWN0WmZvX29SZklLTGxEQnY4a3Q5X29adFVUMnFmT1BMaFA1SHBadU5oRlBHeTJzSjMtYmJXelVBeTA3aFpMMFotYThCX3BUTlpaSGNCaG1HZHl1WmdhcGFvZ3pPUG1TQnlybDE1SENONHp3UUpVVVpPbnRNZnMwZjl5allZQmtyb0dNbzhGemRZeTBdLS0+PC9nPjwvc3ZnPg==;" vertex="1" parent="1">
            <mxGeometry x="-6403.36" y="2675.75" width="510.22" height="230" as="geometry" />
          </mxCell>
        </UserObject>
        <UserObject label="" plantUmlData="{&#xa;  &quot;data&quot;: &quot;@startuml\n\nleft to right direction\nskinparam packageStyle rectangle\n\n    class BaseDriverFeedbackDto {\n        - Long feedbackGiverUserId\n        - Long feedbackReceiverDriverId\n        - int rating\n        - String comments\n        - List&lt;DriverFeedbackOption&gt; feedbackOptions\n    }\n\n    class BaseDriverFeedbackResponseDto {\n        - Long id\n        - Long feedbackGiverUserId\n        - Long feedbackReceiverDriverId\n        - int rating\n        - String comments\n        - String createdAt\n    }\n\n    class BaseUserFeedbackDto {\n        - Long feedbackGiverDriverId\n        - Long feedbackReceiverUserId\n        - int rating\n        - String comments\n        - List&lt;UserFeedbackOption&gt; feedbackOptions\n    }\n\n    class BaseUserFeedbackResponseDto {\n        - Long id\n        - Long feedbackGiverDriverId\n        - Long feedbackReceiverUserId\n        - int rating\n        - String comments\n        - String createdAt\n    }\n\n    enum DriverFeedbackOption {\n        + SAFE_DRIVER\n        + POLITE\n        + CLEAN_CAR\n        + GOOD_NAVIGATION\n        + DANGEROUS_DRIVER\n        + NO_AC\n        + RUDE\n        + LATE\n        # String description\n        # boolean isPositive\n    }\n\n    enum UserFeedbackOption {\n        + POLITE\n        + TIMELY\n        + GOOD_COMMUNICATION\n        + RUDE\n        + LATE\n        + NO_SHOW\n        + INTOXICATED\n        # String description\n        # boolean isPositive\n    }\n@enduml\n&quot;,&#xa;  &quot;format&quot;: &quot;svg&quot;&#xa;}" id="4x7U3FR9SUszH1-q4xUU-418">
          <mxCell style="shape=image;noLabel=1;verticalAlign=top;aspect=fixed;imageAspect=0;image=data:image/svg+xml,PD94bWwgdmVyc2lvbj0iMS4wIiBlbmNvZGluZz0idXMtYXNjaWkiIHN0YW5kYWxvbmU9Im5vIj8+PHN2ZyB4bWxucz0iaHR0cDovL3d3dy53My5vcmcvMjAwMC9zdmciIHhtbG5zOnhsaW5rPSJodHRwOi8vd3d3LnczLm9yZy8xOTk5L3hsaW5rIiBjb250ZW50U3R5bGVUeXBlPSJ0ZXh0L2NzcyIgaGVpZ2h0PSI2MDNweCIgcHJlc2VydmVBc3BlY3RSYXRpbz0ibm9uZSIgc3R5bGU9IndpZHRoOjYxNXB4O2hlaWdodDo2MDNweDtiYWNrZ3JvdW5kOiNGRkZGRkY7IiB2ZXJzaW9uPSIxLjEiIHZpZXdCb3g9IjAgMCA2MTUgNjAzIiB3aWR0aD0iNjE1cHgiIHpvb21BbmRQYW49Im1hZ25pZnkiPjxkZWZzLz48Zz48IS0tY2xhc3MgQmFzZURyaXZlckZlZWRiYWNrRHRvLS0+PGcgaWQ9ImVsZW1fQmFzZURyaXZlckZlZWRiYWNrRHRvIj48cmVjdCBjb2RlTGluZT0iNCIgZmlsbD0iI0YxRjFGMSIgaGVpZ2h0PSIxMjIuOTIxOSIgaWQ9IkJhc2VEcml2ZXJGZWVkYmFja0R0byIgcng9IjIuNSIgcnk9IjIuNSIgc3R5bGU9InN0cm9rZTojMTgxODE4O3N0cm9rZS13aWR0aDowLjU7IiB3aWR0aD0iMzIwIiB4PSI3IiB5PSIxNC41Ii8+PGVsbGlwc2UgY3g9Ijg5LjI1IiBjeT0iMzAuNSIgZmlsbD0iI0FERDFCMiIgcng9IjExIiByeT0iMTEiIHN0eWxlPSJzdHJva2U6IzE4MTgxODtzdHJva2Utd2lkdGg6MS4wOyIvPjxwYXRoIGQ9Ik04Ni44NzUsMzQuNzUgTDg2Ljg3NSwzNi41IEw5MS44MTI1LDM2LjUgTDkxLjgxMjUsMzQuNzUgTDg2Ljg3NSwzNC43NSBaIE04Ny41NjI1LDM1LjQzNzUgUTg3LjU2MjUsMzUuNDM3NSA4Ny41NjI1LDI2LjI1IEw4NS44MTI1LDI2LjI1IFE4NS44MTI1LDI2LjI1IDg1LjgxMjUsMzUuNDM3NSBMODcuNTYyNSwzNS40Mzc1IFogTTkxLjEyNSwzNS40Mzc1IEw5Mi44NzUsMzUuNDM3NSBROTIuODc1LDM1LjQzNzUgOTIuODc1LDMyLjYyNSBMOTEuMTI1LDMyLjYyNSBROTEuMTI1LDMyLjYyNSA5MS4xMjUsMzUuNDM3NSBaIE05MS4xMjUsMjYuMjUgUTkxLjEyNSwyNi4yNSA5MS4xMjUsMjkuMDYyNSBMOTIuODc1LDI5LjA2MjUgUTkyLjg3NSwyOS4wNjI1IDkyLjg3NSwyNi4yNSBMOTEuMTI1LDI2LjI1IFogTTg2Ljg3NSwyNi45Mzc1IEw5MS44MTI1LDI2LjkzNzUgTDkxLjgxMjUsMjUuMTg3NSBMODYuODc1LDI1LjE4NzUgTDg2Ljg3NSwyNi45Mzc1IFogIiBmaWxsPSIjMDAwMDAwIi8+PHRleHQgZmlsbD0iIzAwMDAwMCIgZm9udC1mYW1pbHk9InNhbnMtc2VyaWYiIGZvbnQtc2l6ZT0iMTQiIGxlbmd0aEFkanVzdD0ic3BhY2luZyIgdGV4dExlbmd0aD0iMTQ3IiB4PSIxMDkuNzUiIHk9IjM2LjI0MjIiPkJhc2VEcml2ZXJGZWVkYmFja0R0bzwvdGV4dD48bGluZSBzdHlsZT0ic3Ryb2tlOiMxODE4MTg7c3Ryb2tlLXdpZHRoOjAuNTsiIHgxPSI4IiB4Mj0iMzI2IiB5MT0iNDYuNSIgeTI9IjQ2LjUiLz48cmVjdCBmaWxsPSJub25lIiBoZWlnaHQ9IjYiIHN0eWxlPSJzdHJva2U6I0M4MjkzMDtzdHJva2Utd2lkdGg6MS4wOyIgd2lkdGg9IjYiIHg9IjE1IiB5PSI1Ni40OTIyIi8+PHRleHQgZmlsbD0iIzAwMDAwMCIgZm9udC1mYW1pbHk9InNhbnMtc2VyaWYiIGZvbnQtc2l6ZT0iMTQiIGxlbmd0aEFkanVzdD0ic3BhY2luZyIgdGV4dExlbmd0aD0iMTY4IiB4PSIyNyIgeT0iNjMuNzM0NCI+TG9uZyBmZWVkYmFja0dpdmVyVXNlcklkPC90ZXh0PjxyZWN0IGZpbGw9Im5vbmUiIGhlaWdodD0iNiIgc3R5bGU9InN0cm9rZTojQzgyOTMwO3N0cm9rZS13aWR0aDoxLjA7IiB3aWR0aD0iNiIgeD0iMTUiIHk9IjcxLjQ3NjYiLz48dGV4dCBmaWxsPSIjMDAwMDAwIiBmb250LWZhbWlseT0ic2Fucy1zZXJpZiIgZm9udC1zaXplPSIxNCIgbGVuZ3RoQWRqdXN0PSJzcGFjaW5nIiB0ZXh0TGVuZ3RoPSIyMDMiIHg9IjI3IiB5PSI3OC43MTg4Ij5Mb25nIGZlZWRiYWNrUmVjZWl2ZXJEcml2ZXJJZDwvdGV4dD48cmVjdCBmaWxsPSJub25lIiBoZWlnaHQ9IjYiIHN0eWxlPSJzdHJva2U6I0M4MjkzMDtzdHJva2Utd2lkdGg6MS4wOyIgd2lkdGg9IjYiIHg9IjE1IiB5PSI4Ni40NjA5Ii8+PHRleHQgZmlsbD0iIzAwMDAwMCIgZm9udC1mYW1pbHk9InNhbnMtc2VyaWYiIGZvbnQtc2l6ZT0iMTQiIGxlbmd0aEFkanVzdD0ic3BhY2luZyIgdGV4dExlbmd0aD0iNzAiIHg9IjI3IiB5PSI5My43MDMxIj5pbnQgcmF0aW5nPC90ZXh0PjxyZWN0IGZpbGw9Im5vbmUiIGhlaWdodD0iNiIgc3R5bGU9InN0cm9rZTojQzgyOTMwO3N0cm9rZS13aWR0aDoxLjA7IiB3aWR0aD0iNiIgeD0iMTUiIHk9IjEwMS40NDUzIi8+PHRleHQgZmlsbD0iIzAwMDAwMCIgZm9udC1mYW1pbHk9InNhbnMtc2VyaWYiIGZvbnQtc2l6ZT0iMTQiIGxlbmd0aEFkanVzdD0ic3BhY2luZyIgdGV4dExlbmd0aD0iMTA3IiB4PSIyNyIgeT0iMTA4LjY4NzUiPlN0cmluZyBjb21tZW50czwvdGV4dD48cmVjdCBmaWxsPSJub25lIiBoZWlnaHQ9IjYiIHN0eWxlPSJzdHJva2U6I0M4MjkzMDtzdHJva2Utd2lkdGg6MS4wOyIgd2lkdGg9IjYiIHg9IjE1IiB5PSIxMTYuNDI5NyIvPjx0ZXh0IGZpbGw9IiMwMDAwMDAiIGZvbnQtZmFtaWx5PSJzYW5zLXNlcmlmIiBmb250LXNpemU9IjE0IiBsZW5ndGhBZGp1c3Q9InNwYWNpbmciIHRleHRMZW5ndGg9IjI5NCIgeD0iMjciIHk9IjEyMy42NzE5Ij5MaXN0Jmx0O0RyaXZlckZlZWRiYWNrT3B0aW9uJmd0OyBmZWVkYmFja09wdGlvbnM8L3RleHQ+PGxpbmUgc3R5bGU9InN0cm9rZTojMTgxODE4O3N0cm9rZS13aWR0aDowLjU7IiB4MT0iOCIgeDI9IjMyNiIgeTE9IjEyOS40MjE5IiB5Mj0iMTI5LjQyMTkiLz48L2c+PCEtLWNsYXNzIEJhc2VEcml2ZXJGZWVkYmFja1Jlc3BvbnNlRHRvLS0+PGcgaWQ9ImVsZW1fQmFzZURyaXZlckZlZWRiYWNrUmVzcG9uc2VEdG8iPjxyZWN0IGNvZGVMaW5lPSIxMiIgZmlsbD0iI0YxRjFGMSIgaGVpZ2h0PSIxMzcuOTA2MyIgaWQ9IkJhc2VEcml2ZXJGZWVkYmFja1Jlc3BvbnNlRHRvIiByeD0iMi41IiByeT0iMi41IiBzdHlsZT0ic3Ryb2tlOiMxODE4MTg7c3Ryb2tlLXdpZHRoOjAuNTsiIHdpZHRoPSIyMzUiIHg9IjQ5LjUiIHk9IjE3MyIvPjxlbGxpcHNlIGN4PSI2NC41IiBjeT0iMTg5IiBmaWxsPSIjQUREMUIyIiByeD0iMTEiIHJ5PSIxMSIgc3R5bGU9InN0cm9rZTojMTgxODE4O3N0cm9rZS13aWR0aDoxLjA7Ii8+PHBhdGggZD0iTTYyLjEyNSwxOTMuMjUgTDYyLjEyNSwxOTUgTDY3LjA2MjUsMTk1IEw2Ny4wNjI1LDE5My4yNSBMNjIuMTI1LDE5My4yNSBaIE02Mi44MTI1LDE5My45Mzc1IFE2Mi44MTI1LDE5My45Mzc1IDYyLjgxMjUsMTg0Ljc1IEw2MS4wNjI1LDE4NC43NSBRNjEuMDYyNSwxODQuNzUgNjEuMDYyNSwxOTMuOTM3NSBMNjIuODEyNSwxOTMuOTM3NSBaIE02Ni4zNzUsMTkzLjkzNzUgTDY4LjEyNSwxOTMuOTM3NSBRNjguMTI1LDE5My45Mzc1IDY4LjEyNSwxOTEuMTI1IEw2Ni4zNzUsMTkxLjEyNSBRNjYuMzc1LDE5MS4xMjUgNjYuMzc1LDE5My45Mzc1IFogTTY2LjM3NSwxODQuNzUgUTY2LjM3NSwxODQuNzUgNjYuMzc1LDE4Ny41NjI1IEw2OC4xMjUsMTg3LjU2MjUgUTY4LjEyNSwxODcuNTYyNSA2OC4xMjUsMTg0Ljc1IEw2Ni4zNzUsMTg0Ljc1IFogTTYyLjEyNSwxODUuNDM3NSBMNjcuMDYyNSwxODUuNDM3NSBMNjcuMDYyNSwxODMuNjg3NSBMNjIuMTI1LDE4My42ODc1IEw2Mi4xMjUsMTg1LjQzNzUgWiAiIGZpbGw9IiMwMDAwMDAiLz48dGV4dCBmaWxsPSIjMDAwMDAwIiBmb250LWZhbWlseT0ic2Fucy1zZXJpZiIgZm9udC1zaXplPSIxNCIgbGVuZ3RoQWRqdXN0PSJzcGFjaW5nIiB0ZXh0TGVuZ3RoPSIyMDMiIHg9Ijc4LjUiIHk9IjE5NC43NDIyIj5CYXNlRHJpdmVyRmVlZGJhY2tSZXNwb25zZUR0bzwvdGV4dD48bGluZSBzdHlsZT0ic3Ryb2tlOiMxODE4MTg7c3Ryb2tlLXdpZHRoOjAuNTsiIHgxPSI1MC41IiB4Mj0iMjgzLjUiIHkxPSIyMDUiIHkyPSIyMDUiLz48cmVjdCBmaWxsPSJub25lIiBoZWlnaHQ9IjYiIHN0eWxlPSJzdHJva2U6I0M4MjkzMDtzdHJva2Utd2lkdGg6MS4wOyIgd2lkdGg9IjYiIHg9IjU3LjUiIHk9IjIxNC45OTIyIi8+PHRleHQgZmlsbD0iIzAwMDAwMCIgZm9udC1mYW1pbHk9InNhbnMtc2VyaWYiIGZvbnQtc2l6ZT0iMTQiIGxlbmd0aEFkanVzdD0ic3BhY2luZyIgdGV4dExlbmd0aD0iNDkiIHg9IjY5LjUiIHk9IjIyMi4yMzQ0Ij5Mb25nIGlkPC90ZXh0PjxyZWN0IGZpbGw9Im5vbmUiIGhlaWdodD0iNiIgc3R5bGU9InN0cm9rZTojQzgyOTMwO3N0cm9rZS13aWR0aDoxLjA7IiB3aWR0aD0iNiIgeD0iNTcuNSIgeT0iMjI5Ljk3NjYiLz48dGV4dCBmaWxsPSIjMDAwMDAwIiBmb250LWZhbWlseT0ic2Fucy1zZXJpZiIgZm9udC1zaXplPSIxNCIgbGVuZ3RoQWRqdXN0PSJzcGFjaW5nIiB0ZXh0TGVuZ3RoPSIxNjgiIHg9IjY5LjUiIHk9IjIzNy4yMTg4Ij5Mb25nIGZlZWRiYWNrR2l2ZXJVc2VySWQ8L3RleHQ+PHJlY3QgZmlsbD0ibm9uZSIgaGVpZ2h0PSI2IiBzdHlsZT0ic3Ryb2tlOiNDODI5MzA7c3Ryb2tlLXdpZHRoOjEuMDsiIHdpZHRoPSI2IiB4PSI1Ny41IiB5PSIyNDQuOTYwOSIvPjx0ZXh0IGZpbGw9IiMwMDAwMDAiIGZvbnQtZmFtaWx5PSJzYW5zLXNlcmlmIiBmb250LXNpemU9IjE0IiBsZW5ndGhBZGp1c3Q9InNwYWNpbmciIHRleHRMZW5ndGg9IjIwMyIgeD0iNjkuNSIgeT0iMjUyLjIwMzEiPkxvbmcgZmVlZGJhY2tSZWNlaXZlckRyaXZlcklkPC90ZXh0PjxyZWN0IGZpbGw9Im5vbmUiIGhlaWdodD0iNiIgc3R5bGU9InN0cm9rZTojQzgyOTMwO3N0cm9rZS13aWR0aDoxLjA7IiB3aWR0aD0iNiIgeD0iNTcuNSIgeT0iMjU5Ljk0NTMiLz48dGV4dCBmaWxsPSIjMDAwMDAwIiBmb250LWZhbWlseT0ic2Fucy1zZXJpZiIgZm9udC1zaXplPSIxNCIgbGVuZ3RoQWRqdXN0PSJzcGFjaW5nIiB0ZXh0TGVuZ3RoPSI3MCIgeD0iNjkuNSIgeT0iMjY3LjE4NzUiPmludCByYXRpbmc8L3RleHQ+PHJlY3QgZmlsbD0ibm9uZSIgaGVpZ2h0PSI2IiBzdHlsZT0ic3Ryb2tlOiNDODI5MzA7c3Ryb2tlLXdpZHRoOjEuMDsiIHdpZHRoPSI2IiB4PSI1Ny41IiB5PSIyNzQuOTI5NyIvPjx0ZXh0IGZpbGw9IiMwMDAwMDAiIGZvbnQtZmFtaWx5PSJzYW5zLXNlcmlmIiBmb250LXNpemU9IjE0IiBsZW5ndGhBZGp1c3Q9InNwYWNpbmciIHRleHRMZW5ndGg9IjEwNyIgeD0iNjkuNSIgeT0iMjgyLjE3MTkiPlN0cmluZyBjb21tZW50czwvdGV4dD48cmVjdCBmaWxsPSJub25lIiBoZWlnaHQ9IjYiIHN0eWxlPSJzdHJva2U6I0M4MjkzMDtzdHJva2Utd2lkdGg6MS4wOyIgd2lkdGg9IjYiIHg9IjU3LjUiIHk9IjI4OS45MTQxIi8+PHRleHQgZmlsbD0iIzAwMDAwMCIgZm9udC1mYW1pbHk9InNhbnMtc2VyaWYiIGZvbnQtc2l6ZT0iMTQiIGxlbmd0aEFkanVzdD0ic3BhY2luZyIgdGV4dExlbmd0aD0iMTEyIiB4PSI2OS41IiB5PSIyOTcuMTU2MyI+U3RyaW5nIGNyZWF0ZWRBdDwvdGV4dD48bGluZSBzdHlsZT0ic3Ryb2tlOiMxODE4MTg7c3Ryb2tlLXdpZHRoOjAuNTsiIHgxPSI1MC41IiB4Mj0iMjgzLjUiIHkxPSIzMDIuOTA2MyIgeTI9IjMwMi45MDYzIi8+PC9nPjwhLS1jbGFzcyBCYXNlVXNlckZlZWRiYWNrRHRvLS0+PGcgaWQ9ImVsZW1fQmFzZVVzZXJGZWVkYmFja0R0byI+PHJlY3QgY29kZUxpbmU9IjIxIiBmaWxsPSIjRjFGMUYxIiBoZWlnaHQ9IjEyMi45MjE5IiBpZD0iQmFzZVVzZXJGZWVkYmFja0R0byIgcng9IjIuNSIgcnk9IjIuNSIgc3R5bGU9InN0cm9rZTojMTgxODE4O3N0cm9rZS13aWR0aDowLjU7IiB3aWR0aD0iMzA2IiB4PSIxNCIgeT0iMzQ2LjUiLz48ZWxsaXBzZSBjeD0iOTYuMjUiIGN5PSIzNjIuNSIgZmlsbD0iI0FERDFCMiIgcng9IjExIiByeT0iMTEiIHN0eWxlPSJzdHJva2U6IzE4MTgxODtzdHJva2Utd2lkdGg6MS4wOyIvPjxwYXRoIGQ9Ik05My44NzUsMzY2Ljc1IEw5My44NzUsMzY4LjUgTDk4LjgxMjUsMzY4LjUgTDk4LjgxMjUsMzY2Ljc1IEw5My44NzUsMzY2Ljc1IFogTTk0LjU2MjUsMzY3LjQzNzUgUTk0LjU2MjUsMzY3LjQzNzUgOTQuNTYyNSwzNTguMjUgTDkyLjgxMjUsMzU4LjI1IFE5Mi44MTI1LDM1OC4yNSA5Mi44MTI1LDM2Ny40Mzc1IEw5NC41NjI1LDM2Ny40Mzc1IFogTTk4LjEyNSwzNjcuNDM3NSBMOTkuODc1LDM2Ny40Mzc1IFE5OS44NzUsMzY3LjQzNzUgOTkuODc1LDM2NC42MjUgTDk4LjEyNSwzNjQuNjI1IFE5OC4xMjUsMzY0LjYyNSA5OC4xMjUsMzY3LjQzNzUgWiBNOTguMTI1LDM1OC4yNSBROTguMTI1LDM1OC4yNSA5OC4xMjUsMzYxLjA2MjUgTDk5Ljg3NSwzNjEuMDYyNSBROTkuODc1LDM2MS4wNjI1IDk5Ljg3NSwzNTguMjUgTDk4LjEyNSwzNTguMjUgWiBNOTMuODc1LDM1OC45Mzc1IEw5OC44MTI1LDM1OC45Mzc1IEw5OC44MTI1LDM1Ny4xODc1IEw5My44NzUsMzU3LjE4NzUgTDkzLjg3NSwzNTguOTM3NSBaICIgZmlsbD0iIzAwMDAwMCIvPjx0ZXh0IGZpbGw9IiMwMDAwMDAiIGZvbnQtZmFtaWx5PSJzYW5zLXNlcmlmIiBmb250LXNpemU9IjE0IiBsZW5ndGhBZGp1c3Q9InNwYWNpbmciIHRleHRMZW5ndGg9IjEzMyIgeD0iMTE2Ljc1IiB5PSIzNjguMjQyMiI+QmFzZVVzZXJGZWVkYmFja0R0bzwvdGV4dD48bGluZSBzdHlsZT0ic3Ryb2tlOiMxODE4MTg7c3Ryb2tlLXdpZHRoOjAuNTsiIHgxPSIxNSIgeDI9IjMxOSIgeTE9IjM3OC41IiB5Mj0iMzc4LjUiLz48cmVjdCBmaWxsPSJub25lIiBoZWlnaHQ9IjYiIHN0eWxlPSJzdHJva2U6I0M4MjkzMDtzdHJva2Utd2lkdGg6MS4wOyIgd2lkdGg9IjYiIHg9IjIyIiB5PSIzODguNDkyMiIvPjx0ZXh0IGZpbGw9IiMwMDAwMDAiIGZvbnQtZmFtaWx5PSJzYW5zLXNlcmlmIiBmb250LXNpemU9IjE0IiBsZW5ndGhBZGp1c3Q9InNwYWNpbmciIHRleHRMZW5ndGg9IjE4MiIgeD0iMzQiIHk9IjM5NS43MzQ0Ij5Mb25nIGZlZWRiYWNrR2l2ZXJEcml2ZXJJZDwvdGV4dD48cmVjdCBmaWxsPSJub25lIiBoZWlnaHQ9IjYiIHN0eWxlPSJzdHJva2U6I0M4MjkzMDtzdHJva2Utd2lkdGg6MS4wOyIgd2lkdGg9IjYiIHg9IjIyIiB5PSI0MDMuNDc2NiIvPjx0ZXh0IGZpbGw9IiMwMDAwMDAiIGZvbnQtZmFtaWx5PSJzYW5zLXNlcmlmIiBmb250LXNpemU9IjE0IiBsZW5ndGhBZGp1c3Q9InNwYWNpbmciIHRleHRMZW5ndGg9IjE4OSIgeD0iMzQiIHk9IjQxMC43MTg4Ij5Mb25nIGZlZWRiYWNrUmVjZWl2ZXJVc2VySWQ8L3RleHQ+PHJlY3QgZmlsbD0ibm9uZSIgaGVpZ2h0PSI2IiBzdHlsZT0ic3Ryb2tlOiNDODI5MzA7c3Ryb2tlLXdpZHRoOjEuMDsiIHdpZHRoPSI2IiB4PSIyMiIgeT0iNDE4LjQ2MDkiLz48dGV4dCBmaWxsPSIjMDAwMDAwIiBmb250LWZhbWlseT0ic2Fucy1zZXJpZiIgZm9udC1zaXplPSIxNCIgbGVuZ3RoQWRqdXN0PSJzcGFjaW5nIiB0ZXh0TGVuZ3RoPSI3MCIgeD0iMzQiIHk9IjQyNS43MDMxIj5pbnQgcmF0aW5nPC90ZXh0PjxyZWN0IGZpbGw9Im5vbmUiIGhlaWdodD0iNiIgc3R5bGU9InN0cm9rZTojQzgyOTMwO3N0cm9rZS13aWR0aDoxLjA7IiB3aWR0aD0iNiIgeD0iMjIiIHk9IjQzMy40NDUzIi8+PHRleHQgZmlsbD0iIzAwMDAwMCIgZm9udC1mYW1pbHk9InNhbnMtc2VyaWYiIGZvbnQtc2l6ZT0iMTQiIGxlbmd0aEFkanVzdD0ic3BhY2luZyIgdGV4dExlbmd0aD0iMTA3IiB4PSIzNCIgeT0iNDQwLjY4NzUiPlN0cmluZyBjb21tZW50czwvdGV4dD48cmVjdCBmaWxsPSJub25lIiBoZWlnaHQ9IjYiIHN0eWxlPSJzdHJva2U6I0M4MjkzMDtzdHJva2Utd2lkdGg6MS4wOyIgd2lkdGg9IjYiIHg9IjIyIiB5PSI0NDguNDI5NyIvPjx0ZXh0IGZpbGw9IiMwMDAwMDAiIGZvbnQtZmFtaWx5PSJzYW5zLXNlcmlmIiBmb250LXNpemU9IjE0IiBsZW5ndGhBZGp1c3Q9InNwYWNpbmciIHRleHRMZW5ndGg9IjI4MCIgeD0iMzQiIHk9IjQ1NS42NzE5Ij5MaXN0Jmx0O1VzZXJGZWVkYmFja09wdGlvbiZndDsgZmVlZGJhY2tPcHRpb25zPC90ZXh0PjxsaW5lIHN0eWxlPSJzdHJva2U6IzE4MTgxODtzdHJva2Utd2lkdGg6MC41OyIgeDE9IjE1IiB4Mj0iMzE5IiB5MT0iNDYxLjQyMTkiIHkyPSI0NjEuNDIxOSIvPjwvZz48IS0tY2xhc3MgQmFzZVVzZXJGZWVkYmFja1Jlc3BvbnNlRHRvLS0+PGcgaWQ9ImVsZW1fQmFzZVVzZXJGZWVkYmFja1Jlc3BvbnNlRHRvIj48cmVjdCBjb2RlTGluZT0iMjkiIGZpbGw9IiNGMUYxRjEiIGhlaWdodD0iMTM3LjkwNjMiIGlkPSJCYXNlVXNlckZlZWRiYWNrUmVzcG9uc2VEdG8iIHJ4PSIyLjUiIHJ5PSIyLjUiIHN0eWxlPSJzdHJva2U6IzE4MTgxODtzdHJva2Utd2lkdGg6MC41OyIgd2lkdGg9IjIyMSIgeD0iMzg3IiB5PSI3Ii8+PGVsbGlwc2UgY3g9IjQwMiIgY3k9IjIzIiBmaWxsPSIjQUREMUIyIiByeD0iMTEiIHJ5PSIxMSIgc3R5bGU9InN0cm9rZTojMTgxODE4O3N0cm9rZS13aWR0aDoxLjA7Ii8+PHBhdGggZD0iTTM5OS42MjUsMjcuMjUgTDM5OS42MjUsMjkgTDQwNC41NjI1LDI5IEw0MDQuNTYyNSwyNy4yNSBMMzk5LjYyNSwyNy4yNSBaIE00MDAuMzEyNSwyNy45Mzc1IFE0MDAuMzEyNSwyNy45Mzc1IDQwMC4zMTI1LDE4Ljc1IEwzOTguNTYyNSwxOC43NSBRMzk4LjU2MjUsMTguNzUgMzk4LjU2MjUsMjcuOTM3NSBMNDAwLjMxMjUsMjcuOTM3NSBaIE00MDMuODc1LDI3LjkzNzUgTDQwNS42MjUsMjcuOTM3NSBRNDA1LjYyNSwyNy45Mzc1IDQwNS42MjUsMjUuMTI1IEw0MDMuODc1LDI1LjEyNSBRNDAzLjg3NSwyNS4xMjUgNDAzLjg3NSwyNy45Mzc1IFogTTQwMy44NzUsMTguNzUgUTQwMy44NzUsMTguNzUgNDAzLjg3NSwyMS41NjI1IEw0MDUuNjI1LDIxLjU2MjUgUTQwNS42MjUsMjEuNTYyNSA0MDUuNjI1LDE4Ljc1IEw0MDMuODc1LDE4Ljc1IFogTTM5OS42MjUsMTkuNDM3NSBMNDA0LjU2MjUsMTkuNDM3NSBMNDA0LjU2MjUsMTcuNjg3NSBMMzk5LjYyNSwxNy42ODc1IEwzOTkuNjI1LDE5LjQzNzUgWiAiIGZpbGw9IiMwMDAwMDAiLz48dGV4dCBmaWxsPSIjMDAwMDAwIiBmb250LWZhbWlseT0ic2Fucy1zZXJpZiIgZm9udC1zaXplPSIxNCIgbGVuZ3RoQWRqdXN0PSJzcGFjaW5nIiB0ZXh0TGVuZ3RoPSIxODkiIHg9IjQxNiIgeT0iMjguNzQyMiI+QmFzZVVzZXJGZWVkYmFja1Jlc3BvbnNlRHRvPC90ZXh0PjxsaW5lIHN0eWxlPSJzdHJva2U6IzE4MTgxODtzdHJva2Utd2lkdGg6MC41OyIgeDE9IjM4OCIgeDI9IjYwNyIgeTE9IjM5IiB5Mj0iMzkiLz48cmVjdCBmaWxsPSJub25lIiBoZWlnaHQ9IjYiIHN0eWxlPSJzdHJva2U6I0M4MjkzMDtzdHJva2Utd2lkdGg6MS4wOyIgd2lkdGg9IjYiIHg9IjM5NSIgeT0iNDguOTkyMiIvPjx0ZXh0IGZpbGw9IiMwMDAwMDAiIGZvbnQtZmFtaWx5PSJzYW5zLXNlcmlmIiBmb250LXNpemU9IjE0IiBsZW5ndGhBZGp1c3Q9InNwYWNpbmciIHRleHRMZW5ndGg9IjQ5IiB4PSI0MDciIHk9IjU2LjIzNDQiPkxvbmcgaWQ8L3RleHQ+PHJlY3QgZmlsbD0ibm9uZSIgaGVpZ2h0PSI2IiBzdHlsZT0ic3Ryb2tlOiNDODI5MzA7c3Ryb2tlLXdpZHRoOjEuMDsiIHdpZHRoPSI2IiB4PSIzOTUiIHk9IjYzLjk3NjYiLz48dGV4dCBmaWxsPSIjMDAwMDAwIiBmb250LWZhbWlseT0ic2Fucy1zZXJpZiIgZm9udC1zaXplPSIxNCIgbGVuZ3RoQWRqdXN0PSJzcGFjaW5nIiB0ZXh0TGVuZ3RoPSIxODIiIHg9IjQwNyIgeT0iNzEuMjE4OCI+TG9uZyBmZWVkYmFja0dpdmVyRHJpdmVySWQ8L3RleHQ+PHJlY3QgZmlsbD0ibm9uZSIgaGVpZ2h0PSI2IiBzdHlsZT0ic3Ryb2tlOiNDODI5MzA7c3Ryb2tlLXdpZHRoOjEuMDsiIHdpZHRoPSI2IiB4PSIzOTUiIHk9Ijc4Ljk2MDkiLz48dGV4dCBmaWxsPSIjMDAwMDAwIiBmb250LWZhbWlseT0ic2Fucy1zZXJpZiIgZm9udC1zaXplPSIxNCIgbGVuZ3RoQWRqdXN0PSJzcGFjaW5nIiB0ZXh0TGVuZ3RoPSIxODkiIHg9IjQwNyIgeT0iODYuMjAzMSI+TG9uZyBmZWVkYmFja1JlY2VpdmVyVXNlcklkPC90ZXh0PjxyZWN0IGZpbGw9Im5vbmUiIGhlaWdodD0iNiIgc3R5bGU9InN0cm9rZTojQzgyOTMwO3N0cm9rZS13aWR0aDoxLjA7IiB3aWR0aD0iNiIgeD0iMzk1IiB5PSI5My45NDUzIi8+PHRleHQgZmlsbD0iIzAwMDAwMCIgZm9udC1mYW1pbHk9InNhbnMtc2VyaWYiIGZvbnQtc2l6ZT0iMTQiIGxlbmd0aEFkanVzdD0ic3BhY2luZyIgdGV4dExlbmd0aD0iNzAiIHg9IjQwNyIgeT0iMTAxLjE4NzUiPmludCByYXRpbmc8L3RleHQ+PHJlY3QgZmlsbD0ibm9uZSIgaGVpZ2h0PSI2IiBzdHlsZT0ic3Ryb2tlOiNDODI5MzA7c3Ryb2tlLXdpZHRoOjEuMDsiIHdpZHRoPSI2IiB4PSIzOTUiIHk9IjEwOC45Mjk3Ii8+PHRleHQgZmlsbD0iIzAwMDAwMCIgZm9udC1mYW1pbHk9InNhbnMtc2VyaWYiIGZvbnQtc2l6ZT0iMTQiIGxlbmd0aEFkanVzdD0ic3BhY2luZyIgdGV4dExlbmd0aD0iMTA3IiB4PSI0MDciIHk9IjExNi4xNzE5Ij5TdHJpbmcgY29tbWVudHM8L3RleHQ+PHJlY3QgZmlsbD0ibm9uZSIgaGVpZ2h0PSI2IiBzdHlsZT0ic3Ryb2tlOiNDODI5MzA7c3Ryb2tlLXdpZHRoOjEuMDsiIHdpZHRoPSI2IiB4PSIzOTUiIHk9IjEyMy45MTQxIi8+PHRleHQgZmlsbD0iIzAwMDAwMCIgZm9udC1mYW1pbHk9InNhbnMtc2VyaWYiIGZvbnQtc2l6ZT0iMTQiIGxlbmd0aEFkanVzdD0ic3BhY2luZyIgdGV4dExlbmd0aD0iMTEyIiB4PSI0MDciIHk9IjEzMS4xNTYzIj5TdHJpbmcgY3JlYXRlZEF0PC90ZXh0PjxsaW5lIHN0eWxlPSJzdHJva2U6IzE4MTgxODtzdHJva2Utd2lkdGg6MC41OyIgeDE9IjM4OCIgeDI9IjYwNyIgeTE9IjEzNi45MDYzIiB5Mj0iMTM2LjkwNjMiLz48L2c+PCEtLWNsYXNzIERyaXZlckZlZWRiYWNrT3B0aW9uLS0+PGcgaWQ9ImVsZW1fRHJpdmVyRmVlZGJhY2tPcHRpb24iPjxyZWN0IGNvZGVMaW5lPSIzOCIgZmlsbD0iI0YxRjFGMSIgaGVpZ2h0PSIxOTcuODQzOCIgaWQ9IkRyaXZlckZlZWRiYWNrT3B0aW9uIiByeD0iMi41IiByeT0iMi41IiBzdHlsZT0ic3Ryb2tlOiMxODE4MTg7c3Ryb2tlLXdpZHRoOjAuNTsiIHdpZHRoPSIxNzIiIHg9IjQxMS41IiB5PSIxODAiLz48ZWxsaXBzZSBjeD0iNDI2LjUiIGN5PSIxOTYiIGZpbGw9IiNFQjkzN0YiIHJ4PSIxMSIgcnk9IjExIiBzdHlsZT0ic3Ryb2tlOiMxODE4MTg7c3Ryb2tlLXdpZHRoOjEuMDsiLz48cGF0aCBkPSJNNDMwLjEyNSwyMDIgTDQzMC4xMjUsMjAwLjI1IEw0MjQuODEyNSwyMDAuMjUgUTQyNC44MTI1LDIwMC4yNSA0MjQuODEyNSwxOTYuNjg3NSBMNDI5LjA2MjUsMTk2LjY4NzUgTDQyOS4wNjI1LDE5NC45Mzc1IEw0MjQuODEyNSwxOTQuOTM3NSBMNDI0LjgxMjUsMTkyLjQzNzUgTDQzMC4xMjUsMTkyLjQzNzUgTDQzMC4xMjUsMTkwLjY4NzUgTDQyMy4wNjI1LDE5MC42ODc1IFE0MjMuMDYyNSwxOTAuNjg3NSA0MjMuMDYyNSwyMDIgTDQzMC4xMjUsMjAyIFogIiBmaWxsPSIjMDAwMDAwIi8+PHRleHQgZmlsbD0iIzAwMDAwMCIgZm9udC1mYW1pbHk9InNhbnMtc2VyaWYiIGZvbnQtc2l6ZT0iMTQiIGxlbmd0aEFkanVzdD0ic3BhY2luZyIgdGV4dExlbmd0aD0iMTQwIiB4PSI0NDAuNSIgeT0iMjAxLjc0MjIiPkRyaXZlckZlZWRiYWNrT3B0aW9uPC90ZXh0PjxsaW5lIHN0eWxlPSJzdHJva2U6IzE4MTgxODtzdHJva2Utd2lkdGg6MC41OyIgeDE9IjQxMi41IiB4Mj0iNTgyLjUiIHkxPSIyMTIiIHkyPSIyMTIiLz48ZWxsaXBzZSBjeD0iNDIyLjUiIGN5PSIyMjQuOTkyMiIgZmlsbD0ibm9uZSIgcng9IjMiIHJ5PSIzIiBzdHlsZT0ic3Ryb2tlOiMwMzgwNDg7c3Ryb2tlLXdpZHRoOjEuMDsiLz48dGV4dCBmaWxsPSIjMDAwMDAwIiBmb250LWZhbWlseT0ic2Fucy1zZXJpZiIgZm9udC1zaXplPSIxNCIgbGVuZ3RoQWRqdXN0PSJzcGFjaW5nIiB0ZXh0TGVuZ3RoPSI3NyIgeD0iNDMxLjUiIHk9IjIyOS4yMzQ0Ij5TQUZFX0RSSVZFUjwvdGV4dD48ZWxsaXBzZSBjeD0iNDIyLjUiIGN5PSIyMzkuOTc2NiIgZmlsbD0ibm9uZSIgcng9IjMiIHJ5PSIzIiBzdHlsZT0ic3Ryb2tlOiMwMzgwNDg7c3Ryb2tlLXdpZHRoOjEuMDsiLz48dGV4dCBmaWxsPSIjMDAwMDAwIiBmb250LWZhbWlseT0ic2Fucy1zZXJpZiIgZm9udC1zaXplPSIxNCIgbGVuZ3RoQWRqdXN0PSJzcGFjaW5nIiB0ZXh0TGVuZ3RoPSI0MiIgeD0iNDMxLjUiIHk9IjI0NC4yMTg4Ij5QT0xJVEU8L3RleHQ+PGVsbGlwc2UgY3g9IjQyMi41IiBjeT0iMjU0Ljk2MDkiIGZpbGw9Im5vbmUiIHJ4PSIzIiByeT0iMyIgc3R5bGU9InN0cm9rZTojMDM4MDQ4O3N0cm9rZS13aWR0aDoxLjA7Ii8+PHRleHQgZmlsbD0iIzAwMDAwMCIgZm9udC1mYW1pbHk9InNhbnMtc2VyaWYiIGZvbnQtc2l6ZT0iMTQiIGxlbmd0aEFkanVzdD0ic3BhY2luZyIgdGV4dExlbmd0aD0iNjMiIHg9IjQzMS41IiB5PSIyNTkuMjAzMSI+Q0xFQU5fQ0FSPC90ZXh0PjxlbGxpcHNlIGN4PSI0MjIuNSIgY3k9IjI2OS45NDUzIiBmaWxsPSJub25lIiByeD0iMyIgcnk9IjMiIHN0eWxlPSJzdHJva2U6IzAzODA0ODtzdHJva2Utd2lkdGg6MS4wOyIvPjx0ZXh0IGZpbGw9IiMwMDAwMDAiIGZvbnQtZmFtaWx5PSJzYW5zLXNlcmlmIiBmb250LXNpemU9IjE0IiBsZW5ndGhBZGp1c3Q9InNwYWNpbmciIHRleHRMZW5ndGg9IjEwNSIgeD0iNDMxLjUiIHk9IjI3NC4xODc1Ij5HT09EX05BVklHQVRJT048L3RleHQ+PGVsbGlwc2UgY3g9IjQyMi41IiBjeT0iMjg0LjkyOTciIGZpbGw9Im5vbmUiIHJ4PSIzIiByeT0iMyIgc3R5bGU9InN0cm9rZTojMDM4MDQ4O3N0cm9rZS13aWR0aDoxLjA7Ii8+PHRleHQgZmlsbD0iIzAwMDAwMCIgZm9udC1mYW1pbHk9InNhbnMtc2VyaWYiIGZvbnQtc2l6ZT0iMTQiIGxlbmd0aEFkanVzdD0ic3BhY2luZyIgdGV4dExlbmd0aD0iMTEyIiB4PSI0MzEuNSIgeT0iMjg5LjE3MTkiPkRBTkdFUk9VU19EUklWRVI8L3RleHQ+PGVsbGlwc2UgY3g9IjQyMi41IiBjeT0iMjk5LjkxNDEiIGZpbGw9Im5vbmUiIHJ4PSIzIiByeT0iMyIgc3R5bGU9InN0cm9rZTojMDM4MDQ4O3N0cm9rZS13aWR0aDoxLjA7Ii8+PHRleHQgZmlsbD0iIzAwMDAwMCIgZm9udC1mYW1pbHk9InNhbnMtc2VyaWYiIGZvbnQtc2l6ZT0iMTQiIGxlbmd0aEFkanVzdD0ic3BhY2luZyIgdGV4dExlbmd0aD0iMzUiIHg9IjQzMS41IiB5PSIzMDQuMTU2MyI+Tk9fQUM8L3RleHQ+PGVsbGlwc2UgY3g9IjQyMi41IiBjeT0iMzE0Ljg5ODQiIGZpbGw9Im5vbmUiIHJ4PSIzIiByeT0iMyIgc3R5bGU9InN0cm9rZTojMDM4MDQ4O3N0cm9rZS13aWR0aDoxLjA7Ii8+PHRleHQgZmlsbD0iIzAwMDAwMCIgZm9udC1mYW1pbHk9InNhbnMtc2VyaWYiIGZvbnQtc2l6ZT0iMTQiIGxlbmd0aEFkanVzdD0ic3BhY2luZyIgdGV4dExlbmd0aD0iMjgiIHg9IjQzMS41IiB5PSIzMTkuMTQwNiI+UlVERTwvdGV4dD48ZWxsaXBzZSBjeD0iNDIyLjUiIGN5PSIzMjkuODgyOCIgZmlsbD0ibm9uZSIgcng9IjMiIHJ5PSIzIiBzdHlsZT0ic3Ryb2tlOiMwMzgwNDg7c3Ryb2tlLXdpZHRoOjEuMDsiLz48dGV4dCBmaWxsPSIjMDAwMDAwIiBmb250LWZhbWlseT0ic2Fucy1zZXJpZiIgZm9udC1zaXplPSIxNCIgbGVuZ3RoQWRqdXN0PSJzcGFjaW5nIiB0ZXh0TGVuZ3RoPSIyOCIgeD0iNDMxLjUiIHk9IjMzNC4xMjUiPkxBVEU8L3RleHQ+PHBvbHlnb24gZmlsbD0ibm9uZSIgcG9pbnRzPSI0MjIuNSwzMzkuODY3Miw0MjYuNSwzNDMuODY3Miw0MjIuNSwzNDcuODY3Miw0MTguNSwzNDMuODY3MiIgc3R5bGU9InN0cm9rZTojQjM4RDIyO3N0cm9rZS13aWR0aDoxLjA7Ii8+PHRleHQgZmlsbD0iIzAwMDAwMCIgZm9udC1mYW1pbHk9InNhbnMtc2VyaWYiIGZvbnQtc2l6ZT0iMTQiIGxlbmd0aEFkanVzdD0ic3BhY2luZyIgdGV4dExlbmd0aD0iMTI2IiB4PSI0MzEuNSIgeT0iMzQ5LjEwOTQiPlN0cmluZyBkZXNjcmlwdGlvbjwvdGV4dD48cG9seWdvbiBmaWxsPSJub25lIiBwb2ludHM9IjQyMi41LDM1NC44NTE2LDQyNi41LDM1OC44NTE2LDQyMi41LDM2Mi44NTE2LDQxOC41LDM1OC44NTE2IiBzdHlsZT0ic3Ryb2tlOiNCMzhEMjI7c3Ryb2tlLXdpZHRoOjEuMDsiLz48dGV4dCBmaWxsPSIjMDAwMDAwIiBmb250LWZhbWlseT0ic2Fucy1zZXJpZiIgZm9udC1zaXplPSIxNCIgbGVuZ3RoQWRqdXN0PSJzcGFjaW5nIiB0ZXh0TGVuZ3RoPSIxMjYiIHg9IjQzMS41IiB5PSIzNjQuMDkzOCI+Ym9vbGVhbiBpc1Bvc2l0aXZlPC90ZXh0PjxsaW5lIHN0eWxlPSJzdHJva2U6IzE4MTgxODtzdHJva2Utd2lkdGg6MC41OyIgeDE9IjQxMi41IiB4Mj0iNTgyLjUiIHkxPSIzNjkuODQzOCIgeTI9IjM2OS44NDM4Ii8+PC9nPjwhLS1jbGFzcyBVc2VyRmVlZGJhY2tPcHRpb24tLT48ZyBpZD0iZWxlbV9Vc2VyRmVlZGJhY2tPcHRpb24iPjxyZWN0IGNvZGVMaW5lPSI1MSIgZmlsbD0iI0YxRjFGMSIgaGVpZ2h0PSIxODIuODU5NCIgaWQ9IlVzZXJGZWVkYmFja09wdGlvbiIgcng9IjIuNSIgcnk9IjIuNSIgc3R5bGU9InN0cm9rZTojMTgxODE4O3N0cm9rZS13aWR0aDowLjU7IiB3aWR0aD0iMTU4IiB4PSI0MTguNSIgeT0iNDEzLjUiLz48ZWxsaXBzZSBjeD0iNDMzLjUiIGN5PSI0MjkuNSIgZmlsbD0iI0VCOTM3RiIgcng9IjExIiByeT0iMTEiIHN0eWxlPSJzdHJva2U6IzE4MTgxODtzdHJva2Utd2lkdGg6MS4wOyIvPjxwYXRoIGQ9Ik00MzcuMTI1LDQzNS41IEw0MzcuMTI1LDQzMy43NSBMNDMxLjgxMjUsNDMzLjc1IFE0MzEuODEyNSw0MzMuNzUgNDMxLjgxMjUsNDMwLjE4NzUgTDQzNi4wNjI1LDQzMC4xODc1IEw0MzYuMDYyNSw0MjguNDM3NSBMNDMxLjgxMjUsNDI4LjQzNzUgTDQzMS44MTI1LDQyNS45Mzc1IEw0MzcuMTI1LDQyNS45Mzc1IEw0MzcuMTI1LDQyNC4xODc1IEw0MzAuMDYyNSw0MjQuMTg3NSBRNDMwLjA2MjUsNDI0LjE4NzUgNDMwLjA2MjUsNDM1LjUgTDQzNy4xMjUsNDM1LjUgWiAiIGZpbGw9IiMwMDAwMDAiLz48dGV4dCBmaWxsPSIjMDAwMDAwIiBmb250LWZhbWlseT0ic2Fucy1zZXJpZiIgZm9udC1zaXplPSIxNCIgbGVuZ3RoQWRqdXN0PSJzcGFjaW5nIiB0ZXh0TGVuZ3RoPSIxMjYiIHg9IjQ0Ny41IiB5PSI0MzUuMjQyMiI+VXNlckZlZWRiYWNrT3B0aW9uPC90ZXh0PjxsaW5lIHN0eWxlPSJzdHJva2U6IzE4MTgxODtzdHJva2Utd2lkdGg6MC41OyIgeDE9IjQxOS41IiB4Mj0iNTc1LjUiIHkxPSI0NDUuNSIgeTI9IjQ0NS41Ii8+PGVsbGlwc2UgY3g9IjQyOS41IiBjeT0iNDU4LjQ5MjIiIGZpbGw9Im5vbmUiIHJ4PSIzIiByeT0iMyIgc3R5bGU9InN0cm9rZTojMDM4MDQ4O3N0cm9rZS13aWR0aDoxLjA7Ii8+PHRleHQgZmlsbD0iIzAwMDAwMCIgZm9udC1mYW1pbHk9InNhbnMtc2VyaWYiIGZvbnQtc2l6ZT0iMTQiIGxlbmd0aEFkanVzdD0ic3BhY2luZyIgdGV4dExlbmd0aD0iNDIiIHg9IjQzOC41IiB5PSI0NjIuNzM0NCI+UE9MSVRFPC90ZXh0PjxlbGxpcHNlIGN4PSI0MjkuNSIgY3k9IjQ3My40NzY2IiBmaWxsPSJub25lIiByeD0iMyIgcnk9IjMiIHN0eWxlPSJzdHJva2U6IzAzODA0ODtzdHJva2Utd2lkdGg6MS4wOyIvPjx0ZXh0IGZpbGw9IiMwMDAwMDAiIGZvbnQtZmFtaWx5PSJzYW5zLXNlcmlmIiBmb250LXNpemU9IjE0IiBsZW5ndGhBZGp1c3Q9InNwYWNpbmciIHRleHRMZW5ndGg9IjQyIiB4PSI0MzguNSIgeT0iNDc3LjcxODgiPlRJTUVMWTwvdGV4dD48ZWxsaXBzZSBjeD0iNDI5LjUiIGN5PSI0ODguNDYwOSIgZmlsbD0ibm9uZSIgcng9IjMiIHJ5PSIzIiBzdHlsZT0ic3Ryb2tlOiMwMzgwNDg7c3Ryb2tlLXdpZHRoOjEuMDsiLz48dGV4dCBmaWxsPSIjMDAwMDAwIiBmb250LWZhbWlseT0ic2Fucy1zZXJpZiIgZm9udC1zaXplPSIxNCIgbGVuZ3RoQWRqdXN0PSJzcGFjaW5nIiB0ZXh0TGVuZ3RoPSIxMjYiIHg9IjQzOC41IiB5PSI0OTIuNzAzMSI+R09PRF9DT01NVU5JQ0FUSU9OPC90ZXh0PjxlbGxpcHNlIGN4PSI0MjkuNSIgY3k9IjUwMy40NDUzIiBmaWxsPSJub25lIiByeD0iMyIgcnk9IjMiIHN0eWxlPSJzdHJva2U6IzAzODA0ODtzdHJva2Utd2lkdGg6MS4wOyIvPjx0ZXh0IGZpbGw9IiMwMDAwMDAiIGZvbnQtZmFtaWx5PSJzYW5zLXNlcmlmIiBmb250LXNpemU9IjE0IiBsZW5ndGhBZGp1c3Q9InNwYWNpbmciIHRleHRMZW5ndGg9IjI4IiB4PSI0MzguNSIgeT0iNTA3LjY4NzUiPlJVREU8L3RleHQ+PGVsbGlwc2UgY3g9IjQyOS41IiBjeT0iNTE4LjQyOTciIGZpbGw9Im5vbmUiIHJ4PSIzIiByeT0iMyIgc3R5bGU9InN0cm9rZTojMDM4MDQ4O3N0cm9rZS13aWR0aDoxLjA7Ii8+PHRleHQgZmlsbD0iIzAwMDAwMCIgZm9udC1mYW1pbHk9InNhbnMtc2VyaWYiIGZvbnQtc2l6ZT0iMTQiIGxlbmd0aEFkanVzdD0ic3BhY2luZyIgdGV4dExlbmd0aD0iMjgiIHg9IjQzOC41IiB5PSI1MjIuNjcxOSI+TEFURTwvdGV4dD48ZWxsaXBzZSBjeD0iNDI5LjUiIGN5PSI1MzMuNDE0MSIgZmlsbD0ibm9uZSIgcng9IjMiIHJ5PSIzIiBzdHlsZT0ic3Ryb2tlOiMwMzgwNDg7c3Ryb2tlLXdpZHRoOjEuMDsiLz48dGV4dCBmaWxsPSIjMDAwMDAwIiBmb250LWZhbWlseT0ic2Fucy1zZXJpZiIgZm9udC1zaXplPSIxNCIgbGVuZ3RoQWRqdXN0PSJzcGFjaW5nIiB0ZXh0TGVuZ3RoPSI0OSIgeD0iNDM4LjUiIHk9IjUzNy42NTYzIj5OT19TSE9XPC90ZXh0PjxlbGxpcHNlIGN4PSI0MjkuNSIgY3k9IjU0OC4zOTg0IiBmaWxsPSJub25lIiByeD0iMyIgcnk9IjMiIHN0eWxlPSJzdHJva2U6IzAzODA0ODtzdHJva2Utd2lkdGg6MS4wOyIvPjx0ZXh0IGZpbGw9IiMwMDAwMDAiIGZvbnQtZmFtaWx5PSJzYW5zLXNlcmlmIiBmb250LXNpemU9IjE0IiBsZW5ndGhBZGp1c3Q9InNwYWNpbmciIHRleHRMZW5ndGg9Ijc3IiB4PSI0MzguNSIgeT0iNTUyLjY0MDYiPklOVE9YSUNBVEVEPC90ZXh0Pjxwb2x5Z29uIGZpbGw9Im5vbmUiIHBvaW50cz0iNDI5LjUsNTU4LjM4MjgsNDMzLjUsNTYyLjM4MjgsNDI5LjUsNTY2LjM4MjgsNDI1LjUsNTYyLjM4MjgiIHN0eWxlPSJzdHJva2U6I0IzOEQyMjtzdHJva2Utd2lkdGg6MS4wOyIvPjx0ZXh0IGZpbGw9IiMwMDAwMDAiIGZvbnQtZmFtaWx5PSJzYW5zLXNlcmlmIiBmb250LXNpemU9IjE0IiBsZW5ndGhBZGp1c3Q9InNwYWNpbmciIHRleHRMZW5ndGg9IjEyNiIgeD0iNDM4LjUiIHk9IjU2Ny42MjUiPlN0cmluZyBkZXNjcmlwdGlvbjwvdGV4dD48cG9seWdvbiBmaWxsPSJub25lIiBwb2ludHM9IjQyOS41LDU3My4zNjcyLDQzMy41LDU3Ny4zNjcyLDQyOS41LDU4MS4zNjcyLDQyNS41LDU3Ny4zNjcyIiBzdHlsZT0ic3Ryb2tlOiNCMzhEMjI7c3Ryb2tlLXdpZHRoOjEuMDsiLz48dGV4dCBmaWxsPSIjMDAwMDAwIiBmb250LWZhbWlseT0ic2Fucy1zZXJpZiIgZm9udC1zaXplPSIxNCIgbGVuZ3RoQWRqdXN0PSJzcGFjaW5nIiB0ZXh0TGVuZ3RoPSIxMjYiIHg9IjQzOC41IiB5PSI1ODIuNjA5NCI+Ym9vbGVhbiBpc1Bvc2l0aXZlPC90ZXh0PjxsaW5lIHN0eWxlPSJzdHJva2U6IzE4MTgxODtzdHJva2Utd2lkdGg6MC41OyIgeDE9IjQxOS41IiB4Mj0iNTc1LjUiIHkxPSI1ODguMzU5NCIgeTI9IjU4OC4zNTk0Ii8+PC9nPjwhLS1TUkM9W3BQQlZJaUNtNUNSbHpuRzFCeUt0NDI0c01HcnFwVVlWZ0xTYlF5emdNOWtNOTBlWWxobGp2WUhSa3c0RW5EcGJWNV9FLU53U0xCMm9vM1A4b19COWVhOWdvQXJpckNJaWZNZzU1WkxnSFJ1TTlTSnNqR0JLb3FBTDVLbWNnM2p2OU9uMWp5ODBxVjg1ejFJV003UC1xZEx5c3Bad1N1TTJIZkxleklkd2xKQ3JlNWJucDE5MTNocmhzdE5GOXZMNU1iWWZJZ1NPTXpxTEtEeEtESVhodEJSSXNFbHpTQnBqMk0tIC1YY3Rsc3FWbGZ4YVlDNnJkWEw0LU1WbUJ1ZnNZR0xXZWkxdGR3akR5VnJpWmdLUkozblhfaW9xdHNlenN2SnV5UHJEX0hOamdLdzJVUXBKc1Juc1FJbkpaQVNyOG4xT3FTZ2ZwN2gyNEVXS2xlM1pDRkVvUVZDdjk1azg1eXQ3MlVFV2UxOFMtWk5XUTNwazdGQ0VVU3V6SXVpdTlpM0ZzT2lUTldDY3J0OEh0bjZOSkwyMEthY1JVNjZheHEwNy15MkZpbUd5bTRwUVptVUNYZXlUZGlwSGF0WTdjZ1VtUnFsWUV0cGlMNVlSeWVNejNvUmNDN20wMF0tLT48L2c+PC9zdmc+;" vertex="1" parent="1">
            <mxGeometry x="-5150" y="2670" width="582.45" height="571.09" as="geometry" />
          </mxCell>
        </UserObject>
        <UserObject label="" plantUmlData="{&#xa;  &quot;data&quot;: &quot;@startuml\n\nleft to right direction\nskinparam packageStyle rectangle\n\n    class DriverFeedbackControllerImpl {\n        - DriverFeedbackServiceImpl feedbackService\n    }\n\n    class UserFeedbackControllerImpl {\n        - UserFeedbackServiceImpl feedbackService\n    }\n@enduml\n&quot;,&#xa;  &quot;format&quot;: &quot;svg&quot;&#xa;}" id="4x7U3FR9SUszH1-q4xUU-419">
          <mxCell style="shape=image;noLabel=1;verticalAlign=top;aspect=fixed;imageAspect=0;image=data:image/svg+xml,PD94bWwgdmVyc2lvbj0iMS4wIiBlbmNvZGluZz0idXMtYXNjaWkiIHN0YW5kYWxvbmU9Im5vIj8+PHN2ZyB4bWxucz0iaHR0cDovL3d3dy53My5vcmcvMjAwMC9zdmciIHhtbG5zOnhsaW5rPSJodHRwOi8vd3d3LnczLm9yZy8xOTk5L3hsaW5rIiBjb250ZW50U3R5bGVUeXBlPSJ0ZXh0L2NzcyIgaGVpZ2h0PSIxNzRweCIgcHJlc2VydmVBc3BlY3RSYXRpbz0ibm9uZSIgc3R5bGU9IndpZHRoOjMyOHB4O2hlaWdodDoxNzRweDtiYWNrZ3JvdW5kOiNGRkZGRkY7IiB2ZXJzaW9uPSIxLjEiIHZpZXdCb3g9IjAgMCAzMjggMTc0IiB3aWR0aD0iMzI4cHgiIHpvb21BbmRQYW49Im1hZ25pZnkiPjxkZWZzLz48Zz48IS0tY2xhc3MgRHJpdmVyRmVlZGJhY2tDb250cm9sbGVySW1wbC0tPjxnIGlkPSJlbGVtX0RyaXZlckZlZWRiYWNrQ29udHJvbGxlckltcGwiPjxyZWN0IGNvZGVMaW5lPSI0IiBmaWxsPSIjRjFGMUYxIiBoZWlnaHQ9IjYyLjk4NDQiIGlkPSJEcml2ZXJGZWVkYmFja0NvbnRyb2xsZXJJbXBsIiByeD0iMi41IiByeT0iMi41IiBzdHlsZT0ic3Ryb2tlOiMxODE4MTg7c3Ryb2tlLXdpZHRoOjAuNTsiIHdpZHRoPSIzMTQiIHg9IjciIHk9IjEwNSIvPjxlbGxpcHNlIGN4PSI2MS4yNSIgY3k9IjEyMSIgZmlsbD0iI0FERDFCMiIgcng9IjExIiByeT0iMTEiIHN0eWxlPSJzdHJva2U6IzE4MTgxODtzdHJva2Utd2lkdGg6MS4wOyIvPjxwYXRoIGQ9Ik01OC44NzUsMTI1LjI1IEw1OC44NzUsMTI3IEw2My44MTI1LDEyNyBMNjMuODEyNSwxMjUuMjUgTDU4Ljg3NSwxMjUuMjUgWiBNNTkuNTYyNSwxMjUuOTM3NSBRNTkuNTYyNSwxMjUuOTM3NSA1OS41NjI1LDExNi43NSBMNTcuODEyNSwxMTYuNzUgUTU3LjgxMjUsMTE2Ljc1IDU3LjgxMjUsMTI1LjkzNzUgTDU5LjU2MjUsMTI1LjkzNzUgWiBNNjMuMTI1LDEyNS45Mzc1IEw2NC44NzUsMTI1LjkzNzUgUTY0Ljg3NSwxMjUuOTM3NSA2NC44NzUsMTIzLjEyNSBMNjMuMTI1LDEyMy4xMjUgUTYzLjEyNSwxMjMuMTI1IDYzLjEyNSwxMjUuOTM3NSBaIE02My4xMjUsMTE2Ljc1IFE2My4xMjUsMTE2Ljc1IDYzLjEyNSwxMTkuNTYyNSBMNjQuODc1LDExOS41NjI1IFE2NC44NzUsMTE5LjU2MjUgNjQuODc1LDExNi43NSBMNjMuMTI1LDExNi43NSBaIE01OC44NzUsMTE3LjQzNzUgTDYzLjgxMjUsMTE3LjQzNzUgTDYzLjgxMjUsMTE1LjY4NzUgTDU4Ljg3NSwxMTUuNjg3NSBMNTguODc1LDExNy40Mzc1IFogIiBmaWxsPSIjMDAwMDAwIi8+PHRleHQgZmlsbD0iIzAwMDAwMCIgZm9udC1mYW1pbHk9InNhbnMtc2VyaWYiIGZvbnQtc2l6ZT0iMTQiIGxlbmd0aEFkanVzdD0ic3BhY2luZyIgdGV4dExlbmd0aD0iMTk3IiB4PSI4MS43NSIgeT0iMTI2Ljc0MjIiPkRyaXZlckZlZWRiYWNrQ29udHJvbGxlckltcGw8L3RleHQ+PGxpbmUgc3R5bGU9InN0cm9rZTojMTgxODE4O3N0cm9rZS13aWR0aDowLjU7IiB4MT0iOCIgeDI9IjMyMCIgeTE9IjEzNyIgeTI9IjEzNyIvPjxyZWN0IGZpbGw9Im5vbmUiIGhlaWdodD0iNiIgc3R5bGU9InN0cm9rZTojQzgyOTMwO3N0cm9rZS13aWR0aDoxLjA7IiB3aWR0aD0iNiIgeD0iMTUiIHk9IjE0Ni45OTIyIi8+PHRleHQgZmlsbD0iIzAwMDAwMCIgZm9udC1mYW1pbHk9InNhbnMtc2VyaWYiIGZvbnQtc2l6ZT0iMTQiIGxlbmd0aEFkanVzdD0ic3BhY2luZyIgdGV4dExlbmd0aD0iMjg4IiB4PSIyNyIgeT0iMTU0LjIzNDQiPkRyaXZlckZlZWRiYWNrU2VydmljZUltcGwgZmVlZGJhY2tTZXJ2aWNlPC90ZXh0PjxsaW5lIHN0eWxlPSJzdHJva2U6IzE4MTgxODtzdHJva2Utd2lkdGg6MC41OyIgeDE9IjgiIHgyPSIzMjAiIHkxPSIxNTkuOTg0NCIgeTI9IjE1OS45ODQ0Ii8+PC9nPjwhLS1jbGFzcyBVc2VyRmVlZGJhY2tDb250cm9sbGVySW1wbC0tPjxnIGlkPSJlbGVtX1VzZXJGZWVkYmFja0NvbnRyb2xsZXJJbXBsIj48cmVjdCBjb2RlTGluZT0iOCIgZmlsbD0iI0YxRjFGMSIgaGVpZ2h0PSI2Mi45ODQ0IiBpZD0iVXNlckZlZWRiYWNrQ29udHJvbGxlckltcGwiIHJ4PSIyLjUiIHJ5PSIyLjUiIHN0eWxlPSJzdHJva2U6IzE4MTgxODtzdHJva2Utd2lkdGg6MC41OyIgd2lkdGg9IjMwMCIgeD0iMTQiIHk9IjciLz48ZWxsaXBzZSBjeD0iNjguMjUiIGN5PSIyMyIgZmlsbD0iI0FERDFCMiIgcng9IjExIiByeT0iMTEiIHN0eWxlPSJzdHJva2U6IzE4MTgxODtzdHJva2Utd2lkdGg6MS4wOyIvPjxwYXRoIGQ9Ik02NS44NzUsMjcuMjUgTDY1Ljg3NSwyOSBMNzAuODEyNSwyOSBMNzAuODEyNSwyNy4yNSBMNjUuODc1LDI3LjI1IFogTTY2LjU2MjUsMjcuOTM3NSBRNjYuNTYyNSwyNy45Mzc1IDY2LjU2MjUsMTguNzUgTDY0LjgxMjUsMTguNzUgUTY0LjgxMjUsMTguNzUgNjQuODEyNSwyNy45Mzc1IEw2Ni41NjI1LDI3LjkzNzUgWiBNNzAuMTI1LDI3LjkzNzUgTDcxLjg3NSwyNy45Mzc1IFE3MS44NzUsMjcuOTM3NSA3MS44NzUsMjUuMTI1IEw3MC4xMjUsMjUuMTI1IFE3MC4xMjUsMjUuMTI1IDcwLjEyNSwyNy45Mzc1IFogTTcwLjEyNSwxOC43NSBRNzAuMTI1LDE4Ljc1IDcwLjEyNSwyMS41NjI1IEw3MS44NzUsMjEuNTYyNSBRNzEuODc1LDIxLjU2MjUgNzEuODc1LDE4Ljc1IEw3MC4xMjUsMTguNzUgWiBNNjUuODc1LDE5LjQzNzUgTDcwLjgxMjUsMTkuNDM3NSBMNzAuODEyNSwxNy42ODc1IEw2NS44NzUsMTcuNjg3NSBMNjUuODc1LDE5LjQzNzUgWiAiIGZpbGw9IiMwMDAwMDAiLz48dGV4dCBmaWxsPSIjMDAwMDAwIiBmb250LWZhbWlseT0ic2Fucy1zZXJpZiIgZm9udC1zaXplPSIxNCIgbGVuZ3RoQWRqdXN0PSJzcGFjaW5nIiB0ZXh0TGVuZ3RoPSIxODMiIHg9Ijg4Ljc1IiB5PSIyOC43NDIyIj5Vc2VyRmVlZGJhY2tDb250cm9sbGVySW1wbDwvdGV4dD48bGluZSBzdHlsZT0ic3Ryb2tlOiMxODE4MTg7c3Ryb2tlLXdpZHRoOjAuNTsiIHgxPSIxNSIgeDI9IjMxMyIgeTE9IjM5IiB5Mj0iMzkiLz48cmVjdCBmaWxsPSJub25lIiBoZWlnaHQ9IjYiIHN0eWxlPSJzdHJva2U6I0M4MjkzMDtzdHJva2Utd2lkdGg6MS4wOyIgd2lkdGg9IjYiIHg9IjIyIiB5PSI0OC45OTIyIi8+PHRleHQgZmlsbD0iIzAwMDAwMCIgZm9udC1mYW1pbHk9InNhbnMtc2VyaWYiIGZvbnQtc2l6ZT0iMTQiIGxlbmd0aEFkanVzdD0ic3BhY2luZyIgdGV4dExlbmd0aD0iMjc0IiB4PSIzNCIgeT0iNTYuMjM0NCI+VXNlckZlZWRiYWNrU2VydmljZUltcGwgZmVlZGJhY2tTZXJ2aWNlPC90ZXh0PjxsaW5lIHN0eWxlPSJzdHJva2U6IzE4MTgxODtzdHJva2Utd2lkdGg6MC41OyIgeDE9IjE1IiB4Mj0iMzEzIiB5MT0iNjEuOTg0NCIgeTI9IjYxLjk4NDQiLz48L2c+PCEtLVNSQz1bWlNxbjNpOG0zME5HRlFWbTFKVzUyOGN2dVcwY19Jck10SUhvaDRlOFNOVlFKOEs1X2NXXy1vaTY5eXphQ2p3VFVaNTRidm4yZElHTERmd2ZTOW51SEVTRjFNcmhKZ0NZMTVlSmJNa2JheWEyRW1GelJSTjdkRG9vQWttbzV3TGRXcmlFTngyM0JIQkhyRjB2UXBVbFZTVXJfak1tUHBfX2xtNDBdLS0+PC9nPjwvc3ZnPg==;" vertex="1" parent="1">
            <mxGeometry x="-4350" y="2716" width="328" height="174" as="geometry" />
          </mxCell>
        </UserObject>
        <mxCell id="4x7U3FR9SUszH1-q4xUU-309" value="" style="group;" connectable="0" vertex="1" parent="1">
          <mxGeometry x="-6490" y="3359.9999999999995" width="2772" height="1716.68" as="geometry" />
        </mxCell>
        <UserObject label="" plantUmlData="{&quot;data&quot;:&quot;@startuml\n\ntop to bottom direction\nskinparam packageStyle rectangle\n\n    abstract class AbstractDriverFeedbackController&lt;T, Y&gt; {\n        + ResponseEntity&lt;Y&gt; submitFeedback(T dto)\n        + ResponseEntity&lt;Map&lt;String, BigDecimal&gt;&gt; getAverageRating(Long userId)\n        - AbstractDriverFeedbackServiceImpl&lt;T, Y&gt; feedbackService\n    }\n\n    abstract class AbstractUserFeedbackController&lt;T, Y&gt; {\n        + ResponseEntity&lt;Y&gt; submitFeedback(T dto)\n        + ResponseEntity&lt;Map&lt;String, BigDecimal&gt;&gt; getAverageRating(Long userId)\n        - AbstractUserFeedbackServiceImpl&lt;T, Y&gt; feedbackService\n    }\n\nAbstractDriverFeedbackController --&gt; AbstractDriverFeedbackServiceImpl\nAbstractUserFeedbackController --&gt; AbstractUserFeedbackServiceImpl\n\n@enduml\n&quot;,&quot;format&quot;:&quot;svg&quot;}" id="4x7U3FR9SUszH1-q4xUU-420">
          <mxCell style="shape=image;noLabel=1;verticalAlign=top;aspect=fixed;imageAspect=0;image=data:image/svg+xml,PD94bWwgdmVyc2lvbj0iMS4wIiBlbmNvZGluZz0idXMtYXNjaWkiIHN0YW5kYWxvbmU9Im5vIj8+PHN2ZyB4bWxucz0iaHR0cDovL3d3dy53My5vcmcvMjAwMC9zdmciIHhtbG5zOnhsaW5rPSJodHRwOi8vd3d3LnczLm9yZy8xOTk5L3hsaW5rIiBjb250ZW50U3R5bGVUeXBlPSJ0ZXh0L2NzcyIgaGVpZ2h0PSIyMThweCIgcHJlc2VydmVBc3BlY3RSYXRpbz0ibm9uZSIgc3R5bGU9IndpZHRoOjEwNzdweDtoZWlnaHQ6MjE4cHg7YmFja2dyb3VuZDojRkZGRkZGOyIgdmVyc2lvbj0iMS4xIiB2aWV3Qm94PSIwIDAgMTA3NyAyMTgiIHdpZHRoPSIxMDc3cHgiIHpvb21BbmRQYW49Im1hZ25pZnkiPjxkZWZzLz48Zz48IS0tY2xhc3MgQWJzdHJhY3REcml2ZXJGZWVkYmFja0NvbnRyb2xsZXItLT48ZyBpZD0iZWxlbV9BYnN0cmFjdERyaXZlckZlZWRiYWNrQ29udHJvbGxlciI+PHJlY3QgY29kZUxpbmU9IjQiIGZpbGw9IiNGMUYxRjEiIGhlaWdodD0iOTIuOTUzMSIgaWQ9IkFic3RyYWN0RHJpdmVyRmVlZGJhY2tDb250cm9sbGVyIiByeD0iMi41IiByeT0iMi41IiBzdHlsZT0ic3Ryb2tlOiMxODE4MTg7c3Ryb2tlLXdpZHRoOjAuNTsiIHdpZHRoPSI1MTIiIHg9IjciIHk9IjEwIi8+PGVsbGlwc2UgY3g9IjEzMi4yNSIgY3k9IjI2IiBmaWxsPSIjQTlEQ0RGIiByeD0iMTEiIHJ5PSIxMSIgc3R5bGU9InN0cm9rZTojMTgxODE4O3N0cm9rZS13aWR0aDoxLjA7Ii8+PHBhdGggZD0iTTEyOC44MTI1LDIzLjYyNSBMMTI4LjgxMjUsMzEuNzUgTDEzMC41NjI1LDMxLjc1IFExMzAuNTYyNSwzMS43NSAxMzAuNTYyNSwyNy41IEwxMzQuMTI1LDI3LjUgUTEzNC4xMjUsMjcuNSAxMzQuMTI1LDMxLjc1IEwxMzUuODc1LDMxLjc1IEwxMzUuODc1LDIzLjYyNSBMMTM0LjEyNSwyMy42MjUgUTEzNC4xMjUsMjMuNjI1IDEzNC4xMjUsMjUuNzUgTDEzMC41NjI1LDI1Ljc1IFExMzAuNTYyNSwyNS43NSAxMzAuNTYyNSwyMy42MjUgTDEyOC44MTI1LDIzLjYyNSBaIE0xMjkuODc1LDI0LjMxMjUgTDEzMS42MjUsMjQuMzEyNSBRMTMxLjYyNSwyNC4zMTI1IDEzMS42MjUsMjEuNSBMMTI5Ljg3NSwyMS41IFExMjkuODc1LDIxLjUgMTI5Ljg3NSwyNC4zMTI1IFogTTEzNC44MTI1LDI0LjMxMjUgUTEzNC44MTI1LDI0LjMxMjUgMTM0LjgxMjUsMjEuNSBMMTMzLjA2MjUsMjEuNSBRMTMzLjA2MjUsMjEuNSAxMzMuMDYyNSwyNC4zMTI1IEwxMzQuODEyNSwyNC4zMTI1IFogTTEzMC45Mzc1LDIyLjE4NzUgTDEzMy43NSwyMi4xODc1IEwxMzMuNzUsMjAuNDM3NSBMMTMwLjkzNzUsMjAuNDM3NSBMMTMwLjkzNzUsMjIuMTg3NSBaICIgZmlsbD0iIzAwMDAwMCIvPjx0ZXh0IGZpbGw9IiMwMDAwMDAiIGZvbnQtZmFtaWx5PSJzYW5zLXNlcmlmIiBmb250LXNpemU9IjE0IiBmb250LXN0eWxlPSJpdGFsaWMiIGxlbmd0aEFkanVzdD0ic3BhY2luZyIgdGV4dExlbmd0aD0iMjI0IiB4PSIxNTIuNzUiIHk9IjMxLjc0MjIiPkFic3RyYWN0RHJpdmVyRmVlZGJhY2tDb250cm9sbGVyPC90ZXh0PjxyZWN0IGZpbGw9IiNGRkZGRkYiIGhlaWdodD0iMTQuODQzOCIgc3R5bGU9InN0cm9rZTojMTgxODE4O3N0cm9rZS13aWR0aDoxLjA7c3Ryb2tlLWRhc2hhcnJheToyLjAsMi4wOyIgd2lkdGg9IjI3IiB4PSI0OTUiIHk9IjciLz48dGV4dCBmaWxsPSIjMDAwMDAwIiBmb250LWZhbWlseT0ic2Fucy1zZXJpZiIgZm9udC1zaXplPSIxMiIgZm9udC1zdHlsZT0iaXRhbGljIiBsZW5ndGhBZGp1c3Q9InNwYWNpbmciIHRleHRMZW5ndGg9IjI1IiB4PSI0OTYiIHk9IjE5LjM0MzgiPlQsIFk8L3RleHQ+PGxpbmUgc3R5bGU9InN0cm9rZTojMTgxODE4O3N0cm9rZS13aWR0aDowLjU7IiB4MT0iOCIgeDI9IjUxOCIgeTE9IjQyIiB5Mj0iNDIiLz48cmVjdCBmaWxsPSJub25lIiBoZWlnaHQ9IjYiIHN0eWxlPSJzdHJva2U6I0M4MjkzMDtzdHJva2Utd2lkdGg6MS4wOyIgd2lkdGg9IjYiIHg9IjE1IiB5PSI1MS45OTIyIi8+PHRleHQgZmlsbD0iIzAwMDAwMCIgZm9udC1mYW1pbHk9InNhbnMtc2VyaWYiIGZvbnQtc2l6ZT0iMTQiIGxlbmd0aEFkanVzdD0ic3BhY2luZyIgdGV4dExlbmd0aD0iMzg2IiB4PSIyNyIgeT0iNTkuMjM0NCI+QWJzdHJhY3REcml2ZXJGZWVkYmFja1NlcnZpY2VJbXBsJmx0O1QsIFkmZ3Q7IGZlZWRiYWNrU2VydmljZTwvdGV4dD48bGluZSBzdHlsZT0ic3Ryb2tlOiMxODE4MTg7c3Ryb2tlLXdpZHRoOjAuNTsiIHgxPSI4IiB4Mj0iNTE4IiB5MT0iNjQuOTg0NCIgeTI9IjY0Ljk4NDQiLz48ZWxsaXBzZSBjeD0iMTgiIGN5PSI3Ny45NzY2IiBmaWxsPSIjODRCRTg0IiByeD0iMyIgcnk9IjMiIHN0eWxlPSJzdHJva2U6IzAzODA0ODtzdHJva2Utd2lkdGg6MS4wOyIvPjx0ZXh0IGZpbGw9IiMwMDAwMDAiIGZvbnQtZmFtaWx5PSJzYW5zLXNlcmlmIiBmb250LXNpemU9IjE0IiBsZW5ndGhBZGp1c3Q9InNwYWNpbmciIHRleHRMZW5ndGg9IjI3NiIgeD0iMjciIHk9IjgyLjIxODgiPlJlc3BvbnNlRW50aXR5Jmx0O1kmZ3Q7IHN1Ym1pdEZlZWRiYWNrKFQgZHRvKTwvdGV4dD48ZWxsaXBzZSBjeD0iMTgiIGN5PSI5Mi45NjA5IiBmaWxsPSIjODRCRTg0IiByeD0iMyIgcnk9IjMiIHN0eWxlPSJzdHJva2U6IzAzODA0ODtzdHJva2Utd2lkdGg6MS4wOyIvPjx0ZXh0IGZpbGw9IiMwMDAwMDAiIGZvbnQtZmFtaWx5PSJzYW5zLXNlcmlmIiBmb250LXNpemU9IjE0IiBsZW5ndGhBZGp1c3Q9InNwYWNpbmciIHRleHRMZW5ndGg9IjQ4NiIgeD0iMjciIHk9Ijk3LjIwMzEiPlJlc3BvbnNlRW50aXR5Jmx0O01hcCZsdDtTdHJpbmcsIEJpZ0RlY2ltYWwmZ3Q7Jmd0OyBnZXRBdmVyYWdlUmF0aW5nKExvbmcgdXNlcklkKTwvdGV4dD48L2c+PCEtLWNsYXNzIEFic3RyYWN0VXNlckZlZWRiYWNrQ29udHJvbGxlci0tPjxnIGlkPSJlbGVtX0Fic3RyYWN0VXNlckZlZWRiYWNrQ29udHJvbGxlciI+PHJlY3QgY29kZUxpbmU9IjEwIiBmaWxsPSIjRjFGMUYxIiBoZWlnaHQ9IjkyLjk1MzEiIGlkPSJBYnN0cmFjdFVzZXJGZWVkYmFja0NvbnRyb2xsZXIiIHJ4PSIyLjUiIHJ5PSIyLjUiIHN0eWxlPSJzdHJva2U6IzE4MTgxODtzdHJva2Utd2lkdGg6MC41OyIgd2lkdGg9IjUxMiIgeD0iNTU0IiB5PSIxMCIvPjxlbGxpcHNlIGN4PSI2ODYuMjUiIGN5PSIyNiIgZmlsbD0iI0E5RENERiIgcng9IjExIiByeT0iMTEiIHN0eWxlPSJzdHJva2U6IzE4MTgxODtzdHJva2Utd2lkdGg6MS4wOyIvPjxwYXRoIGQ9Ik02ODIuODEyNSwyMy42MjUgTDY4Mi44MTI1LDMxLjc1IEw2ODQuNTYyNSwzMS43NSBRNjg0LjU2MjUsMzEuNzUgNjg0LjU2MjUsMjcuNSBMNjg4LjEyNSwyNy41IFE2ODguMTI1LDI3LjUgNjg4LjEyNSwzMS43NSBMNjg5Ljg3NSwzMS43NSBMNjg5Ljg3NSwyMy42MjUgTDY4OC4xMjUsMjMuNjI1IFE2ODguMTI1LDIzLjYyNSA2ODguMTI1LDI1Ljc1IEw2ODQuNTYyNSwyNS43NSBRNjg0LjU2MjUsMjUuNzUgNjg0LjU2MjUsMjMuNjI1IEw2ODIuODEyNSwyMy42MjUgWiBNNjgzLjg3NSwyNC4zMTI1IEw2ODUuNjI1LDI0LjMxMjUgUTY4NS42MjUsMjQuMzEyNSA2ODUuNjI1LDIxLjUgTDY4My44NzUsMjEuNSBRNjgzLjg3NSwyMS41IDY4My44NzUsMjQuMzEyNSBaIE02ODguODEyNSwyNC4zMTI1IFE2ODguODEyNSwyNC4zMTI1IDY4OC44MTI1LDIxLjUgTDY4Ny4wNjI1LDIxLjUgUTY4Ny4wNjI1LDIxLjUgNjg3LjA2MjUsMjQuMzEyNSBMNjg4LjgxMjUsMjQuMzEyNSBaIE02ODQuOTM3NSwyMi4xODc1IEw2ODcuNzUsMjIuMTg3NSBMNjg3Ljc1LDIwLjQzNzUgTDY4NC45Mzc1LDIwLjQzNzUgTDY4NC45Mzc1LDIyLjE4NzUgWiAiIGZpbGw9IiMwMDAwMDAiLz48dGV4dCBmaWxsPSIjMDAwMDAwIiBmb250LWZhbWlseT0ic2Fucy1zZXJpZiIgZm9udC1zaXplPSIxNCIgZm9udC1zdHlsZT0iaXRhbGljIiBsZW5ndGhBZGp1c3Q9InNwYWNpbmciIHRleHRMZW5ndGg9IjIxMCIgeD0iNzA2Ljc1IiB5PSIzMS43NDIyIj5BYnN0cmFjdFVzZXJGZWVkYmFja0NvbnRyb2xsZXI8L3RleHQ+PHJlY3QgZmlsbD0iI0ZGRkZGRiIgaGVpZ2h0PSIxNC44NDM4IiBzdHlsZT0ic3Ryb2tlOiMxODE4MTg7c3Ryb2tlLXdpZHRoOjEuMDtzdHJva2UtZGFzaGFycmF5OjIuMCwyLjA7IiB3aWR0aD0iMjciIHg9IjEwNDIiIHk9IjciLz48dGV4dCBmaWxsPSIjMDAwMDAwIiBmb250LWZhbWlseT0ic2Fucy1zZXJpZiIgZm9udC1zaXplPSIxMiIgZm9udC1zdHlsZT0iaXRhbGljIiBsZW5ndGhBZGp1c3Q9InNwYWNpbmciIHRleHRMZW5ndGg9IjI1IiB4PSIxMDQzIiB5PSIxOS4zNDM4Ij5ULCBZPC90ZXh0PjxsaW5lIHN0eWxlPSJzdHJva2U6IzE4MTgxODtzdHJva2Utd2lkdGg6MC41OyIgeDE9IjU1NSIgeDI9IjEwNjUiIHkxPSI0MiIgeTI9IjQyIi8+PHJlY3QgZmlsbD0ibm9uZSIgaGVpZ2h0PSI2IiBzdHlsZT0ic3Ryb2tlOiNDODI5MzA7c3Ryb2tlLXdpZHRoOjEuMDsiIHdpZHRoPSI2IiB4PSI1NjIiIHk9IjUxLjk5MjIiLz48dGV4dCBmaWxsPSIjMDAwMDAwIiBmb250LWZhbWlseT0ic2Fucy1zZXJpZiIgZm9udC1zaXplPSIxNCIgbGVuZ3RoQWRqdXN0PSJzcGFjaW5nIiB0ZXh0TGVuZ3RoPSIzNzIiIHg9IjU3NCIgeT0iNTkuMjM0NCI+QWJzdHJhY3RVc2VyRmVlZGJhY2tTZXJ2aWNlSW1wbCZsdDtULCBZJmd0OyBmZWVkYmFja1NlcnZpY2U8L3RleHQ+PGxpbmUgc3R5bGU9InN0cm9rZTojMTgxODE4O3N0cm9rZS13aWR0aDowLjU7IiB4MT0iNTU1IiB4Mj0iMTA2NSIgeTE9IjY0Ljk4NDQiIHkyPSI2NC45ODQ0Ii8+PGVsbGlwc2UgY3g9IjU2NSIgY3k9Ijc3Ljk3NjYiIGZpbGw9IiM4NEJFODQiIHJ4PSIzIiByeT0iMyIgc3R5bGU9InN0cm9rZTojMDM4MDQ4O3N0cm9rZS13aWR0aDoxLjA7Ii8+PHRleHQgZmlsbD0iIzAwMDAwMCIgZm9udC1mYW1pbHk9InNhbnMtc2VyaWYiIGZvbnQtc2l6ZT0iMTQiIGxlbmd0aEFkanVzdD0ic3BhY2luZyIgdGV4dExlbmd0aD0iMjc2IiB4PSI1NzQiIHk9IjgyLjIxODgiPlJlc3BvbnNlRW50aXR5Jmx0O1kmZ3Q7IHN1Ym1pdEZlZWRiYWNrKFQgZHRvKTwvdGV4dD48ZWxsaXBzZSBjeD0iNTY1IiBjeT0iOTIuOTYwOSIgZmlsbD0iIzg0QkU4NCIgcng9IjMiIHJ5PSIzIiBzdHlsZT0ic3Ryb2tlOiMwMzgwNDg7c3Ryb2tlLXdpZHRoOjEuMDsiLz48dGV4dCBmaWxsPSIjMDAwMDAwIiBmb250LWZhbWlseT0ic2Fucy1zZXJpZiIgZm9udC1zaXplPSIxNCIgbGVuZ3RoQWRqdXN0PSJzcGFjaW5nIiB0ZXh0TGVuZ3RoPSI0ODYiIHg9IjU3NCIgeT0iOTcuMjAzMSI+UmVzcG9uc2VFbnRpdHkmbHQ7TWFwJmx0O1N0cmluZywgQmlnRGVjaW1hbCZndDsmZ3Q7IGdldEF2ZXJhZ2VSYXRpbmcoTG9uZyB1c2VySWQpPC90ZXh0PjwvZz48IS0tY2xhc3MgQWJzdHJhY3REcml2ZXJGZWVkYmFja1NlcnZpY2VJbXBsLS0+PGcgaWQ9ImVsZW1fQWJzdHJhY3REcml2ZXJGZWVkYmFja1NlcnZpY2VJbXBsIj48cmVjdCBmaWxsPSIjRjFGMUYxIiBoZWlnaHQ9IjQ4IiBpZD0iQWJzdHJhY3REcml2ZXJGZWVkYmFja1NlcnZpY2VJbXBsIiByeD0iMi41IiByeT0iMi41IiBzdHlsZT0ic3Ryb2tlOiMxODE4MTg7c3Ryb2tlLXdpZHRoOjAuNTsiIHdpZHRoPSIyNjQiIHg9IjEzMSIgeT0iMTYzIi8+PGVsbGlwc2UgY3g9IjE0NiIgY3k9IjE3OSIgZmlsbD0iI0FERDFCMiIgcng9IjExIiByeT0iMTEiIHN0eWxlPSJzdHJva2U6IzE4MTgxODtzdHJva2Utd2lkdGg6MS4wOyIvPjxwYXRoIGQ9Ik0xNDMuNjI1LDE4My4yNSBMMTQzLjYyNSwxODUgTDE0OC41NjI1LDE4NSBMMTQ4LjU2MjUsMTgzLjI1IEwxNDMuNjI1LDE4My4yNSBaIE0xNDQuMzEyNSwxODMuOTM3NSBRMTQ0LjMxMjUsMTgzLjkzNzUgMTQ0LjMxMjUsMTc0Ljc1IEwxNDIuNTYyNSwxNzQuNzUgUTE0Mi41NjI1LDE3NC43NSAxNDIuNTYyNSwxODMuOTM3NSBMMTQ0LjMxMjUsMTgzLjkzNzUgWiBNMTQ3Ljg3NSwxODMuOTM3NSBMMTQ5LjYyNSwxODMuOTM3NSBRMTQ5LjYyNSwxODMuOTM3NSAxNDkuNjI1LDE4MS4xMjUgTDE0Ny44NzUsMTgxLjEyNSBRMTQ3Ljg3NSwxODEuMTI1IDE0Ny44NzUsMTgzLjkzNzUgWiBNMTQ3Ljg3NSwxNzQuNzUgUTE0Ny44NzUsMTc0Ljc1IDE0Ny44NzUsMTc3LjU2MjUgTDE0OS42MjUsMTc3LjU2MjUgUTE0OS42MjUsMTc3LjU2MjUgMTQ5LjYyNSwxNzQuNzUgTDE0Ny44NzUsMTc0Ljc1IFogTTE0My42MjUsMTc1LjQzNzUgTDE0OC41NjI1LDE3NS40Mzc1IEwxNDguNTYyNSwxNzMuNjg3NSBMMTQzLjYyNSwxNzMuNjg3NSBMMTQzLjYyNSwxNzUuNDM3NSBaICIgZmlsbD0iIzAwMDAwMCIvPjx0ZXh0IGZpbGw9IiMwMDAwMDAiIGZvbnQtZmFtaWx5PSJzYW5zLXNlcmlmIiBmb250LXNpemU9IjE0IiBsZW5ndGhBZGp1c3Q9InNwYWNpbmciIHRleHRMZW5ndGg9IjIzMiIgeD0iMTYwIiB5PSIxODQuNzQyMiI+QWJzdHJhY3REcml2ZXJGZWVkYmFja1NlcnZpY2VJbXBsPC90ZXh0PjxsaW5lIHN0eWxlPSJzdHJva2U6IzE4MTgxODtzdHJva2Utd2lkdGg6MC41OyIgeDE9IjEzMiIgeDI9IjM5NCIgeTE9IjE5NSIgeTI9IjE5NSIvPjxsaW5lIHN0eWxlPSJzdHJva2U6IzE4MTgxODtzdHJva2Utd2lkdGg6MC41OyIgeDE9IjEzMiIgeDI9IjM5NCIgeTE9IjIwMyIgeTI9IjIwMyIvPjwvZz48IS0tY2xhc3MgQWJzdHJhY3RVc2VyRmVlZGJhY2tTZXJ2aWNlSW1wbC0tPjxnIGlkPSJlbGVtX0Fic3RyYWN0VXNlckZlZWRiYWNrU2VydmljZUltcGwiPjxyZWN0IGZpbGw9IiNGMUYxRjEiIGhlaWdodD0iNDgiIGlkPSJBYnN0cmFjdFVzZXJGZWVkYmFja1NlcnZpY2VJbXBsIiByeD0iMi41IiByeT0iMi41IiBzdHlsZT0ic3Ryb2tlOiMxODE4MTg7c3Ryb2tlLXdpZHRoOjAuNTsiIHdpZHRoPSIyNTAiIHg9IjY4NSIgeT0iMTYzIi8+PGVsbGlwc2UgY3g9IjcwMCIgY3k9IjE3OSIgZmlsbD0iI0FERDFCMiIgcng9IjExIiByeT0iMTEiIHN0eWxlPSJzdHJva2U6IzE4MTgxODtzdHJva2Utd2lkdGg6MS4wOyIvPjxwYXRoIGQ9Ik02OTcuNjI1LDE4My4yNSBMNjk3LjYyNSwxODUgTDcwMi41NjI1LDE4NSBMNzAyLjU2MjUsMTgzLjI1IEw2OTcuNjI1LDE4My4yNSBaIE02OTguMzEyNSwxODMuOTM3NSBRNjk4LjMxMjUsMTgzLjkzNzUgNjk4LjMxMjUsMTc0Ljc1IEw2OTYuNTYyNSwxNzQuNzUgUTY5Ni41NjI1LDE3NC43NSA2OTYuNTYyNSwxODMuOTM3NSBMNjk4LjMxMjUsMTgzLjkzNzUgWiBNNzAxLjg3NSwxODMuOTM3NSBMNzAzLjYyNSwxODMuOTM3NSBRNzAzLjYyNSwxODMuOTM3NSA3MDMuNjI1LDE4MS4xMjUgTDcwMS44NzUsMTgxLjEyNSBRNzAxLjg3NSwxODEuMTI1IDcwMS44NzUsMTgzLjkzNzUgWiBNNzAxLjg3NSwxNzQuNzUgUTcwMS44NzUsMTc0Ljc1IDcwMS44NzUsMTc3LjU2MjUgTDcwMy42MjUsMTc3LjU2MjUgUTcwMy42MjUsMTc3LjU2MjUgNzAzLjYyNSwxNzQuNzUgTDcwMS44NzUsMTc0Ljc1IFogTTY5Ny42MjUsMTc1LjQzNzUgTDcwMi41NjI1LDE3NS40Mzc1IEw3MDIuNTYyNSwxNzMuNjg3NSBMNjk3LjYyNSwxNzMuNjg3NSBMNjk3LjYyNSwxNzUuNDM3NSBaICIgZmlsbD0iIzAwMDAwMCIvPjx0ZXh0IGZpbGw9IiMwMDAwMDAiIGZvbnQtZmFtaWx5PSJzYW5zLXNlcmlmIiBmb250LXNpemU9IjE0IiBsZW5ndGhBZGp1c3Q9InNwYWNpbmciIHRleHRMZW5ndGg9IjIxOCIgeD0iNzE0IiB5PSIxODQuNzQyMiI+QWJzdHJhY3RVc2VyRmVlZGJhY2tTZXJ2aWNlSW1wbDwvdGV4dD48bGluZSBzdHlsZT0ic3Ryb2tlOiMxODE4MTg7c3Ryb2tlLXdpZHRoOjAuNTsiIHgxPSI2ODYiIHgyPSI5MzQiIHkxPSIxOTUiIHkyPSIxOTUiLz48bGluZSBzdHlsZT0ic3Ryb2tlOiMxODE4MTg7c3Ryb2tlLXdpZHRoOjAuNTsiIHgxPSI2ODYiIHgyPSI5MzQiIHkxPSIyMDMiIHkyPSIyMDMiLz48L2c+PCEtLWxpbmsgQWJzdHJhY3REcml2ZXJGZWVkYmFja0NvbnRyb2xsZXIgdG8gQWJzdHJhY3REcml2ZXJGZWVkYmFja1NlcnZpY2VJbXBsLS0+PGcgaWQ9ImxpbmtfQWJzdHJhY3REcml2ZXJGZWVkYmFja0NvbnRyb2xsZXJfQWJzdHJhY3REcml2ZXJGZWVkYmFja1NlcnZpY2VJbXBsIj48cGF0aCBjb2RlTGluZT0iMTYiIGQ9Ik0yNjMsMTAzLjE3IEMyNjMsMTIzLjM2IDI2MywxNDAuMjQgMjYzLDE1Ni44MyAiIGZpbGw9Im5vbmUiIGlkPSJBYnN0cmFjdERyaXZlckZlZWRiYWNrQ29udHJvbGxlci10by1BYnN0cmFjdERyaXZlckZlZWRiYWNrU2VydmljZUltcGwiIHN0eWxlPSJzdHJva2U6IzE4MTgxODtzdHJva2Utd2lkdGg6MS4wOyIvPjxwb2x5Z29uIGZpbGw9IiMxODE4MTgiIHBvaW50cz0iMjYzLDE2Mi44MywyNjcsMTUzLjgzLDI2MywxNTcuODMsMjU5LDE1My44MywyNjMsMTYyLjgzIiBzdHlsZT0ic3Ryb2tlOiMxODE4MTg7c3Ryb2tlLXdpZHRoOjEuMDsiLz48L2c+PCEtLWxpbmsgQWJzdHJhY3RVc2VyRmVlZGJhY2tDb250cm9sbGVyIHRvIEFic3RyYWN0VXNlckZlZWRiYWNrU2VydmljZUltcGwtLT48ZyBpZD0ibGlua19BYnN0cmFjdFVzZXJGZWVkYmFja0NvbnRyb2xsZXJfQWJzdHJhY3RVc2VyRmVlZGJhY2tTZXJ2aWNlSW1wbCI+PHBhdGggY29kZUxpbmU9IjE3IiBkPSJNODEwLDEwMy4xNyBDODEwLDEyMy4zNiA4MTAsMTQwLjI0IDgxMCwxNTYuODMgIiBmaWxsPSJub25lIiBpZD0iQWJzdHJhY3RVc2VyRmVlZGJhY2tDb250cm9sbGVyLXRvLUFic3RyYWN0VXNlckZlZWRiYWNrU2VydmljZUltcGwiIHN0eWxlPSJzdHJva2U6IzE4MTgxODtzdHJva2Utd2lkdGg6MS4wOyIvPjxwb2x5Z29uIGZpbGw9IiMxODE4MTgiIHBvaW50cz0iODEwLDE2Mi44Myw4MTQsMTUzLjgzLDgxMCwxNTcuODMsODA2LDE1My44Myw4MTAsMTYyLjgzIiBzdHlsZT0ic3Ryb2tlOiMxODE4MTg7c3Ryb2tlLXdpZHRoOjEuMDsiLz48L2c+PCEtLVNSQz1bclA3MVFXOG40OFJsLW5IcGpESHpXc04xclhPNFV0N2plU1ZQeDNHNGFxb09aOEE4eHp1ZWJqUjNRZy1UTV9adlZwdy1BMlRHWGZ2TEVTM1dYOG13WmJOVWs5WEdDNDEyaXE1QmRVdXptSWQ2UTNyTDVQSjNGZ2tXS0owVVN1UlB2SmFOam9EdjlIaHdLZHhjZ0NCVWFwSmhBTm9xUzNYdEpfUzhBeWc5T3dRTmc0eHRKS2Rwald6RWx5a0pER3BBMy1FRERxbkRmLUFZZFNBSml0Q29CZzFsTXgyYWlxOUhxNVVlOVB1aUVMaE9QZkI1eUJETlpxMXQ5M2pkUTE2SWxyMV9OWVZkWFVERDNVX3Z0cWR1WlZuZDFWVS03VWd3bFEtdmtndGpRY0c0eW1pMF0tLT48L2c+PC9zdmc+;" vertex="1" parent="4x7U3FR9SUszH1-q4xUU-309">
            <mxGeometry x="2005" y="-90.32" width="535" height="108.29" as="geometry" />
          </mxCell>
        </UserObject>
        <mxCell id="4x7U3FR9SUszH1-q4xUU-310" value="" style="shape=folder;fontStyle=1;spacingTop=10;tabWidth=150;tabHeight=20;tabPosition=left;html=1;whiteSpace=wrap;fillColor=#505b48;strokeColor=#82b366;" vertex="1" parent="1">
          <mxGeometry x="-5831.25" y="2514.6299999999997" width="590" height="1173.12" as="geometry" />
        </mxCell>
        <mxCell id="4x7U3FR9SUszH1-q4xUU-311" value="&lt;b style=&quot;border-color: var(--border-color);&quot;&gt;Framework Feedback&amp;nbsp;&lt;/b&gt;&lt;b style=&quot;background-color: initial; border-color: var(--border-color);&quot;&gt;Services&lt;/b&gt;" style="shape=module;align=left;spacingLeft=20;align=center;verticalAlign=top;whiteSpace=wrap;html=1;" vertex="1" parent="1">
          <mxGeometry x="-5830.25" y="2577.4299999999994" width="580" height="550.32" as="geometry" />
        </mxCell>
        <mxCell id="4x7U3FR9SUszH1-q4xUU-313" value="&lt;b style=&quot;border-color: var(--border-color);&quot;&gt;Feedback Services&lt;/b&gt;" style="shape=module;align=left;spacingLeft=20;align=center;verticalAlign=top;whiteSpace=wrap;html=1;" vertex="1" parent="1">
          <mxGeometry x="-5830.25" y="3147.7499999999995" width="580" height="450" as="geometry" />
        </mxCell>
        <UserObject label="" plantUmlData="{&quot;data&quot;:&quot;@startuml\n\nleft to right direction\n\ninterface DriverFeedbackService&lt;T, Y&gt; {\n    + Y saveFeedback(T dto)\n    + Optional&lt;BigDecimal&gt; getAverageRating(Long userId)\n}\n\ninterface UserFeedbackService&lt;T, Y&gt; {\n    + Y saveFeedback(T dto)\n    + Optional&lt;BigDecimal&gt; getAverageRating(Long userId)\n}\n\nabstract class AbstractUserFeedbackServiceImpl&lt;B, R&gt; {\n    + R saveFeedback(B dto)\n    + R getFeedback(Long id)\n    + R updateFeedback(Long id, B dto)\n    + void deleteFeedback(Long id)\n    # R createFeedbackResponseDTO()\n}\n\nabstract class AbstractDriverFeedbackServiceImpl&lt;B, R&gt; {\n    + R saveFeedback(B dto)\n    + R getFeedback(Long id)\n    + R updateFeedback(Long id, B dto)\n    + void deleteFeedback(Long id)\n    # R createFeedbackResponseDto()\n}\n\nAbstractUserFeedbackServiceImpl ..|&gt; UserFeedbackService\nAbstractDriverFeedbackServiceImpl ..|&gt; DriverFeedbackService\n\n@enduml&quot;,&quot;format&quot;:&quot;svg&quot;}" id="4x7U3FR9SUszH1-q4xUU-415">
          <mxCell style="shape=image;noLabel=1;verticalAlign=top;aspect=fixed;imageAspect=0;image=data:image/svg+xml,PD94bWwgdmVyc2lvbj0iMS4wIiBlbmNvZGluZz0idXMtYXNjaWkiIHN0YW5kYWxvbmU9Im5vIj8+PHN2ZyB4bWxucz0iaHR0cDovL3d3dy53My5vcmcvMjAwMC9zdmciIHhtbG5zOnhsaW5rPSJodHRwOi8vd3d3LnczLm9yZy8xOTk5L3hsaW5rIiBjb250ZW50U3R5bGVUeXBlPSJ0ZXh0L2NzcyIgaGVpZ2h0PSIyOTdweCIgcHJlc2VydmVBc3BlY3RSYXRpbz0ibm9uZSIgc3R5bGU9IndpZHRoOjc1M3B4O2hlaWdodDoyOTdweDtiYWNrZ3JvdW5kOiNGRkZGRkY7IiB2ZXJzaW9uPSIxLjEiIHZpZXdCb3g9IjAgMCA3NTMgMjk3IiB3aWR0aD0iNzUzcHgiIHpvb21BbmRQYW49Im1hZ25pZnkiPjxkZWZzLz48Zz48IS0tY2xhc3MgRHJpdmVyRmVlZGJhY2tTZXJ2aWNlLS0+PGcgaWQ9ImVsZW1fRHJpdmVyRmVlZGJhY2tTZXJ2aWNlIj48cmVjdCBjb2RlTGluZT0iMyIgZmlsbD0iI0YxRjFGMSIgaGVpZ2h0PSI3Ny45Njg4IiBpZD0iRHJpdmVyRmVlZGJhY2tTZXJ2aWNlIiByeD0iMi41IiByeT0iMi41IiBzdHlsZT0ic3Ryb2tlOiMxODE4MTg7c3Ryb2tlLXdpZHRoOjAuNTsiIHdpZHRoPSIzNzkiIHg9IjM2MyIgeT0iMTkwLjUiLz48ZWxsaXBzZSBjeD0iNDYwLjI1IiBjeT0iMjA2LjUiIGZpbGw9IiNCNEE3RTUiIHJ4PSIxMSIgcnk9IjExIiBzdHlsZT0ic3Ryb2tlOiMxODE4MTg7c3Ryb2tlLXdpZHRoOjEuMDsiLz48cGF0aCBkPSJNNDYzLjM3NSwyMTIuNSBMNDYzLjM3NSwyMTAuNzUgTDQ2MS4yNSwyMTAuNzUgUTQ2MS4yNSwyMTAuNzUgNDYxLjI1LDIwMi45Mzc1IEw0NjMuMzc1LDIwMi45Mzc1IEw0NjMuMzc1LDIwMS4xODc1IEw0NTcuMzc1LDIwMS4xODc1IEw0NTcuMzc1LDIwMi45Mzc1IEw0NTkuNSwyMDIuOTM3NSBRNDU5LjUsMjAyLjkzNzUgNDU5LjUsMjEwLjc1IEw0NTcuMzc1LDIxMC43NSBMNDU3LjM3NSwyMTIuNSBMNDYzLjM3NSwyMTIuNSBaICIgZmlsbD0iIzAwMDAwMCIvPjx0ZXh0IGZpbGw9IiMwMDAwMDAiIGZvbnQtZmFtaWx5PSJzYW5zLXNlcmlmIiBmb250LXNpemU9IjE0IiBmb250LXN0eWxlPSJpdGFsaWMiIGxlbmd0aEFkanVzdD0ic3BhY2luZyIgdGV4dExlbmd0aD0iMTQ3IiB4PSI0ODAuNzUiIHk9IjIxMi4yNDIyIj5Ecml2ZXJGZWVkYmFja1NlcnZpY2U8L3RleHQ+PHJlY3QgZmlsbD0iI0ZGRkZGRiIgaGVpZ2h0PSIxNC44NDM4IiBzdHlsZT0ic3Ryb2tlOiMxODE4MTg7c3Ryb2tlLXdpZHRoOjEuMDtzdHJva2UtZGFzaGFycmF5OjIuMCwyLjA7IiB3aWR0aD0iMjciIHg9IjcxOCIgeT0iMTg3LjUiLz48dGV4dCBmaWxsPSIjMDAwMDAwIiBmb250LWZhbWlseT0ic2Fucy1zZXJpZiIgZm9udC1zaXplPSIxMiIgZm9udC1zdHlsZT0iaXRhbGljIiBsZW5ndGhBZGp1c3Q9InNwYWNpbmciIHRleHRMZW5ndGg9IjI1IiB4PSI3MTkiIHk9IjE5OS44NDM4Ij5ULCBZPC90ZXh0PjxsaW5lIHN0eWxlPSJzdHJva2U6IzE4MTgxODtzdHJva2Utd2lkdGg6MC41OyIgeDE9IjM2NCIgeDI9Ijc0MSIgeTE9IjIyMi41IiB5Mj0iMjIyLjUiLz48bGluZSBzdHlsZT0ic3Ryb2tlOiMxODE4MTg7c3Ryb2tlLXdpZHRoOjAuNTsiIHgxPSIzNjQiIHgyPSI3NDEiIHkxPSIyMzAuNSIgeTI9IjIzMC41Ii8+PGVsbGlwc2UgY3g9IjM3NCIgY3k9IjI0My40OTIyIiBmaWxsPSIjODRCRTg0IiByeD0iMyIgcnk9IjMiIHN0eWxlPSJzdHJva2U6IzAzODA0ODtzdHJva2Utd2lkdGg6MS4wOyIvPjx0ZXh0IGZpbGw9IiMwMDAwMDAiIGZvbnQtZmFtaWx5PSJzYW5zLXNlcmlmIiBmb250LXNpemU9IjE0IiBsZW5ndGhBZGp1c3Q9InNwYWNpbmciIHRleHRMZW5ndGg9IjE0OSIgeD0iMzgzIiB5PSIyNDcuNzM0NCI+WSBzYXZlRmVlZGJhY2soVCBkdG8pPC90ZXh0PjxlbGxpcHNlIGN4PSIzNzQiIGN5PSIyNTguNDc2NiIgZmlsbD0iIzg0QkU4NCIgcng9IjMiIHJ5PSIzIiBzdHlsZT0ic3Ryb2tlOiMwMzgwNDg7c3Ryb2tlLXdpZHRoOjEuMDsiLz48dGV4dCBmaWxsPSIjMDAwMDAwIiBmb250LWZhbWlseT0ic2Fucy1zZXJpZiIgZm9udC1zaXplPSIxNCIgbGVuZ3RoQWRqdXN0PSJzcGFjaW5nIiB0ZXh0TGVuZ3RoPSIzNTMiIHg9IjM4MyIgeT0iMjYyLjcxODgiPk9wdGlvbmFsJmx0O0JpZ0RlY2ltYWwmZ3Q7IGdldEF2ZXJhZ2VSYXRpbmcoTG9uZyB1c2VySWQpPC90ZXh0PjwvZz48IS0tY2xhc3MgVXNlckZlZWRiYWNrU2VydmljZS0tPjxnIGlkPSJlbGVtX1VzZXJGZWVkYmFja1NlcnZpY2UiPjxyZWN0IGNvZGVMaW5lPSI4IiBmaWxsPSIjRjFGMUYxIiBoZWlnaHQ9Ijc3Ljk2ODgiIGlkPSJVc2VyRmVlZGJhY2tTZXJ2aWNlIiByeD0iMi41IiByeT0iMi41IiBzdHlsZT0ic3Ryb2tlOiMxODE4MTg7c3Ryb2tlLXdpZHRoOjAuNTsiIHdpZHRoPSIzNzkiIHg9IjM2MyIgeT0iMzIuNSIvPjxlbGxpcHNlIGN4PSI0NjcuMjUiIGN5PSI0OC41IiBmaWxsPSIjQjRBN0U1IiByeD0iMTEiIHJ5PSIxMSIgc3R5bGU9InN0cm9rZTojMTgxODE4O3N0cm9rZS13aWR0aDoxLjA7Ii8+PHBhdGggZD0iTTQ3MC4zNzUsNTQuNSBMNDcwLjM3NSw1Mi43NSBMNDY4LjI1LDUyLjc1IFE0NjguMjUsNTIuNzUgNDY4LjI1LDQ0LjkzNzUgTDQ3MC4zNzUsNDQuOTM3NSBMNDcwLjM3NSw0My4xODc1IEw0NjQuMzc1LDQzLjE4NzUgTDQ2NC4zNzUsNDQuOTM3NSBMNDY2LjUsNDQuOTM3NSBRNDY2LjUsNDQuOTM3NSA0NjYuNSw1Mi43NSBMNDY0LjM3NSw1Mi43NSBMNDY0LjM3NSw1NC41IEw0NzAuMzc1LDU0LjUgWiAiIGZpbGw9IiMwMDAwMDAiLz48dGV4dCBmaWxsPSIjMDAwMDAwIiBmb250LWZhbWlseT0ic2Fucy1zZXJpZiIgZm9udC1zaXplPSIxNCIgZm9udC1zdHlsZT0iaXRhbGljIiBsZW5ndGhBZGp1c3Q9InNwYWNpbmciIHRleHRMZW5ndGg9IjEzMyIgeD0iNDg3Ljc1IiB5PSI1NC4yNDIyIj5Vc2VyRmVlZGJhY2tTZXJ2aWNlPC90ZXh0PjxyZWN0IGZpbGw9IiNGRkZGRkYiIGhlaWdodD0iMTQuODQzOCIgc3R5bGU9InN0cm9rZTojMTgxODE4O3N0cm9rZS13aWR0aDoxLjA7c3Ryb2tlLWRhc2hhcnJheToyLjAsMi4wOyIgd2lkdGg9IjI3IiB4PSI3MTgiIHk9IjI5LjUiLz48dGV4dCBmaWxsPSIjMDAwMDAwIiBmb250LWZhbWlseT0ic2Fucy1zZXJpZiIgZm9udC1zaXplPSIxMiIgZm9udC1zdHlsZT0iaXRhbGljIiBsZW5ndGhBZGp1c3Q9InNwYWNpbmciIHRleHRMZW5ndGg9IjI1IiB4PSI3MTkiIHk9IjQxLjg0MzgiPlQsIFk8L3RleHQ+PGxpbmUgc3R5bGU9InN0cm9rZTojMTgxODE4O3N0cm9rZS13aWR0aDowLjU7IiB4MT0iMzY0IiB4Mj0iNzQxIiB5MT0iNjQuNSIgeTI9IjY0LjUiLz48bGluZSBzdHlsZT0ic3Ryb2tlOiMxODE4MTg7c3Ryb2tlLXdpZHRoOjAuNTsiIHgxPSIzNjQiIHgyPSI3NDEiIHkxPSI3Mi41IiB5Mj0iNzIuNSIvPjxlbGxpcHNlIGN4PSIzNzQiIGN5PSI4NS40OTIyIiBmaWxsPSIjODRCRTg0IiByeD0iMyIgcnk9IjMiIHN0eWxlPSJzdHJva2U6IzAzODA0ODtzdHJva2Utd2lkdGg6MS4wOyIvPjx0ZXh0IGZpbGw9IiMwMDAwMDAiIGZvbnQtZmFtaWx5PSJzYW5zLXNlcmlmIiBmb250LXNpemU9IjE0IiBsZW5ndGhBZGp1c3Q9InNwYWNpbmciIHRleHRMZW5ndGg9IjE0OSIgeD0iMzgzIiB5PSI4OS43MzQ0Ij5ZIHNhdmVGZWVkYmFjayhUIGR0byk8L3RleHQ+PGVsbGlwc2UgY3g9IjM3NCIgY3k9IjEwMC40NzY2IiBmaWxsPSIjODRCRTg0IiByeD0iMyIgcnk9IjMiIHN0eWxlPSJzdHJva2U6IzAzODA0ODtzdHJva2Utd2lkdGg6MS4wOyIvPjx0ZXh0IGZpbGw9IiMwMDAwMDAiIGZvbnQtZmFtaWx5PSJzYW5zLXNlcmlmIiBmb250LXNpemU9IjE0IiBsZW5ndGhBZGp1c3Q9InNwYWNpbmciIHRleHRMZW5ndGg9IjM1MyIgeD0iMzgzIiB5PSIxMDQuNzE4OCI+T3B0aW9uYWwmbHQ7QmlnRGVjaW1hbCZndDsgZ2V0QXZlcmFnZVJhdGluZyhMb25nIHVzZXJJZCk8L3RleHQ+PC9nPjwhLS1jbGFzcyBBYnN0cmFjdFVzZXJGZWVkYmFja1NlcnZpY2VJbXBsLS0+PGcgaWQ9ImVsZW1fQWJzdHJhY3RVc2VyRmVlZGJhY2tTZXJ2aWNlSW1wbCI+PHJlY3QgY29kZUxpbmU9IjEzIiBmaWxsPSIjRjFGMUYxIiBoZWlnaHQ9IjEyMi45MjE5IiBpZD0iQWJzdHJhY3RVc2VyRmVlZGJhY2tTZXJ2aWNlSW1wbCIgcng9IjIuNSIgcnk9IjIuNSIgc3R5bGU9InN0cm9rZTojMTgxODE4O3N0cm9rZS13aWR0aDowLjU7IiB3aWR0aD0iMjgwIiB4PSIxNiIgeT0iMTAiLz48ZWxsaXBzZSBjeD0iMzEiIGN5PSIyNiIgZmlsbD0iI0E5RENERiIgcng9IjExIiByeT0iMTEiIHN0eWxlPSJzdHJva2U6IzE4MTgxODtzdHJva2Utd2lkdGg6MS4wOyIvPjxwYXRoIGQ9Ik0yNy41NjI1LDIzLjYyNSBMMjcuNTYyNSwzMS43NSBMMjkuMzEyNSwzMS43NSBRMjkuMzEyNSwzMS43NSAyOS4zMTI1LDI3LjUgTDMyLjg3NSwyNy41IFEzMi44NzUsMjcuNSAzMi44NzUsMzEuNzUgTDM0LjYyNSwzMS43NSBMMzQuNjI1LDIzLjYyNSBMMzIuODc1LDIzLjYyNSBRMzIuODc1LDIzLjYyNSAzMi44NzUsMjUuNzUgTDI5LjMxMjUsMjUuNzUgUTI5LjMxMjUsMjUuNzUgMjkuMzEyNSwyMy42MjUgTDI3LjU2MjUsMjMuNjI1IFogTTI4LjYyNSwyNC4zMTI1IEwzMC4zNzUsMjQuMzEyNSBRMzAuMzc1LDI0LjMxMjUgMzAuMzc1LDIxLjUgTDI4LjYyNSwyMS41IFEyOC42MjUsMjEuNSAyOC42MjUsMjQuMzEyNSBaIE0zMy41NjI1LDI0LjMxMjUgUTMzLjU2MjUsMjQuMzEyNSAzMy41NjI1LDIxLjUgTDMxLjgxMjUsMjEuNSBRMzEuODEyNSwyMS41IDMxLjgxMjUsMjQuMzEyNSBMMzMuNTYyNSwyNC4zMTI1IFogTTI5LjY4NzUsMjIuMTg3NSBMMzIuNSwyMi4xODc1IEwzMi41LDIwLjQzNzUgTDI5LjY4NzUsMjAuNDM3NSBMMjkuNjg3NSwyMi4xODc1IFogIiBmaWxsPSIjMDAwMDAwIi8+PHRleHQgZmlsbD0iIzAwMDAwMCIgZm9udC1mYW1pbHk9InNhbnMtc2VyaWYiIGZvbnQtc2l6ZT0iMTQiIGZvbnQtc3R5bGU9Iml0YWxpYyIgbGVuZ3RoQWRqdXN0PSJzcGFjaW5nIiB0ZXh0TGVuZ3RoPSIyMTgiIHg9IjQ1IiB5PSIzMS43NDIyIj5BYnN0cmFjdFVzZXJGZWVkYmFja1NlcnZpY2VJbXBsPC90ZXh0PjxyZWN0IGZpbGw9IiNGRkZGRkYiIGhlaWdodD0iMTQuODQzOCIgc3R5bGU9InN0cm9rZTojMTgxODE4O3N0cm9rZS13aWR0aDoxLjA7c3Ryb2tlLWRhc2hhcnJheToyLjAsMi4wOyIgd2lkdGg9IjI4IiB4PSIyNzEiIHk9IjciLz48dGV4dCBmaWxsPSIjMDAwMDAwIiBmb250LWZhbWlseT0ic2Fucy1zZXJpZiIgZm9udC1zaXplPSIxMiIgZm9udC1zdHlsZT0iaXRhbGljIiBsZW5ndGhBZGp1c3Q9InNwYWNpbmciIHRleHRMZW5ndGg9IjI2IiB4PSIyNzIiIHk9IjE5LjM0MzgiPkIsIFI8L3RleHQ+PGxpbmUgc3R5bGU9InN0cm9rZTojMTgxODE4O3N0cm9rZS13aWR0aDowLjU7IiB4MT0iMTciIHgyPSIyOTUiIHkxPSI0MiIgeTI9IjQyIi8+PGxpbmUgc3R5bGU9InN0cm9rZTojMTgxODE4O3N0cm9rZS13aWR0aDowLjU7IiB4MT0iMTciIHgyPSIyOTUiIHkxPSI1MCIgeTI9IjUwIi8+PGVsbGlwc2UgY3g9IjI3IiBjeT0iNjIuOTkyMiIgZmlsbD0iIzg0QkU4NCIgcng9IjMiIHJ5PSIzIiBzdHlsZT0ic3Ryb2tlOiMwMzgwNDg7c3Ryb2tlLXdpZHRoOjEuMDsiLz48dGV4dCBmaWxsPSIjMDAwMDAwIiBmb250LWZhbWlseT0ic2Fucy1zZXJpZiIgZm9udC1zaXplPSIxNCIgbGVuZ3RoQWRqdXN0PSJzcGFjaW5nIiB0ZXh0TGVuZ3RoPSIxNDkiIHg9IjM2IiB5PSI2Ny4yMzQ0Ij5SIHNhdmVGZWVkYmFjayhCIGR0byk8L3RleHQ+PGVsbGlwc2UgY3g9IjI3IiBjeT0iNzcuOTc2NiIgZmlsbD0iIzg0QkU4NCIgcng9IjMiIHJ5PSIzIiBzdHlsZT0ic3Ryb2tlOiMwMzgwNDg7c3Ryb2tlLXdpZHRoOjEuMDsiLz48dGV4dCBmaWxsPSIjMDAwMDAwIiBmb250LWZhbWlseT0ic2Fucy1zZXJpZiIgZm9udC1zaXplPSIxNCIgbGVuZ3RoQWRqdXN0PSJzcGFjaW5nIiB0ZXh0TGVuZ3RoPSIxNTYiIHg9IjM2IiB5PSI4Mi4yMTg4Ij5SIGdldEZlZWRiYWNrKExvbmcgaWQpPC90ZXh0PjxlbGxpcHNlIGN4PSIyNyIgY3k9IjkyLjk2MDkiIGZpbGw9IiM4NEJFODQiIHJ4PSIzIiByeT0iMyIgc3R5bGU9InN0cm9rZTojMDM4MDQ4O3N0cm9rZS13aWR0aDoxLjA7Ii8+PHRleHQgZmlsbD0iIzAwMDAwMCIgZm9udC1mYW1pbHk9InNhbnMtc2VyaWYiIGZvbnQtc2l6ZT0iMTQiIGxlbmd0aEFkanVzdD0ic3BhY2luZyIgdGV4dExlbmd0aD0iMjI2IiB4PSIzNiIgeT0iOTcuMjAzMSI+UiB1cGRhdGVGZWVkYmFjayhMb25nIGlkLCBCIGR0byk8L3RleHQ+PGVsbGlwc2UgY3g9IjI3IiBjeT0iMTA3Ljk0NTMiIGZpbGw9IiM4NEJFODQiIHJ4PSIzIiByeT0iMyIgc3R5bGU9InN0cm9rZTojMDM4MDQ4O3N0cm9rZS13aWR0aDoxLjA7Ii8+PHRleHQgZmlsbD0iIzAwMDAwMCIgZm9udC1mYW1pbHk9InNhbnMtc2VyaWYiIGZvbnQtc2l6ZT0iMTQiIGxlbmd0aEFkanVzdD0ic3BhY2luZyIgdGV4dExlbmd0aD0iMTk4IiB4PSIzNiIgeT0iMTEyLjE4NzUiPnZvaWQgZGVsZXRlRmVlZGJhY2soTG9uZyBpZCk8L3RleHQ+PHBvbHlnb24gZmlsbD0iI0ZGRkY0NCIgcG9pbnRzPSIyNywxMTcuOTI5NywzMSwxMjEuOTI5NywyNywxMjUuOTI5NywyMywxMjEuOTI5NyIgc3R5bGU9InN0cm9rZTojQjM4RDIyO3N0cm9rZS13aWR0aDoxLjA7Ii8+PHRleHQgZmlsbD0iIzAwMDAwMCIgZm9udC1mYW1pbHk9InNhbnMtc2VyaWYiIGZvbnQtc2l6ZT0iMTQiIGxlbmd0aEFkanVzdD0ic3BhY2luZyIgdGV4dExlbmd0aD0iMjA1IiB4PSIzNiIgeT0iMTI3LjE3MTkiPlIgY3JlYXRlRmVlZGJhY2tSZXNwb25zZURUTygpPC90ZXh0PjwvZz48IS0tY2xhc3MgQWJzdHJhY3REcml2ZXJGZWVkYmFja1NlcnZpY2VJbXBsLS0+PGcgaWQ9ImVsZW1fQWJzdHJhY3REcml2ZXJGZWVkYmFja1NlcnZpY2VJbXBsIj48cmVjdCBjb2RlTGluZT0iMjEiIGZpbGw9IiNGMUYxRjEiIGhlaWdodD0iMTIyLjkyMTkiIGlkPSJBYnN0cmFjdERyaXZlckZlZWRiYWNrU2VydmljZUltcGwiIHJ4PSIyLjUiIHJ5PSIyLjUiIHN0eWxlPSJzdHJva2U6IzE4MTgxODtzdHJva2Utd2lkdGg6MC41OyIgd2lkdGg9IjI5NCIgeD0iOSIgeT0iMTY4Ii8+PGVsbGlwc2UgY3g9IjI0IiBjeT0iMTg0IiBmaWxsPSIjQTlEQ0RGIiByeD0iMTEiIHJ5PSIxMSIgc3R5bGU9InN0cm9rZTojMTgxODE4O3N0cm9rZS13aWR0aDoxLjA7Ii8+PHBhdGggZD0iTTIwLjU2MjUsMTgxLjYyNSBMMjAuNTYyNSwxODkuNzUgTDIyLjMxMjUsMTg5Ljc1IFEyMi4zMTI1LDE4OS43NSAyMi4zMTI1LDE4NS41IEwyNS44NzUsMTg1LjUgUTI1Ljg3NSwxODUuNSAyNS44NzUsMTg5Ljc1IEwyNy42MjUsMTg5Ljc1IEwyNy42MjUsMTgxLjYyNSBMMjUuODc1LDE4MS42MjUgUTI1Ljg3NSwxODEuNjI1IDI1Ljg3NSwxODMuNzUgTDIyLjMxMjUsMTgzLjc1IFEyMi4zMTI1LDE4My43NSAyMi4zMTI1LDE4MS42MjUgTDIwLjU2MjUsMTgxLjYyNSBaIE0yMS42MjUsMTgyLjMxMjUgTDIzLjM3NSwxODIuMzEyNSBRMjMuMzc1LDE4Mi4zMTI1IDIzLjM3NSwxNzkuNSBMMjEuNjI1LDE3OS41IFEyMS42MjUsMTc5LjUgMjEuNjI1LDE4Mi4zMTI1IFogTTI2LjU2MjUsMTgyLjMxMjUgUTI2LjU2MjUsMTgyLjMxMjUgMjYuNTYyNSwxNzkuNSBMMjQuODEyNSwxNzkuNSBRMjQuODEyNSwxNzkuNSAyNC44MTI1LDE4Mi4zMTI1IEwyNi41NjI1LDE4Mi4zMTI1IFogTTIyLjY4NzUsMTgwLjE4NzUgTDI1LjUsMTgwLjE4NzUgTDI1LjUsMTc4LjQzNzUgTDIyLjY4NzUsMTc4LjQzNzUgTDIyLjY4NzUsMTgwLjE4NzUgWiAiIGZpbGw9IiMwMDAwMDAiLz48dGV4dCBmaWxsPSIjMDAwMDAwIiBmb250LWZhbWlseT0ic2Fucy1zZXJpZiIgZm9udC1zaXplPSIxNCIgZm9udC1zdHlsZT0iaXRhbGljIiBsZW5ndGhBZGp1c3Q9InNwYWNpbmciIHRleHRMZW5ndGg9IjIzMiIgeD0iMzgiIHk9IjE4OS43NDIyIj5BYnN0cmFjdERyaXZlckZlZWRiYWNrU2VydmljZUltcGw8L3RleHQ+PHJlY3QgZmlsbD0iI0ZGRkZGRiIgaGVpZ2h0PSIxNC44NDM4IiBzdHlsZT0ic3Ryb2tlOiMxODE4MTg7c3Ryb2tlLXdpZHRoOjEuMDtzdHJva2UtZGFzaGFycmF5OjIuMCwyLjA7IiB3aWR0aD0iMjgiIHg9IjI3OCIgeT0iMTY1Ii8+PHRleHQgZmlsbD0iIzAwMDAwMCIgZm9udC1mYW1pbHk9InNhbnMtc2VyaWYiIGZvbnQtc2l6ZT0iMTIiIGZvbnQtc3R5bGU9Iml0YWxpYyIgbGVuZ3RoQWRqdXN0PSJzcGFjaW5nIiB0ZXh0TGVuZ3RoPSIyNiIgeD0iMjc5IiB5PSIxNzcuMzQzOCI+QiwgUjwvdGV4dD48bGluZSBzdHlsZT0ic3Ryb2tlOiMxODE4MTg7c3Ryb2tlLXdpZHRoOjAuNTsiIHgxPSIxMCIgeDI9IjMwMiIgeTE9IjIwMCIgeTI9IjIwMCIvPjxsaW5lIHN0eWxlPSJzdHJva2U6IzE4MTgxODtzdHJva2Utd2lkdGg6MC41OyIgeDE9IjEwIiB4Mj0iMzAyIiB5MT0iMjA4IiB5Mj0iMjA4Ii8+PGVsbGlwc2UgY3g9IjIwIiBjeT0iMjIwLjk5MjIiIGZpbGw9IiM4NEJFODQiIHJ4PSIzIiByeT0iMyIgc3R5bGU9InN0cm9rZTojMDM4MDQ4O3N0cm9rZS13aWR0aDoxLjA7Ii8+PHRleHQgZmlsbD0iIzAwMDAwMCIgZm9udC1mYW1pbHk9InNhbnMtc2VyaWYiIGZvbnQtc2l6ZT0iMTQiIGxlbmd0aEFkanVzdD0ic3BhY2luZyIgdGV4dExlbmd0aD0iMTQ5IiB4PSIyOSIgeT0iMjI1LjIzNDQiPlIgc2F2ZUZlZWRiYWNrKEIgZHRvKTwvdGV4dD48ZWxsaXBzZSBjeD0iMjAiIGN5PSIyMzUuOTc2NiIgZmlsbD0iIzg0QkU4NCIgcng9IjMiIHJ5PSIzIiBzdHlsZT0ic3Ryb2tlOiMwMzgwNDg7c3Ryb2tlLXdpZHRoOjEuMDsiLz48dGV4dCBmaWxsPSIjMDAwMDAwIiBmb250LWZhbWlseT0ic2Fucy1zZXJpZiIgZm9udC1zaXplPSIxNCIgbGVuZ3RoQWRqdXN0PSJzcGFjaW5nIiB0ZXh0TGVuZ3RoPSIxNTYiIHg9IjI5IiB5PSIyNDAuMjE4OCI+UiBnZXRGZWVkYmFjayhMb25nIGlkKTwvdGV4dD48ZWxsaXBzZSBjeD0iMjAiIGN5PSIyNTAuOTYwOSIgZmlsbD0iIzg0QkU4NCIgcng9IjMiIHJ5PSIzIiBzdHlsZT0ic3Ryb2tlOiMwMzgwNDg7c3Ryb2tlLXdpZHRoOjEuMDsiLz48dGV4dCBmaWxsPSIjMDAwMDAwIiBmb250LWZhbWlseT0ic2Fucy1zZXJpZiIgZm9udC1zaXplPSIxNCIgbGVuZ3RoQWRqdXN0PSJzcGFjaW5nIiB0ZXh0TGVuZ3RoPSIyMjYiIHg9IjI5IiB5PSIyNTUuMjAzMSI+UiB1cGRhdGVGZWVkYmFjayhMb25nIGlkLCBCIGR0byk8L3RleHQ+PGVsbGlwc2UgY3g9IjIwIiBjeT0iMjY1Ljk0NTMiIGZpbGw9IiM4NEJFODQiIHJ4PSIzIiByeT0iMyIgc3R5bGU9InN0cm9rZTojMDM4MDQ4O3N0cm9rZS13aWR0aDoxLjA7Ii8+PHRleHQgZmlsbD0iIzAwMDAwMCIgZm9udC1mYW1pbHk9InNhbnMtc2VyaWYiIGZvbnQtc2l6ZT0iMTQiIGxlbmd0aEFkanVzdD0ic3BhY2luZyIgdGV4dExlbmd0aD0iMTk4IiB4PSIyOSIgeT0iMjcwLjE4NzUiPnZvaWQgZGVsZXRlRmVlZGJhY2soTG9uZyBpZCk8L3RleHQ+PHBvbHlnb24gZmlsbD0iI0ZGRkY0NCIgcG9pbnRzPSIyMCwyNzUuOTI5NywyNCwyNzkuOTI5NywyMCwyODMuOTI5NywxNiwyNzkuOTI5NyIgc3R5bGU9InN0cm9rZTojQjM4RDIyO3N0cm9rZS13aWR0aDoxLjA7Ii8+PHRleHQgZmlsbD0iIzAwMDAwMCIgZm9udC1mYW1pbHk9InNhbnMtc2VyaWYiIGZvbnQtc2l6ZT0iMTQiIGxlbmd0aEFkanVzdD0ic3BhY2luZyIgdGV4dExlbmd0aD0iMjA1IiB4PSIyOSIgeT0iMjg1LjE3MTkiPlIgY3JlYXRlRmVlZGJhY2tSZXNwb25zZUR0bygpPC90ZXh0PjwvZz48IS0tbGluayBBYnN0cmFjdFVzZXJGZWVkYmFja1NlcnZpY2VJbXBsIHRvIFVzZXJGZWVkYmFja1NlcnZpY2UtLT48ZyBpZD0ibGlua19BYnN0cmFjdFVzZXJGZWVkYmFja1NlcnZpY2VJbXBsX1VzZXJGZWVkYmFja1NlcnZpY2UiPjxwYXRoIGNvZGVMaW5lPSIyOSIgZD0iTTI5Ni4wOSw3MS41IEMzMTcuNzEsNzEuNSAzMjIuMzcsNzEuNSAzNDQuODcsNzEuNSAiIGZpbGw9Im5vbmUiIGlkPSJBYnN0cmFjdFVzZXJGZWVkYmFja1NlcnZpY2VJbXBsLXRvLVVzZXJGZWVkYmFja1NlcnZpY2UiIHN0eWxlPSJzdHJva2U6IzE4MTgxODtzdHJva2Utd2lkdGg6MS4wO3N0cm9rZS1kYXNoYXJyYXk6Ny4wLDcuMDsiLz48cG9seWdvbiBmaWxsPSJub25lIiBwb2ludHM9IjM2Mi44Nyw3MS41LDM0NC44Nyw2NS41LDM0NC44Nyw3Ny41LDM2Mi44Nyw3MS41IiBzdHlsZT0ic3Ryb2tlOiMxODE4MTg7c3Ryb2tlLXdpZHRoOjEuMDsiLz48L2c+PCEtLWxpbmsgQWJzdHJhY3REcml2ZXJGZWVkYmFja1NlcnZpY2VJbXBsIHRvIERyaXZlckZlZWRiYWNrU2VydmljZS0tPjxnIGlkPSJsaW5rX0Fic3RyYWN0RHJpdmVyRmVlZGJhY2tTZXJ2aWNlSW1wbF9Ecml2ZXJGZWVkYmFja1NlcnZpY2UiPjxwYXRoIGNvZGVMaW5lPSIzMCIgZD0iTTMwMy4wNiwyMjkuNSBDMzIyLjU4LDIyOS41IDMyNC44MywyMjkuNSAzNDQuOTUsMjI5LjUgIiBmaWxsPSJub25lIiBpZD0iQWJzdHJhY3REcml2ZXJGZWVkYmFja1NlcnZpY2VJbXBsLXRvLURyaXZlckZlZWRiYWNrU2VydmljZSIgc3R5bGU9InN0cm9rZTojMTgxODE4O3N0cm9rZS13aWR0aDoxLjA7c3Ryb2tlLWRhc2hhcnJheTo3LjAsNy4wOyIvPjxwb2x5Z29uIGZpbGw9Im5vbmUiIHBvaW50cz0iMzYyLjk1LDIyOS41LDM0NC45NSwyMjMuNSwzNDQuOTUsMjM1LjUsMzYyLjk1LDIyOS41IiBzdHlsZT0ic3Ryb2tlOiMxODE4MTg7c3Ryb2tlLXdpZHRoOjEuMDsiLz48L2c+PCEtLVNSQz1bckxCQlFpQ200QnB4QW5Qd1NRWjk1bUgzV1lhNDJXN0xFVUl1YUpSZ0thS29xaVFOZmx6VWZxdVJmcE5EaEwzVG44cGNpSWo3RW00OTREYS0ybllFZjhNM3BwQnNHZDY3Y2cyQXQ1OXk4MzlScjJ6RjU1bE1EQWlCczlKbWNhNXR4YzQzMkxsd3ZFR3I2MGNKQ3hQZ0plaGVQV2tzNU1kVWVvbDFhaW14TFJJYUtEWlJfMzV1MnVUNFNNYWNzVGxHVnZ0LXRYc3RJSTlnMFVxbTlQWVZob0RIYmxrY3FvdjBOVUFld3BZQk9IbnJ5bHcyRmNwUE5DMTNPcjNlRXJ4MGJLT1JzODBYSHAtUEZVTWtLekFIMWFnQUtYRHllZ2ZVdlJ5TDdEdHJGd2llZVF6dU9zYW1kSHhCaVMtTHRIbjZfdEdLVldTMF0tLT48L2c+PC9zdmc+;" vertex="1" parent="1">
            <mxGeometry x="-5806.25" y="2698.4299999999994" width="545" height="214.96" as="geometry" />
          </mxCell>
        </UserObject>
        <UserObject label="" plantUmlData="{&quot;data&quot;:&quot;@startuml\n\ntop to bottom direction\n\nclass DriverFeedbackServiceImpl {\n    + BaseDriverFeedbackResponseDto createFeedbackResponseDto()\n    + BaseDriverFeedbackResponseDto saveFeedback(BaseDriverFeedbackDto dto)\n    + Optional&lt;BigDecimal&gt; getAverageRating(Long driverId)\n}\n\nclass UserFeedbackServiceImpl {\n    + BaseUserFeedbackResponseDto saveFeedback(BaseUserFeedbackDto dto)\n    + Optional&lt;BigDecimal&gt; getAverageRating(Long userId)\n    + BaseUserFeedbackResponseDto createFeedbackResponseDTO()\n}\n\nDriverFeedbackServiceImpl ..|&gt; AbstractDriverFeedbackServiceImpl\nUserFeedbackServiceImpl ..|&gt; AbstractUserFeedbackServiceImpl\n\nDriverFeedbackServiceImpl --&gt; DriverFeedbackRepository\nDriverFeedbackServiceImpl --&gt; FeedbackOptionRepository\nDriverFeedbackServiceImpl --&gt; UserDaoRepository\n\nUserFeedbackServiceImpl --&gt; UserFeedbackRepository\nUserFeedbackServiceImpl --&gt; FeedbackOptionRepository\nUserFeedbackServiceImpl --&gt; UserDaoRepository\n\n\n@enduml&quot;,&quot;format&quot;:&quot;svg&quot;}" id="4x7U3FR9SUszH1-q4xUU-416">
          <mxCell style="shape=image;noLabel=1;verticalAlign=top;aspect=fixed;imageAspect=0;image=data:image/svg+xml,PD94bWwgdmVyc2lvbj0iMS4wIiBlbmNvZGluZz0idXMtYXNjaWkiIHN0YW5kYWxvbmU9Im5vIj8+PHN2ZyB4bWxucz0iaHR0cDovL3d3dy53My5vcmcvMjAwMC9zdmciIHhtbG5zOnhsaW5rPSJodHRwOi8vd3d3LnczLm9yZy8xOTk5L3hsaW5rIiBjb250ZW50U3R5bGVUeXBlPSJ0ZXh0L2NzcyIgaGVpZ2h0PSIyMTVweCIgcHJlc2VydmVBc3BlY3RSYXRpbz0ibm9uZSIgc3R5bGU9IndpZHRoOjE0NDFweDtoZWlnaHQ6MjE1cHg7YmFja2dyb3VuZDojRkZGRkZGOyIgdmVyc2lvbj0iMS4xIiB2aWV3Qm94PSIwIDAgMTQ0MSAyMTUiIHdpZHRoPSIxNDQxcHgiIHpvb21BbmRQYW49Im1hZ25pZnkiPjxkZWZzLz48Zz48IS0tY2xhc3MgRHJpdmVyRmVlZGJhY2tTZXJ2aWNlSW1wbC0tPjxnIGlkPSJlbGVtX0RyaXZlckZlZWRiYWNrU2VydmljZUltcGwiPjxyZWN0IGNvZGVMaW5lPSIzIiBmaWxsPSIjRjFGMUYxIiBoZWlnaHQ9IjkyLjk1MzEiIGlkPSJEcml2ZXJGZWVkYmFja1NlcnZpY2VJbXBsIiByeD0iMi41IiByeT0iMi41IiBzdHlsZT0ic3Ryb2tlOiMxODE4MTg7c3Ryb2tlLXdpZHRoOjAuNTsiIHdpZHRoPSI1MTEiIHg9IjIyNS41IiB5PSI3Ii8+PGVsbGlwc2UgY3g9IjM4OC43NSIgY3k9IjIzIiBmaWxsPSIjQUREMUIyIiByeD0iMTEiIHJ5PSIxMSIgc3R5bGU9InN0cm9rZTojMTgxODE4O3N0cm9rZS13aWR0aDoxLjA7Ii8+PHBhdGggZD0iTTM4Ni4zNzUsMjcuMjUgTDM4Ni4zNzUsMjkgTDM5MS4zMTI1LDI5IEwzOTEuMzEyNSwyNy4yNSBMMzg2LjM3NSwyNy4yNSBaIE0zODcuMDYyNSwyNy45Mzc1IFEzODcuMDYyNSwyNy45Mzc1IDM4Ny4wNjI1LDE4Ljc1IEwzODUuMzEyNSwxOC43NSBRMzg1LjMxMjUsMTguNzUgMzg1LjMxMjUsMjcuOTM3NSBMMzg3LjA2MjUsMjcuOTM3NSBaIE0zOTAuNjI1LDI3LjkzNzUgTDM5Mi4zNzUsMjcuOTM3NSBRMzkyLjM3NSwyNy45Mzc1IDM5Mi4zNzUsMjUuMTI1IEwzOTAuNjI1LDI1LjEyNSBRMzkwLjYyNSwyNS4xMjUgMzkwLjYyNSwyNy45Mzc1IFogTTM5MC42MjUsMTguNzUgUTM5MC42MjUsMTguNzUgMzkwLjYyNSwyMS41NjI1IEwzOTIuMzc1LDIxLjU2MjUgUTM5Mi4zNzUsMjEuNTYyNSAzOTIuMzc1LDE4Ljc1IEwzOTAuNjI1LDE4Ljc1IFogTTM4Ni4zNzUsMTkuNDM3NSBMMzkxLjMxMjUsMTkuNDM3NSBMMzkxLjMxMjUsMTcuNjg3NSBMMzg2LjM3NSwxNy42ODc1IEwzODYuMzc1LDE5LjQzNzUgWiAiIGZpbGw9IiMwMDAwMDAiLz48dGV4dCBmaWxsPSIjMDAwMDAwIiBmb250LWZhbWlseT0ic2Fucy1zZXJpZiIgZm9udC1zaXplPSIxNCIgbGVuZ3RoQWRqdXN0PSJzcGFjaW5nIiB0ZXh0TGVuZ3RoPSIxNzYiIHg9IjQwOS4yNSIgeT0iMjguNzQyMiI+RHJpdmVyRmVlZGJhY2tTZXJ2aWNlSW1wbDwvdGV4dD48bGluZSBzdHlsZT0ic3Ryb2tlOiMxODE4MTg7c3Ryb2tlLXdpZHRoOjAuNTsiIHgxPSIyMjYuNSIgeDI9IjczNS41IiB5MT0iMzkiIHkyPSIzOSIvPjxsaW5lIHN0eWxlPSJzdHJva2U6IzE4MTgxODtzdHJva2Utd2lkdGg6MC41OyIgeDE9IjIyNi41IiB4Mj0iNzM1LjUiIHkxPSI0NyIgeTI9IjQ3Ii8+PGVsbGlwc2UgY3g9IjIzNi41IiBjeT0iNTkuOTkyMiIgZmlsbD0iIzg0QkU4NCIgcng9IjMiIHJ5PSIzIiBzdHlsZT0ic3Ryb2tlOiMwMzgwNDg7c3Ryb2tlLXdpZHRoOjEuMDsiLz48dGV4dCBmaWxsPSIjMDAwMDAwIiBmb250LWZhbWlseT0ic2Fucy1zZXJpZiIgZm9udC1zaXplPSIxNCIgbGVuZ3RoQWRqdXN0PSJzcGFjaW5nIiB0ZXh0TGVuZ3RoPSI0MDEiIHg9IjI0NS41IiB5PSI2NC4yMzQ0Ij5CYXNlRHJpdmVyRmVlZGJhY2tSZXNwb25zZUR0byBjcmVhdGVGZWVkYmFja1Jlc3BvbnNlRHRvKCk8L3RleHQ+PGVsbGlwc2UgY3g9IjIzNi41IiBjeT0iNzQuOTc2NiIgZmlsbD0iIzg0QkU4NCIgcng9IjMiIHJ5PSIzIiBzdHlsZT0ic3Ryb2tlOiMwMzgwNDg7c3Ryb2tlLXdpZHRoOjEuMDsiLz48dGV4dCBmaWxsPSIjMDAwMDAwIiBmb250LWZhbWlseT0ic2Fucy1zZXJpZiIgZm9udC1zaXplPSIxNCIgbGVuZ3RoQWRqdXN0PSJzcGFjaW5nIiB0ZXh0TGVuZ3RoPSI0ODUiIHg9IjI0NS41IiB5PSI3OS4yMTg4Ij5CYXNlRHJpdmVyRmVlZGJhY2tSZXNwb25zZUR0byBzYXZlRmVlZGJhY2soQmFzZURyaXZlckZlZWRiYWNrRHRvIGR0byk8L3RleHQ+PGVsbGlwc2UgY3g9IjIzNi41IiBjeT0iODkuOTYwOSIgZmlsbD0iIzg0QkU4NCIgcng9IjMiIHJ5PSIzIiBzdHlsZT0ic3Ryb2tlOiMwMzgwNDg7c3Ryb2tlLXdpZHRoOjEuMDsiLz48dGV4dCBmaWxsPSIjMDAwMDAwIiBmb250LWZhbWlseT0ic2Fucy1zZXJpZiIgZm9udC1zaXplPSIxNCIgbGVuZ3RoQWRqdXN0PSJzcGFjaW5nIiB0ZXh0TGVuZ3RoPSIzNjciIHg9IjI0NS41IiB5PSI5NC4yMDMxIj5PcHRpb25hbCZsdDtCaWdEZWNpbWFsJmd0OyBnZXRBdmVyYWdlUmF0aW5nKExvbmcgZHJpdmVySWQpPC90ZXh0PjwvZz48IS0tY2xhc3MgVXNlckZlZWRiYWNrU2VydmljZUltcGwtLT48ZyBpZD0iZWxlbV9Vc2VyRmVlZGJhY2tTZXJ2aWNlSW1wbCI+PHJlY3QgY29kZUxpbmU9IjkiIGZpbGw9IiNGMUYxRjEiIGhlaWdodD0iOTIuOTUzMSIgaWQ9IlVzZXJGZWVkYmFja1NlcnZpY2VJbXBsIiByeD0iMi41IiByeT0iMi41IiBzdHlsZT0ic3Ryb2tlOiMxODE4MTg7c3Ryb2tlLXdpZHRoOjAuNTsiIHdpZHRoPSI0ODMiIHg9IjgwOC41IiB5PSI3Ii8+PGVsbGlwc2UgY3g9Ijk2NC43NSIgY3k9IjIzIiBmaWxsPSIjQUREMUIyIiByeD0iMTEiIHJ5PSIxMSIgc3R5bGU9InN0cm9rZTojMTgxODE4O3N0cm9rZS13aWR0aDoxLjA7Ii8+PHBhdGggZD0iTTk2Mi4zNzUsMjcuMjUgTDk2Mi4zNzUsMjkgTDk2Ny4zMTI1LDI5IEw5NjcuMzEyNSwyNy4yNSBMOTYyLjM3NSwyNy4yNSBaIE05NjMuMDYyNSwyNy45Mzc1IFE5NjMuMDYyNSwyNy45Mzc1IDk2My4wNjI1LDE4Ljc1IEw5NjEuMzEyNSwxOC43NSBROTYxLjMxMjUsMTguNzUgOTYxLjMxMjUsMjcuOTM3NSBMOTYzLjA2MjUsMjcuOTM3NSBaIE05NjYuNjI1LDI3LjkzNzUgTDk2OC4zNzUsMjcuOTM3NSBROTY4LjM3NSwyNy45Mzc1IDk2OC4zNzUsMjUuMTI1IEw5NjYuNjI1LDI1LjEyNSBROTY2LjYyNSwyNS4xMjUgOTY2LjYyNSwyNy45Mzc1IFogTTk2Ni42MjUsMTguNzUgUTk2Ni42MjUsMTguNzUgOTY2LjYyNSwyMS41NjI1IEw5NjguMzc1LDIxLjU2MjUgUTk2OC4zNzUsMjEuNTYyNSA5NjguMzc1LDE4Ljc1IEw5NjYuNjI1LDE4Ljc1IFogTTk2Mi4zNzUsMTkuNDM3NSBMOTY3LjMxMjUsMTkuNDM3NSBMOTY3LjMxMjUsMTcuNjg3NSBMOTYyLjM3NSwxNy42ODc1IEw5NjIuMzc1LDE5LjQzNzUgWiAiIGZpbGw9IiMwMDAwMDAiLz48dGV4dCBmaWxsPSIjMDAwMDAwIiBmb250LWZhbWlseT0ic2Fucy1zZXJpZiIgZm9udC1zaXplPSIxNCIgbGVuZ3RoQWRqdXN0PSJzcGFjaW5nIiB0ZXh0TGVuZ3RoPSIxNjIiIHg9Ijk4NS4yNSIgeT0iMjguNzQyMiI+VXNlckZlZWRiYWNrU2VydmljZUltcGw8L3RleHQ+PGxpbmUgc3R5bGU9InN0cm9rZTojMTgxODE4O3N0cm9rZS13aWR0aDowLjU7IiB4MT0iODA5LjUiIHgyPSIxMjkwLjUiIHkxPSIzOSIgeTI9IjM5Ii8+PGxpbmUgc3R5bGU9InN0cm9rZTojMTgxODE4O3N0cm9rZS13aWR0aDowLjU7IiB4MT0iODA5LjUiIHgyPSIxMjkwLjUiIHkxPSI0NyIgeTI9IjQ3Ii8+PGVsbGlwc2UgY3g9IjgxOS41IiBjeT0iNTkuOTkyMiIgZmlsbD0iIzg0QkU4NCIgcng9IjMiIHJ5PSIzIiBzdHlsZT0ic3Ryb2tlOiMwMzgwNDg7c3Ryb2tlLXdpZHRoOjEuMDsiLz48dGV4dCBmaWxsPSIjMDAwMDAwIiBmb250LWZhbWlseT0ic2Fucy1zZXJpZiIgZm9udC1zaXplPSIxNCIgbGVuZ3RoQWRqdXN0PSJzcGFjaW5nIiB0ZXh0TGVuZ3RoPSI0NTciIHg9IjgyOC41IiB5PSI2NC4yMzQ0Ij5CYXNlVXNlckZlZWRiYWNrUmVzcG9uc2VEdG8gc2F2ZUZlZWRiYWNrKEJhc2VVc2VyRmVlZGJhY2tEdG8gZHRvKTwvdGV4dD48ZWxsaXBzZSBjeD0iODE5LjUiIGN5PSI3NC45NzY2IiBmaWxsPSIjODRCRTg0IiByeD0iMyIgcnk9IjMiIHN0eWxlPSJzdHJva2U6IzAzODA0ODtzdHJva2Utd2lkdGg6MS4wOyIvPjx0ZXh0IGZpbGw9IiMwMDAwMDAiIGZvbnQtZmFtaWx5PSJzYW5zLXNlcmlmIiBmb250LXNpemU9IjE0IiBsZW5ndGhBZGp1c3Q9InNwYWNpbmciIHRleHRMZW5ndGg9IjM1MyIgeD0iODI4LjUiIHk9Ijc5LjIxODgiPk9wdGlvbmFsJmx0O0JpZ0RlY2ltYWwmZ3Q7IGdldEF2ZXJhZ2VSYXRpbmcoTG9uZyB1c2VySWQpPC90ZXh0PjxlbGxpcHNlIGN4PSI4MTkuNSIgY3k9Ijg5Ljk2MDkiIGZpbGw9IiM4NEJFODQiIHJ4PSIzIiByeT0iMyIgc3R5bGU9InN0cm9rZTojMDM4MDQ4O3N0cm9rZS13aWR0aDoxLjA7Ii8+PHRleHQgZmlsbD0iIzAwMDAwMCIgZm9udC1mYW1pbHk9InNhbnMtc2VyaWYiIGZvbnQtc2l6ZT0iMTQiIGxlbmd0aEFkanVzdD0ic3BhY2luZyIgdGV4dExlbmd0aD0iMzg3IiB4PSI4MjguNSIgeT0iOTQuMjAzMSI+QmFzZVVzZXJGZWVkYmFja1Jlc3BvbnNlRHRvIGNyZWF0ZUZlZWRiYWNrUmVzcG9uc2VEVE8oKTwvdGV4dD48L2c+PCEtLWNsYXNzIEFic3RyYWN0RHJpdmVyRmVlZGJhY2tTZXJ2aWNlSW1wbC0tPjxnIGlkPSJlbGVtX0Fic3RyYWN0RHJpdmVyRmVlZGJhY2tTZXJ2aWNlSW1wbCI+PHJlY3QgZmlsbD0iI0YxRjFGMSIgaGVpZ2h0PSI0OCIgaWQ9IkFic3RyYWN0RHJpdmVyRmVlZGJhY2tTZXJ2aWNlSW1wbCIgcng9IjIuNSIgcnk9IjIuNSIgc3R5bGU9InN0cm9rZTojMTgxODE4O3N0cm9rZS13aWR0aDowLjU7IiB3aWR0aD0iMjY0IiB4PSI3IiB5PSIxNjAiLz48ZWxsaXBzZSBjeD0iMjIiIGN5PSIxNzYiIGZpbGw9IiNBREQxQjIiIHJ4PSIxMSIgcnk9IjExIiBzdHlsZT0ic3Ryb2tlOiMxODE4MTg7c3Ryb2tlLXdpZHRoOjEuMDsiLz48cGF0aCBkPSJNMTkuNjI1LDE4MC4yNSBMMTkuNjI1LDE4MiBMMjQuNTYyNSwxODIgTDI0LjU2MjUsMTgwLjI1IEwxOS42MjUsMTgwLjI1IFogTTIwLjMxMjUsMTgwLjkzNzUgUTIwLjMxMjUsMTgwLjkzNzUgMjAuMzEyNSwxNzEuNzUgTDE4LjU2MjUsMTcxLjc1IFExOC41NjI1LDE3MS43NSAxOC41NjI1LDE4MC45Mzc1IEwyMC4zMTI1LDE4MC45Mzc1IFogTTIzLjg3NSwxODAuOTM3NSBMMjUuNjI1LDE4MC45Mzc1IFEyNS42MjUsMTgwLjkzNzUgMjUuNjI1LDE3OC4xMjUgTDIzLjg3NSwxNzguMTI1IFEyMy44NzUsMTc4LjEyNSAyMy44NzUsMTgwLjkzNzUgWiBNMjMuODc1LDE3MS43NSBRMjMuODc1LDE3MS43NSAyMy44NzUsMTc0LjU2MjUgTDI1LjYyNSwxNzQuNTYyNSBRMjUuNjI1LDE3NC41NjI1IDI1LjYyNSwxNzEuNzUgTDIzLjg3NSwxNzEuNzUgWiBNMTkuNjI1LDE3Mi40Mzc1IEwyNC41NjI1LDE3Mi40Mzc1IEwyNC41NjI1LDE3MC42ODc1IEwxOS42MjUsMTcwLjY4NzUgTDE5LjYyNSwxNzIuNDM3NSBaICIgZmlsbD0iIzAwMDAwMCIvPjx0ZXh0IGZpbGw9IiMwMDAwMDAiIGZvbnQtZmFtaWx5PSJzYW5zLXNlcmlmIiBmb250LXNpemU9IjE0IiBsZW5ndGhBZGp1c3Q9InNwYWNpbmciIHRleHRMZW5ndGg9IjIzMiIgeD0iMzYiIHk9IjE4MS43NDIyIj5BYnN0cmFjdERyaXZlckZlZWRiYWNrU2VydmljZUltcGw8L3RleHQ+PGxpbmUgc3R5bGU9InN0cm9rZTojMTgxODE4O3N0cm9rZS13aWR0aDowLjU7IiB4MT0iOCIgeDI9IjI3MCIgeTE9IjE5MiIgeTI9IjE5MiIvPjxsaW5lIHN0eWxlPSJzdHJva2U6IzE4MTgxODtzdHJva2Utd2lkdGg6MC41OyIgeDE9IjgiIHgyPSIyNzAiIHkxPSIyMDAiIHkyPSIyMDAiLz48L2c+PCEtLWNsYXNzIEFic3RyYWN0VXNlckZlZWRiYWNrU2VydmljZUltcGwtLT48ZyBpZD0iZWxlbV9BYnN0cmFjdFVzZXJGZWVkYmFja1NlcnZpY2VJbXBsIj48cmVjdCBmaWxsPSIjRjFGMUYxIiBoZWlnaHQ9IjQ4IiBpZD0iQWJzdHJhY3RVc2VyRmVlZGJhY2tTZXJ2aWNlSW1wbCIgcng9IjIuNSIgcnk9IjIuNSIgc3R5bGU9InN0cm9rZTojMTgxODE4O3N0cm9rZS13aWR0aDowLjU7IiB3aWR0aD0iMjUwIiB4PSI5NjMiIHk9IjE2MCIvPjxlbGxpcHNlIGN4PSI5NzgiIGN5PSIxNzYiIGZpbGw9IiNBREQxQjIiIHJ4PSIxMSIgcnk9IjExIiBzdHlsZT0ic3Ryb2tlOiMxODE4MTg7c3Ryb2tlLXdpZHRoOjEuMDsiLz48cGF0aCBkPSJNOTc1LjYyNSwxODAuMjUgTDk3NS42MjUsMTgyIEw5ODAuNTYyNSwxODIgTDk4MC41NjI1LDE4MC4yNSBMOTc1LjYyNSwxODAuMjUgWiBNOTc2LjMxMjUsMTgwLjkzNzUgUTk3Ni4zMTI1LDE4MC45Mzc1IDk3Ni4zMTI1LDE3MS43NSBMOTc0LjU2MjUsMTcxLjc1IFE5NzQuNTYyNSwxNzEuNzUgOTc0LjU2MjUsMTgwLjkzNzUgTDk3Ni4zMTI1LDE4MC45Mzc1IFogTTk3OS44NzUsMTgwLjkzNzUgTDk4MS42MjUsMTgwLjkzNzUgUTk4MS42MjUsMTgwLjkzNzUgOTgxLjYyNSwxNzguMTI1IEw5NzkuODc1LDE3OC4xMjUgUTk3OS44NzUsMTc4LjEyNSA5NzkuODc1LDE4MC45Mzc1IFogTTk3OS44NzUsMTcxLjc1IFE5NzkuODc1LDE3MS43NSA5NzkuODc1LDE3NC41NjI1IEw5ODEuNjI1LDE3NC41NjI1IFE5ODEuNjI1LDE3NC41NjI1IDk4MS42MjUsMTcxLjc1IEw5NzkuODc1LDE3MS43NSBaIE05NzUuNjI1LDE3Mi40Mzc1IEw5ODAuNTYyNSwxNzIuNDM3NSBMOTgwLjU2MjUsMTcwLjY4NzUgTDk3NS42MjUsMTcwLjY4NzUgTDk3NS42MjUsMTcyLjQzNzUgWiAiIGZpbGw9IiMwMDAwMDAiLz48dGV4dCBmaWxsPSIjMDAwMDAwIiBmb250LWZhbWlseT0ic2Fucy1zZXJpZiIgZm9udC1zaXplPSIxNCIgbGVuZ3RoQWRqdXN0PSJzcGFjaW5nIiB0ZXh0TGVuZ3RoPSIyMTgiIHg9Ijk5MiIgeT0iMTgxLjc0MjIiPkFic3RyYWN0VXNlckZlZWRiYWNrU2VydmljZUltcGw8L3RleHQ+PGxpbmUgc3R5bGU9InN0cm9rZTojMTgxODE4O3N0cm9rZS13aWR0aDowLjU7IiB4MT0iOTY0IiB4Mj0iMTIxMiIgeTE9IjE5MiIgeTI9IjE5MiIvPjxsaW5lIHN0eWxlPSJzdHJva2U6IzE4MTgxODtzdHJva2Utd2lkdGg6MC41OyIgeDE9Ijk2NCIgeDI9IjEyMTIiIHkxPSIyMDAiIHkyPSIyMDAiLz48L2c+PCEtLWNsYXNzIERyaXZlckZlZWRiYWNrUmVwb3NpdG9yeS0tPjxnIGlkPSJlbGVtX0RyaXZlckZlZWRiYWNrUmVwb3NpdG9yeSI+PHJlY3QgZmlsbD0iI0YxRjFGMSIgaGVpZ2h0PSI0OCIgaWQ9IkRyaXZlckZlZWRiYWNrUmVwb3NpdG9yeSIgcng9IjIuNSIgcnk9IjIuNSIgc3R5bGU9InN0cm9rZTojMTgxODE4O3N0cm9rZS13aWR0aDowLjU7IiB3aWR0aD0iMjAwIiB4PSIzMDYiIHk9IjE2MCIvPjxlbGxpcHNlIGN4PSIzMjEiIGN5PSIxNzYiIGZpbGw9IiNBREQxQjIiIHJ4PSIxMSIgcnk9IjExIiBzdHlsZT0ic3Ryb2tlOiMxODE4MTg7c3Ryb2tlLXdpZHRoOjEuMDsiLz48cGF0aCBkPSJNMzE4LjYyNSwxODAuMjUgTDMxOC42MjUsMTgyIEwzMjMuNTYyNSwxODIgTDMyMy41NjI1LDE4MC4yNSBMMzE4LjYyNSwxODAuMjUgWiBNMzE5LjMxMjUsMTgwLjkzNzUgUTMxOS4zMTI1LDE4MC45Mzc1IDMxOS4zMTI1LDE3MS43NSBMMzE3LjU2MjUsMTcxLjc1IFEzMTcuNTYyNSwxNzEuNzUgMzE3LjU2MjUsMTgwLjkzNzUgTDMxOS4zMTI1LDE4MC45Mzc1IFogTTMyMi44NzUsMTgwLjkzNzUgTDMyNC42MjUsMTgwLjkzNzUgUTMyNC42MjUsMTgwLjkzNzUgMzI0LjYyNSwxNzguMTI1IEwzMjIuODc1LDE3OC4xMjUgUTMyMi44NzUsMTc4LjEyNSAzMjIuODc1LDE4MC45Mzc1IFogTTMyMi44NzUsMTcxLjc1IFEzMjIuODc1LDE3MS43NSAzMjIuODc1LDE3NC41NjI1IEwzMjQuNjI1LDE3NC41NjI1IFEzMjQuNjI1LDE3NC41NjI1IDMyNC42MjUsMTcxLjc1IEwzMjIuODc1LDE3MS43NSBaIE0zMTguNjI1LDE3Mi40Mzc1IEwzMjMuNTYyNSwxNzIuNDM3NSBMMzIzLjU2MjUsMTcwLjY4NzUgTDMxOC42MjUsMTcwLjY4NzUgTDMxOC42MjUsMTcyLjQzNzUgWiAiIGZpbGw9IiMwMDAwMDAiLz48dGV4dCBmaWxsPSIjMDAwMDAwIiBmb250LWZhbWlseT0ic2Fucy1zZXJpZiIgZm9udC1zaXplPSIxNCIgbGVuZ3RoQWRqdXN0PSJzcGFjaW5nIiB0ZXh0TGVuZ3RoPSIxNjgiIHg9IjMzNSIgeT0iMTgxLjc0MjIiPkRyaXZlckZlZWRiYWNrUmVwb3NpdG9yeTwvdGV4dD48bGluZSBzdHlsZT0ic3Ryb2tlOiMxODE4MTg7c3Ryb2tlLXdpZHRoOjAuNTsiIHgxPSIzMDciIHgyPSI1MDUiIHkxPSIxOTIiIHkyPSIxOTIiLz48bGluZSBzdHlsZT0ic3Ryb2tlOiMxODE4MTg7c3Ryb2tlLXdpZHRoOjAuNTsiIHgxPSIzMDciIHgyPSI1MDUiIHkxPSIyMDAiIHkyPSIyMDAiLz48L2c+PCEtLWNsYXNzIEZlZWRiYWNrT3B0aW9uUmVwb3NpdG9yeS0tPjxnIGlkPSJlbGVtX0ZlZWRiYWNrT3B0aW9uUmVwb3NpdG9yeSI+PHJlY3QgZmlsbD0iI0YxRjFGMSIgaGVpZ2h0PSI0OCIgaWQ9IkZlZWRiYWNrT3B0aW9uUmVwb3NpdG9yeSIgcng9IjIuNSIgcnk9IjIuNSIgc3R5bGU9InN0cm9rZTojMTgxODE4O3N0cm9rZS13aWR0aDowLjU7IiB3aWR0aD0iMjAwIiB4PSI1NDEiIHk9IjE2MCIvPjxlbGxpcHNlIGN4PSI1NTYiIGN5PSIxNzYiIGZpbGw9IiNBREQxQjIiIHJ4PSIxMSIgcnk9IjExIiBzdHlsZT0ic3Ryb2tlOiMxODE4MTg7c3Ryb2tlLXdpZHRoOjEuMDsiLz48cGF0aCBkPSJNNTUzLjYyNSwxODAuMjUgTDU1My42MjUsMTgyIEw1NTguNTYyNSwxODIgTDU1OC41NjI1LDE4MC4yNSBMNTUzLjYyNSwxODAuMjUgWiBNNTU0LjMxMjUsMTgwLjkzNzUgUTU1NC4zMTI1LDE4MC45Mzc1IDU1NC4zMTI1LDE3MS43NSBMNTUyLjU2MjUsMTcxLjc1IFE1NTIuNTYyNSwxNzEuNzUgNTUyLjU2MjUsMTgwLjkzNzUgTDU1NC4zMTI1LDE4MC45Mzc1IFogTTU1Ny44NzUsMTgwLjkzNzUgTDU1OS42MjUsMTgwLjkzNzUgUTU1OS42MjUsMTgwLjkzNzUgNTU5LjYyNSwxNzguMTI1IEw1NTcuODc1LDE3OC4xMjUgUTU1Ny44NzUsMTc4LjEyNSA1NTcuODc1LDE4MC45Mzc1IFogTTU1Ny44NzUsMTcxLjc1IFE1NTcuODc1LDE3MS43NSA1NTcuODc1LDE3NC41NjI1IEw1NTkuNjI1LDE3NC41NjI1IFE1NTkuNjI1LDE3NC41NjI1IDU1OS42MjUsMTcxLjc1IEw1NTcuODc1LDE3MS43NSBaIE01NTMuNjI1LDE3Mi40Mzc1IEw1NTguNTYyNSwxNzIuNDM3NSBMNTU4LjU2MjUsMTcwLjY4NzUgTDU1My42MjUsMTcwLjY4NzUgTDU1My42MjUsMTcyLjQzNzUgWiAiIGZpbGw9IiMwMDAwMDAiLz48dGV4dCBmaWxsPSIjMDAwMDAwIiBmb250LWZhbWlseT0ic2Fucy1zZXJpZiIgZm9udC1zaXplPSIxNCIgbGVuZ3RoQWRqdXN0PSJzcGFjaW5nIiB0ZXh0TGVuZ3RoPSIxNjgiIHg9IjU3MCIgeT0iMTgxLjc0MjIiPkZlZWRiYWNrT3B0aW9uUmVwb3NpdG9yeTwvdGV4dD48bGluZSBzdHlsZT0ic3Ryb2tlOiMxODE4MTg7c3Ryb2tlLXdpZHRoOjAuNTsiIHgxPSI1NDIiIHgyPSI3NDAiIHkxPSIxOTIiIHkyPSIxOTIiLz48bGluZSBzdHlsZT0ic3Ryb2tlOiMxODE4MTg7c3Ryb2tlLXdpZHRoOjAuNTsiIHgxPSI1NDIiIHgyPSI3NDAiIHkxPSIyMDAiIHkyPSIyMDAiLz48L2c+PCEtLWNsYXNzIFVzZXJEYW9SZXBvc2l0b3J5LS0+PGcgaWQ9ImVsZW1fVXNlckRhb1JlcG9zaXRvcnkiPjxyZWN0IGZpbGw9IiNGMUYxRjEiIGhlaWdodD0iNDgiIGlkPSJVc2VyRGFvUmVwb3NpdG9yeSIgcng9IjIuNSIgcnk9IjIuNSIgc3R5bGU9InN0cm9rZTojMTgxODE4O3N0cm9rZS13aWR0aDowLjU7IiB3aWR0aD0iMTUxIiB4PSI3NzYuNSIgeT0iMTYwIi8+PGVsbGlwc2UgY3g9Ijc5MS41IiBjeT0iMTc2IiBmaWxsPSIjQUREMUIyIiByeD0iMTEiIHJ5PSIxMSIgc3R5bGU9InN0cm9rZTojMTgxODE4O3N0cm9rZS13aWR0aDoxLjA7Ii8+PHBhdGggZD0iTTc4OS4xMjUsMTgwLjI1IEw3ODkuMTI1LDE4MiBMNzk0LjA2MjUsMTgyIEw3OTQuMDYyNSwxODAuMjUgTDc4OS4xMjUsMTgwLjI1IFogTTc4OS44MTI1LDE4MC45Mzc1IFE3ODkuODEyNSwxODAuOTM3NSA3ODkuODEyNSwxNzEuNzUgTDc4OC4wNjI1LDE3MS43NSBRNzg4LjA2MjUsMTcxLjc1IDc4OC4wNjI1LDE4MC45Mzc1IEw3ODkuODEyNSwxODAuOTM3NSBaIE03OTMuMzc1LDE4MC45Mzc1IEw3OTUuMTI1LDE4MC45Mzc1IFE3OTUuMTI1LDE4MC45Mzc1IDc5NS4xMjUsMTc4LjEyNSBMNzkzLjM3NSwxNzguMTI1IFE3OTMuMzc1LDE3OC4xMjUgNzkzLjM3NSwxODAuOTM3NSBaIE03OTMuMzc1LDE3MS43NSBRNzkzLjM3NSwxNzEuNzUgNzkzLjM3NSwxNzQuNTYyNSBMNzk1LjEyNSwxNzQuNTYyNSBRNzk1LjEyNSwxNzQuNTYyNSA3OTUuMTI1LDE3MS43NSBMNzkzLjM3NSwxNzEuNzUgWiBNNzg5LjEyNSwxNzIuNDM3NSBMNzk0LjA2MjUsMTcyLjQzNzUgTDc5NC4wNjI1LDE3MC42ODc1IEw3ODkuMTI1LDE3MC42ODc1IEw3ODkuMTI1LDE3Mi40Mzc1IFogIiBmaWxsPSIjMDAwMDAwIi8+PHRleHQgZmlsbD0iIzAwMDAwMCIgZm9udC1mYW1pbHk9InNhbnMtc2VyaWYiIGZvbnQtc2l6ZT0iMTQiIGxlbmd0aEFkanVzdD0ic3BhY2luZyIgdGV4dExlbmd0aD0iMTE5IiB4PSI4MDUuNSIgeT0iMTgxLjc0MjIiPlVzZXJEYW9SZXBvc2l0b3J5PC90ZXh0PjxsaW5lIHN0eWxlPSJzdHJva2U6IzE4MTgxODtzdHJva2Utd2lkdGg6MC41OyIgeDE9Ijc3Ny41IiB4Mj0iOTI2LjUiIHkxPSIxOTIiIHkyPSIxOTIiLz48bGluZSBzdHlsZT0ic3Ryb2tlOiMxODE4MTg7c3Ryb2tlLXdpZHRoOjAuNTsiIHgxPSI3NzcuNSIgeDI9IjkyNi41IiB5MT0iMjAwIiB5Mj0iMjAwIi8+PC9nPjwhLS1jbGFzcyBVc2VyRmVlZGJhY2tSZXBvc2l0b3J5LS0+PGcgaWQ9ImVsZW1fVXNlckZlZWRiYWNrUmVwb3NpdG9yeSI+PHJlY3QgZmlsbD0iI0YxRjFGMSIgaGVpZ2h0PSI0OCIgaWQ9IlVzZXJGZWVkYmFja1JlcG9zaXRvcnkiIHJ4PSIyLjUiIHJ5PSIyLjUiIHN0eWxlPSJzdHJva2U6IzE4MTgxODtzdHJva2Utd2lkdGg6MC41OyIgd2lkdGg9IjE4NiIgeD0iMTI0OCIgeT0iMTYwIi8+PGVsbGlwc2UgY3g9IjEyNjMiIGN5PSIxNzYiIGZpbGw9IiNBREQxQjIiIHJ4PSIxMSIgcnk9IjExIiBzdHlsZT0ic3Ryb2tlOiMxODE4MTg7c3Ryb2tlLXdpZHRoOjEuMDsiLz48cGF0aCBkPSJNMTI2MC42MjUsMTgwLjI1IEwxMjYwLjYyNSwxODIgTDEyNjUuNTYyNSwxODIgTDEyNjUuNTYyNSwxODAuMjUgTDEyNjAuNjI1LDE4MC4yNSBaIE0xMjYxLjMxMjUsMTgwLjkzNzUgUTEyNjEuMzEyNSwxODAuOTM3NSAxMjYxLjMxMjUsMTcxLjc1IEwxMjU5LjU2MjUsMTcxLjc1IFExMjU5LjU2MjUsMTcxLjc1IDEyNTkuNTYyNSwxODAuOTM3NSBMMTI2MS4zMTI1LDE4MC45Mzc1IFogTTEyNjQuODc1LDE4MC45Mzc1IEwxMjY2LjYyNSwxODAuOTM3NSBRMTI2Ni42MjUsMTgwLjkzNzUgMTI2Ni42MjUsMTc4LjEyNSBMMTI2NC44NzUsMTc4LjEyNSBRMTI2NC44NzUsMTc4LjEyNSAxMjY0Ljg3NSwxODAuOTM3NSBaIE0xMjY0Ljg3NSwxNzEuNzUgUTEyNjQuODc1LDE3MS43NSAxMjY0Ljg3NSwxNzQuNTYyNSBMMTI2Ni42MjUsMTc0LjU2MjUgUTEyNjYuNjI1LDE3NC41NjI1IDEyNjYuNjI1LDE3MS43NSBMMTI2NC44NzUsMTcxLjc1IFogTTEyNjAuNjI1LDE3Mi40Mzc1IEwxMjY1LjU2MjUsMTcyLjQzNzUgTDEyNjUuNTYyNSwxNzAuNjg3NSBMMTI2MC42MjUsMTcwLjY4NzUgTDEyNjAuNjI1LDE3Mi40Mzc1IFogIiBmaWxsPSIjMDAwMDAwIi8+PHRleHQgZmlsbD0iIzAwMDAwMCIgZm9udC1mYW1pbHk9InNhbnMtc2VyaWYiIGZvbnQtc2l6ZT0iMTQiIGxlbmd0aEFkanVzdD0ic3BhY2luZyIgdGV4dExlbmd0aD0iMTU0IiB4PSIxMjc3IiB5PSIxODEuNzQyMiI+VXNlckZlZWRiYWNrUmVwb3NpdG9yeTwvdGV4dD48bGluZSBzdHlsZT0ic3Ryb2tlOiMxODE4MTg7c3Ryb2tlLXdpZHRoOjAuNTsiIHgxPSIxMjQ5IiB4Mj0iMTQzMyIgeTE9IjE5MiIgeTI9IjE5MiIvPjxsaW5lIHN0eWxlPSJzdHJva2U6IzE4MTgxODtzdHJva2Utd2lkdGg6MC41OyIgeDE9IjEyNDkiIHgyPSIxNDMzIiB5MT0iMjAwIiB5Mj0iMjAwIi8+PC9nPjwhLS1saW5rIERyaXZlckZlZWRiYWNrU2VydmljZUltcGwgdG8gQWJzdHJhY3REcml2ZXJGZWVkYmFja1NlcnZpY2VJbXBsLS0+PGcgaWQ9ImxpbmtfRHJpdmVyRmVlZGJhY2tTZXJ2aWNlSW1wbF9BYnN0cmFjdERyaXZlckZlZWRiYWNrU2VydmljZUltcGwiPjxwYXRoIGNvZGVMaW5lPSIxNSIgZD0iTTM1OS40NiwxMDAuMTcgQzMwNS43LDEyMC4zNiAyNjEuNjU5NywxMzYuOTA4NSAyMTcuNTA5NywxNTMuNDk4NSAiIGZpbGw9Im5vbmUiIGlkPSJEcml2ZXJGZWVkYmFja1NlcnZpY2VJbXBsLXRvLUFic3RyYWN0RHJpdmVyRmVlZGJhY2tTZXJ2aWNlSW1wbCIgc3R5bGU9InN0cm9rZTojMTgxODE4O3N0cm9rZS13aWR0aDoxLjA7c3Ryb2tlLWRhc2hhcnJheTo3LjAsNy4wOyIvPjxwb2x5Z29uIGZpbGw9Im5vbmUiIHBvaW50cz0iMjAwLjY2LDE1OS44MywyMTkuNjIwMiwxNTkuMTE1LDIxNS4zOTkyLDE0Ny44ODE5LDIwMC42NiwxNTkuODMiIHN0eWxlPSJzdHJva2U6IzE4MTgxODtzdHJva2Utd2lkdGg6MS4wOyIvPjwvZz48IS0tbGluayBVc2VyRmVlZGJhY2tTZXJ2aWNlSW1wbCB0byBBYnN0cmFjdFVzZXJGZWVkYmFja1NlcnZpY2VJbXBsLS0+PGcgaWQ9ImxpbmtfVXNlckZlZWRiYWNrU2VydmljZUltcGxfQWJzdHJhY3RVc2VyRmVlZGJhY2tTZXJ2aWNlSW1wbCI+PHBhdGggY29kZUxpbmU9IjE2IiBkPSJNMTA2My41LDEwMC4xNyBDMTA2OS40OCwxMjAuMzYgMTA3MS4xMzE3LDEyNS45ODAxIDEwNzYuMDQxNywxNDIuNTcwMSAiIGZpbGw9Im5vbmUiIGlkPSJVc2VyRmVlZGJhY2tTZXJ2aWNlSW1wbC10by1BYnN0cmFjdFVzZXJGZWVkYmFja1NlcnZpY2VJbXBsIiBzdHlsZT0ic3Ryb2tlOiMxODE4MTg7c3Ryb2tlLXdpZHRoOjEuMDtzdHJva2UtZGFzaGFycmF5OjcuMCw3LjA7Ii8+PHBvbHlnb24gZmlsbD0ibm9uZSIgcG9pbnRzPSIxMDgxLjE1LDE1OS44MywxMDgxLjc5NSwxNDAuODY3MywxMDcwLjI4ODQsMTQ0LjI3MjgsMTA4MS4xNSwxNTkuODMiIHN0eWxlPSJzdHJva2U6IzE4MTgxODtzdHJva2Utd2lkdGg6MS4wOyIvPjwvZz48IS0tbGluayBEcml2ZXJGZWVkYmFja1NlcnZpY2VJbXBsIHRvIERyaXZlckZlZWRiYWNrUmVwb3NpdG9yeS0tPjxnIGlkPSJsaW5rX0RyaXZlckZlZWRiYWNrU2VydmljZUltcGxfRHJpdmVyRmVlZGJhY2tSZXBvc2l0b3J5Ij48cGF0aCBjb2RlTGluZT0iMTgiIGQ9Ik00NTQuMzUsMTAwLjE3IEM0NDIuNTYsMTIwLjM2IDQzMi4yMjM4LDEzOC4wNTc3IDQyMi41NDM4LDE1NC42NDc3ICIgZmlsbD0ibm9uZSIgaWQ9IkRyaXZlckZlZWRiYWNrU2VydmljZUltcGwtdG8tRHJpdmVyRmVlZGJhY2tSZXBvc2l0b3J5IiBzdHlsZT0ic3Ryb2tlOiMxODE4MTg7c3Ryb2tlLXdpZHRoOjEuMDsiLz48cG9seWdvbiBmaWxsPSIjMTgxODE4IiBwb2ludHM9IjQxOS41MiwxNTkuODMsNDI3LjUxMDYsMTU0LjA3MjQsNDIyLjAzOTgsMTU1LjUxMTQsNDIwLjYwMDgsMTUwLjA0MDYsNDE5LjUyLDE1OS44MyIgc3R5bGU9InN0cm9rZTojMTgxODE4O3N0cm9rZS13aWR0aDoxLjA7Ii8+PC9nPjwhLS1saW5rIERyaXZlckZlZWRiYWNrU2VydmljZUltcGwgdG8gRmVlZGJhY2tPcHRpb25SZXBvc2l0b3J5LS0+PGcgaWQ9ImxpbmtfRHJpdmVyRmVlZGJhY2tTZXJ2aWNlSW1wbF9GZWVkYmFja09wdGlvblJlcG9zaXRvcnkiPjxwYXRoIGNvZGVMaW5lPSIxOSIgZD0iTTUzNy44NiwxMDAuMTcgQzU2My4wMSwxMjAuMzYgNTg2LjgyMjUsMTM5LjQ4MjIgNjA3LjQ3MjUsMTU2LjA3MjIgIiBmaWxsPSJub25lIiBpZD0iRHJpdmVyRmVlZGJhY2tTZXJ2aWNlSW1wbC10by1GZWVkYmFja09wdGlvblJlcG9zaXRvcnkiIHN0eWxlPSJzdHJva2U6IzE4MTgxODtzdHJva2Utd2lkdGg6MS4wOyIvPjxwb2x5Z29uIGZpbGw9IiMxODE4MTgiIHBvaW50cz0iNjEyLjE1LDE1OS44Myw2MDcuNjM5LDE1MS4wNzQ5LDYwOC4yNTIxLDE1Ni42OTg1LDYwMi42Mjg2LDE1Ny4zMTE2LDYxMi4xNSwxNTkuODMiIHN0eWxlPSJzdHJva2U6IzE4MTgxODtzdHJva2Utd2lkdGg6MS4wOyIvPjwvZz48IS0tbGluayBEcml2ZXJGZWVkYmFja1NlcnZpY2VJbXBsIHRvIFVzZXJEYW9SZXBvc2l0b3J5LS0+PGcgaWQ9ImxpbmtfRHJpdmVyRmVlZGJhY2tTZXJ2aWNlSW1wbF9Vc2VyRGFvUmVwb3NpdG9yeSI+PHBhdGggY29kZUxpbmU9IjIwIiBkPSJNNjEyLjU4LDEwMC4wOCBDNjcxLjEzLDEyMC4zNSA3MzEuODYwNiwxNDEuMzg1OCA3NzkuODYwNiwxNTguMDE1OCAiIGZpbGw9Im5vbmUiIGlkPSJEcml2ZXJGZWVkYmFja1NlcnZpY2VJbXBsLXRvLVVzZXJEYW9SZXBvc2l0b3J5IiBzdHlsZT0ic3Ryb2tlOiMxODE4MTg7c3Ryb2tlLXdpZHRoOjEuMDsiLz48cG9seWdvbiBmaWxsPSIjMTgxODE4IiBwb2ludHM9Ijc4NS41MywxNTkuOTgsNzc4LjMzNTQsMTUzLjI1NDEsNzgwLjgwNTUsMTU4LjM0MzIsNzc1LjcxNjUsMTYwLjgxMzMsNzg1LjUzLDE1OS45OCIgc3R5bGU9InN0cm9rZTojMTgxODE4O3N0cm9rZS13aWR0aDoxLjA7Ii8+PC9nPjwhLS1saW5rIFVzZXJGZWVkYmFja1NlcnZpY2VJbXBsIHRvIFVzZXJGZWVkYmFja1JlcG9zaXRvcnktLT48ZyBpZD0ibGlua19Vc2VyRmVlZGJhY2tTZXJ2aWNlSW1wbF9Vc2VyRmVlZGJhY2tSZXBvc2l0b3J5Ij48cGF0aCBjb2RlTGluZT0iMjIiIGQ9Ik0xMTUzLjQyLDEwMC4xNyBDMTE5OS4xNiwxMjAuMzYgMTI0NS40ODE1LDE0MC44MTU4IDEyODMuMDQxNSwxNTcuNDA1OCAiIGZpbGw9Im5vbmUiIGlkPSJVc2VyRmVlZGJhY2tTZXJ2aWNlSW1wbC10by1Vc2VyRmVlZGJhY2tSZXBvc2l0b3J5IiBzdHlsZT0ic3Ryb2tlOiMxODE4MTg7c3Ryb2tlLXdpZHRoOjEuMDsiLz48cG9seWdvbiBmaWxsPSIjMTgxODE4IiBwb2ludHM9IjEyODguNTMsMTU5LjgzLDEyODEuOTEzNSwxNTIuNTM0NywxMjgzLjk1NjMsMTU3LjgwOTgsMTI3OC42ODEyLDE1OS44NTI2LDEyODguNTMsMTU5LjgzIiBzdHlsZT0ic3Ryb2tlOiMxODE4MTg7c3Ryb2tlLXdpZHRoOjEuMDsiLz48L2c+PCEtLWxpbmsgVXNlckZlZWRiYWNrU2VydmljZUltcGwgdG8gRmVlZGJhY2tPcHRpb25SZXBvc2l0b3J5LS0+PGcgaWQ9ImxpbmtfVXNlckZlZWRiYWNrU2VydmljZUltcGxfRmVlZGJhY2tPcHRpb25SZXBvc2l0b3J5Ij48cGF0aCBjb2RlTGluZT0iMjMiIGQ9Ik05MDQuOTQsMTAwLjA4IEM4NDAuMzksMTIwLjM1IDc3Mi45MTM5LDE0MS41NTA5IDcyMC4wMDM5LDE1OC4xODA5ICIgZmlsbD0ibm9uZSIgaWQ9IlVzZXJGZWVkYmFja1NlcnZpY2VJbXBsLXRvLUZlZWRiYWNrT3B0aW9uUmVwb3NpdG9yeSIgc3R5bGU9InN0cm9rZTojMTgxODE4O3N0cm9rZS13aWR0aDoxLjA7Ii8+PHBvbHlnb24gZmlsbD0iIzE4MTgxOCIgcG9pbnRzPSI3MTQuMjgsMTU5Ljk4LDcyNC4wNjUzLDE2MS4wOTczLDcxOS4wNDk5LDE1OC40ODA4LDcyMS42NjY1LDE1My40NjU0LDcxNC4yOCwxNTkuOTgiIHN0eWxlPSJzdHJva2U6IzE4MTgxODtzdHJva2Utd2lkdGg6MS4wOyIvPjwvZz48IS0tbGluayBVc2VyRmVlZGJhY2tTZXJ2aWNlSW1wbCB0byBVc2VyRGFvUmVwb3NpdG9yeS0tPjxnIGlkPSJsaW5rX1VzZXJGZWVkYmFja1NlcnZpY2VJbXBsX1VzZXJEYW9SZXBvc2l0b3J5Ij48cGF0aCBjb2RlTGluZT0iMjQiIGQ9Ik05NzkuNjQsMTAwLjE3IEM5NDguNTEsMTIwLjM2IDkxOC4yOTI4LDEzOS45NzM0IDg5Mi43MzI4LDE1Ni41NjM0ICIgZmlsbD0ibm9uZSIgaWQ9IlVzZXJGZWVkYmFja1NlcnZpY2VJbXBsLXRvLVVzZXJEYW9SZXBvc2l0b3J5IiBzdHlsZT0ic3Ryb2tlOiMxODE4MTg7c3Ryb2tlLXdpZHRoOjEuMDsiLz48cG9seWdvbiBmaWxsPSIjMTgxODE4IiBwb2ludHM9Ijg4Ny43LDE1OS44Myw4OTcuNDI3LDE1OC4yODUzLDg5MS44OTQsMTU3LjEwNzgsODkzLjA3MTUsMTUxLjU3NDksODg3LjcsMTU5LjgzIiBzdHlsZT0ic3Ryb2tlOiMxODE4MTg7c3Ryb2tlLXdpZHRoOjEuMDsiLz48L2c+PCEtLVNSQz1bZFA1SFFpQ20zOFJWVkdlemZlcHMxMkZHNFdRNUdRNVIzdzNPbWZXYmFSNnJtNVh0em9LajZTYk05c0wtakJ6Vl9ZRzlVbjI2YWFNdTFrQzJRTjdTQUFLaFoxNkF1NWVBSnFJY0hGdHNHZzVyY2xRcmgtMUpHTlNVTzhVSGZqSUhla1Vjay10Z3dhMGVURUNiTXpzTFp6Wi1mQkVfUTh5T3VRN01tVlZrTTN0a2QycjhrbmdoNzJwOWpla1dmSUVBUXNwc3A4cTVTd2NwRG9sckRWSHdZaWtUWmZiUHBwN3VWeWx0VTdMUzVhV0MtbE1HTkpmQ3h0NnBFVVVtQlFDNHI5QjRMNmV1YXRXMmNsai1sU3hYel9lekhvU1NGWFBZbV9ycmRkVjdVaWEyVVNHZGNubG02c2ZwYVFKT3FaeUpoTXkwXS0tPjwvZz48L3N2Zz4=;" vertex="1" parent="1">
            <mxGeometry x="-5804.4" y="3207.4299999999994" width="538.31" height="80.32" as="geometry" />
          </mxCell>
        </UserObject>
        <mxCell id="4x7U3FR9SUszH1-q4xUU-312" value="&lt;font style=&quot;font-size: 11px;&quot;&gt;Logic Layer&lt;/font&gt;" style="text;strokeColor=none;fillColor=none;html=1;fontSize=24;fontStyle=1;verticalAlign=middle;align=center;" vertex="1" parent="1">
          <mxGeometry x="-5905.254615384615" y="2487.7499999999995" width="223.07692307692307" height="70.546875" as="geometry" />
        </mxCell>
      </root>
    </mxGraphModel>
  </diagram>
</mxfile>
